<?xml version="1.0" encoding="utf-8"?>
<!-- Generator: Adobe Illustrator 23.0.0, SVG Export Plug-In . SVG Version: 6.00 Build 0)  -->
<svg version="1.1" id="Calque_1" xmlns="http://www.w3.org/2000/svg" xmlns:xlink="http://www.w3.org/1999/xlink" x="0px" y="0px"
	 viewBox="0 0 141.2 141.2" style="enable-background:new 0 0 141.2 141.2;" xml:space="preserve">
<style type="text/css">
	.st0{fill:#F3F3F3;}
	.st1{fill-rule:evenodd;clip-rule:evenodd;fill:#404964;}
	.st2{fill-rule:evenodd;clip-rule:evenodd;fill:#FFFFFF;}
</style>
<circle class="st0" cx="70.6" cy="70.6" r="70.6"/>
<g id="Layer_2">
	<g id="Layer_1-2">
		<polygon class="st1" points="99.1,95.6 99.1,45.6 42.1,45.6 42.1,95.6 		"/>
		<path class="st2" d="M76.1,61.1c7.1,0,11.1,3,11.1,8.2c0,5.2-3.3,6.7-3.3,6.7s6,1.4,6,8.6c0,8.3-9.6,8.4-9.6,8.4h-8.2V61.1H76.1z
			 M76.1,64.8v10.3c0,0,1.8,0,3-0.1c1.2-0.1,4.4-0.8,4.4-5.2s-3-4.9-5.2-5.1L76.1,64.8z M76.1,78.5v10.7h4c0.9,0,5.9-0.6,5.9-5.3
			s-5.3-5.5-6.5-5.5C78.3,78.3,76,78.5,76.1,78.5L76.1,78.5z"/>
		<path class="st2" d="M69,92.8h-4v-7.6H51.3c-0.8,2.4-1.1,4.9-1.1,7.4h-3.9c0-8.2,4.5-22.5,16.8-30.8c4.6-2.4,5.9,1,5.9,2
			C69,63.9,69,92.8,69,92.8z M65,65.2C54.3,74,52.9,81.3,52.9,81.3H65L65,65.2L65,65.2z"/>
		<path class="st2" d="M77.7,47.5c0,0,7.2,3,5.8,11.8c0,0,4.1-5.4,10.7-4.1c0,0-2.9,8.2-11.5,5.5C74.5,58.2,76.4,48.8,77.7,47.5z"/>
	</g>
</g>
</svg>
