<?xml version="1.0" encoding="utf-8"?>
<!-- Generator: Adobe Illustrator 23.0.0, SVG Export Plug-In . SVG Version: 6.00 Build 0)  -->
<svg version="1.1" id="Calque_1" xmlns="http://www.w3.org/2000/svg" xmlns:xlink="http://www.w3.org/1999/xlink" x="0px" y="0px"
	 viewBox="0 0 141.2 141.2" style="enable-background:new 0 0 141.2 141.2;" xml:space="preserve">
<style type="text/css">
	.st0{fill:#F3F3F3;}
	.st1{fill:#404964;}
</style>
<circle class="st0" cx="70.6" cy="70.6" r="70.6"/>
<g id="Layer_2_1_">
	<g id="Layer_1-2_1_">
		<path class="st1" d="M100.9,77.4V73c0-4.1-3-7.7-7-8.4v-5.5c0-0.6-0.4-1-0.9-1.1c0,0-0.1,0-0.1,0h-1.7v-3l1.8-1.1
			c0.5-0.3,0.7-1,0.4-1.5c-0.3-0.5-1-0.7-1.5-0.4l-2.3,1.4c-0.3,0.2-0.5,0.6-0.5,1v3.5h-1.7c-0.6,0-1,0.4-1.1,0.9c0,0,0,0.1,0,0.1
			v5.4h-4.7l-2.7-13.6c-0.4-1.7-1.9-3-3.6-3H61c-2,0-3.7,1.7-3.7,3.7v13l0,0v4.8c-3-3.2-9.7-10.3-12.7-13.5l0,0
			c-0.2-0.3-0.5-0.5-0.9-0.5c-6.1-1.1-8.6,5.2-6.6,11c0.1,0.4,0.5,0.7,1,0.7l0,0c0.6,0,1-0.4,1.1-0.9c0,0,0-0.1,0-0.1v-0.3
			c-0.3-2.6,1.7-4.9,4.3-5.2c1.5-0.1,2.9,0.4,3.9,1.5l0.2,0.2c-4.5,1-5.5,6.5-4,11c0.2,0.4,0.6,0.7,1.1,0.7l0,0c0.6,0,1-0.4,1.1-0.9
			c0,0,0-0.1,0-0.1v-0.3c-0.3-2.6,1.7-4.9,4.3-5.2c1.5-0.1,2.9,0.4,3.9,1.5l3.3,3.5c-5.1,4.2-5.9,11.7-1.7,16.8
			c4.2,5.1,11.7,5.9,16.8,1.7c2.1-1.7,3.5-4,4.1-6.6H87c-0.1,4.9,3.7,8.9,8.6,9c4.9,0.1,8.9-3.7,9-8.6
			C104.6,81.7,103.2,79,100.9,77.4z M88.3,60.1h3.4v4.4h-3.4V60.1z M76.9,51.2l2.6,13.2H65.5V49.9h9.8C76.1,50,76.7,50.5,76.9,51.2z
			 M59.5,51.4c0-0.9,0.7-1.6,1.6-1.6h2.2v14.6h-3.8L59.5,51.4z M38.9,60.5c0.2-1.9,1.8-3.3,3.7-3.3h0.5l0.9,0.9l0.1,0.1
			C42.2,58.1,40.2,58.9,38.9,60.5z M45.4,67.3c0.5-2.2,1.9-3.5,4.3-3.3l1,1C48.7,65,46.8,65.8,45.4,67.3z M64.8,91.2
			c-5.4,0-9.8-4.4-9.8-9.8c0-5.4,4.4-9.8,9.8-9.8c5.4,0,9.8,4.4,9.8,9.8C74.6,86.8,70.2,91.2,64.8,91.2
			C64.8,91.2,64.8,91.2,64.8,91.2z M76.8,81.4c0-6.6-5.3-11.9-11.9-11.9c0,0,0,0,0,0c-1.8,0-3.7,0.5-5.3,1.3v-4.3h32.9
			c3.5,0,6.4,2.9,6.4,6.4v3.3c-0.9-0.3-1.9-0.4-2.9-0.4c-3.9,0-7.3,2.5-8.4,6.3H76.9C76.7,81.9,76.8,81.6,76.8,81.4z M95.9,91.2
			c-3.7,0-6.7-3-6.7-6.6c0,0,0,0,0-0.1c0-3.7,3-6.7,6.7-6.7c3.7,0,6.7,3,6.7,6.7C102.6,88.2,99.6,91.2,95.9,91.2z"/>
		<path class="st1" d="M95.9,80.6c-2.2,0-4,1.8-4,4s1.8,4,4,4s4-1.8,4-4l0,0C99.9,82.4,98.1,80.6,95.9,80.6z M95.9,86.5
			c-1.1,0-1.9-0.9-1.9-1.9s0.9-1.9,1.9-1.9s1.9,0.9,1.9,1.9l0,0C97.8,85.7,96.9,86.5,95.9,86.5C95.9,86.5,95.9,86.5,95.9,86.5z"/>
		<path class="st1" d="M64.8,75.3c-3.4,0-6.2,2.8-6.2,6.2c0,3.4,2.8,6.1,6.2,6.2c3.4,0,6.2-2.8,6.2-6.2c0.1-3.3-2.6-6.1-5.9-6.2
			C65,75.3,64.9,75.3,64.8,75.3z M64.8,85.6c-2.2,0-4-1.8-4-4s1.8-4,4-4c2.2,0,4,1.8,4,4c0,0,0,0,0,0c0,2.2-1.7,4-3.9,4
			C64.9,85.6,64.8,85.6,64.8,85.6z"/>
		<path class="st1" d="M85.8,77.6h-6.6c-0.6,0-1.1,0.5-1.1,1.1s0.5,1.1,1.1,1.1h6.7c0.6,0,1-0.4,1.1-0.9c0,0,0-0.1,0-0.1
			C86.8,78.1,86.3,77.7,85.8,77.6z"/>
		<path class="st1" d="M85.8,72.2c0.6,0,1-0.4,1.1-0.9c0,0,0-0.1,0-0.1v-2.3c0-0.6-0.5-1.1-1.1-1.1s-1.1,0.5-1.1,1.1v2.3
			c0,0.6,0.4,1,0.9,1.1C85.7,72.2,85.7,72.2,85.8,72.2z"/>
		<path class="st1" d="M89.9,72.2c0.6,0,1-0.4,1.1-0.9c0,0,0-0.1,0-0.1v-2.3c0-0.6-0.5-1.1-1.1-1.1c-0.6,0-1.1,0.5-1.1,1.1v2.3
			c0,0.6,0.4,1,0.9,1.1C89.8,72.2,89.9,72.2,89.9,72.2z"/>
		<path class="st1" d="M94,72.2c0.6,0,1-0.4,1.1-0.9c0,0,0-0.1,0-0.1v-2.3c0-0.6-0.5-1.1-1.1-1.1s-1.1,0.5-1.1,1.1v2.3
			c0,0.6,0.4,1,0.9,1.1C93.9,72.2,93.9,72.2,94,72.2z"/>
	</g>
</g>
</svg>
