<?xml version="1.0" encoding="utf-8"?>
<!-- Generator: Adobe Illustrator 23.0.0, SVG Export Plug-In . SVG Version: 6.00 Build 0)  -->
<svg version="1.1" id="Calque_1" xmlns="http://www.w3.org/2000/svg" xmlns:xlink="http://www.w3.org/1999/xlink" x="0px" y="0px"
	 viewBox="0 0 141.2 141.2" style="enable-background:new 0 0 141.2 141.2;" xml:space="preserve">
<style type="text/css">
	.st0{fill:#F3F3F3;}
	.st1{fill:#404964;}
</style>
<circle class="st0" cx="70.6" cy="70.6" r="70.6"/>
<g id="Layer_2">
	<g id="Layer_1-2">
		<path class="st1" d="M80.7,78.3C87,80.4,94,77,96.1,70.7c2.2-6.4-1.2-13.3-7.6-15.5c-0.4-0.1-0.7-0.2-1.1-0.3
			c-1.2-9.3-9.7-15.9-19-14.8c-7.7,1-13.8,7-14.8,14.8c-6.5,1.6-10.6,8.1-9,14.7c1.6,6.5,8.1,10.6,14.7,9c0.4-0.1,0.7-0.2,1.1-0.3
			c1.3,1.8,3,3.3,5,4.2l-1.2,13.4h-8.8v1.6h30.1v-1.6h-8.8l-1.2-13.4C77.7,81.6,79.4,80.1,80.7,78.3z M75.5,80.8L74.9,75l2-2.8
			l-1.3-1l-2.2,3c-0.1,0.2-0.2,0.4-0.1,0.5l1.9,21h-9.3l1.9-21c0-0.2,0-0.4-0.2-0.5l-2.2-3l-1.3,1l2,2.8l-0.5,5.8
			c-1.7-0.9-3.2-2.3-4.2-4c-0.1-0.2-0.4-0.4-0.7-0.4c-0.1,0-0.2,0-0.3,0.1c-1.3,0.5-2.6,0.8-4,0.8c-5.8,0-10.5-4.7-10.5-10.6
			c0-5.1,3.6-9.4,8.6-10.3c0.4-0.1,0.6-0.4,0.7-0.7c0.9-8.5,8.5-14.6,17-13.7c7.2,0.8,12.9,6.5,13.7,13.7c0,0.4,0.3,0.6,0.7,0.7
			c5.7,1.1,9.5,6.6,8.4,12.3c-0.9,5-5.3,8.6-10.3,8.6c-1.4,0-2.7-0.3-4-0.8c-0.4-0.1-0.8,0-1,0.3C78.7,78.5,77.2,79.9,75.5,80.8
			L75.5,80.8z"/>
		<rect x="60.9" y="99.5" class="st1" width="19.5" height="1.6"/>
		<path class="st1" d="M56.7,64.3v-2.8H55v2.8c-1.8,0.5-2.9,2.3-2.4,4c0.5,1.8,2.3,2.9,4,2.4s2.9-2.3,2.4-4
			C58.8,65.5,57.9,64.6,56.7,64.3z M55.9,69.2c-0.9,0-1.7-0.8-1.7-1.7c0-0.9,0.8-1.7,1.7-1.7s1.7,0.8,1.7,1.7
			C57.6,68.4,56.8,69.2,55.9,69.2L55.9,69.2z"/>
		<path class="st1" d="M85.3,70.8c1.8,0,3.3-1.6,3.3-3.4c0-1.5-1-2.8-2.5-3.1v-2.8h-1.6v2.8c-1.8,0.5-2.8,2.3-2.4,4.1
			C82.5,69.8,83.8,70.8,85.3,70.8z M85.3,65.8c0.9,0,1.7,0.8,1.7,1.7c0,0.9-0.8,1.7-1.7,1.7c-0.9,0-1.7-0.8-1.7-1.7
			C83.6,66.6,84.4,65.8,85.3,65.8C85.3,65.8,85.3,65.8,85.3,65.8L85.3,65.8z"/>
		<path class="st1" d="M71.4,64.3v-2.8h-1.6v2.8c-1.8,0.5-2.9,2.3-2.4,4s2.3,2.9,4,2.4s2.9-2.3,2.4-4C73.5,65.5,72.6,64.6,71.4,64.3
			z M70.6,69.2c-0.9,0-1.7-0.8-1.7-1.7c0-0.9,0.8-1.7,1.7-1.7c0.9,0,1.7,0.8,1.7,1.7C72.3,68.4,71.5,69.2,70.6,69.2L70.6,69.2z"/>
		<path class="st1" d="M63.7,57v-2.8h-1.6V57c-1.8,0.5-2.9,2.3-2.4,4s2.3,2.9,4,2.4c1.8-0.5,2.9-2.3,2.4-4
			C65.9,58.2,64.9,57.3,63.7,57z M62.9,61.9c-0.9,0-1.7-0.8-1.7-1.7c0-0.9,0.8-1.7,1.7-1.7s1.7,0.8,1.7,1.7c0,0,0,0,0,0
			C64.6,61.2,63.9,61.9,62.9,61.9z"/>
		<path class="st1" d="M81.6,60.3c0-1.5-1-2.8-2.5-3.2v-2.8h-1.6V57c-1.8,0.5-2.8,2.3-2.4,4c0.5,1.8,2.3,2.8,4,2.4
			C80.5,63.1,81.6,61.8,81.6,60.3z M78.2,61.9c-0.9,0-1.7-0.8-1.7-1.7s0.8-1.7,1.7-1.7c0.9,0,1.7,0.8,1.7,1.7c0,0,0,0,0,0
			C79.9,61.2,79.2,61.9,78.2,61.9z"/>
	</g>
</g>
</svg>
