<?xml version="1.0" encoding="utf-8"?>
<!-- Generator: Adobe Illustrator 23.0.0, SVG Export Plug-In . SVG Version: 6.00 Build 0)  -->
<svg version="1.1" id="Calque_1" xmlns="http://www.w3.org/2000/svg" xmlns:xlink="http://www.w3.org/1999/xlink" x="0px" y="0px"
	 viewBox="0 0 141.2 141.2" style="enable-background:new 0 0 141.2 141.2;" xml:space="preserve">
<style type="text/css">
	.st0{fill:#F3F3F3;}
	.st1{fill:#404964;}
</style>
<circle class="st0" cx="70.6" cy="70.6" r="70.6"/>
<g id="Layer_2">
	<g id="Layer_1-2">
		<path class="st1" d="M61.8,56.7c1-2.7-0.3-5.7-3-6.7c-0.6-0.2-1.2-0.3-1.8-0.3h-0.1c-0.6-2.8-3.3-4.7-6.2-4.1
			c-2.1,0.4-3.7,2-4.1,4.1h-0.1c-2.9,0-5.2,2.3-5.2,5.2c0,0,0,0,0,0c0,0.6,0.1,1.3,0.3,1.8c-2.4,1.5-3.2,4.8-1.6,7.2c0,0,0,0,0,0
			l0.2,0.3c-1.4,1.9-1.4,4.4,0,6.3c-1.6,2.1-1.4,5,0.5,6.8c-2,2.1-2,5.4,0.1,7.4c0.7,0.7,1.6,1.2,2.6,1.4v3.2c0,4,3.3,7.3,7.3,7.3
			c0,0,0,0,0,0h2.1c4,0,7.3-3.3,7.3-7.3c0,0,0,0,0,0v-3.2c2.8-0.6,4.7-3.3,4.1-6.2c-0.2-1-0.7-1.9-1.4-2.6c1.8-1.8,2-4.7,0.5-6.8
			c1.4-1.9,1.4-4.4,0-6.3c1.7-2.3,1.3-5.6-1-7.3L61.8,56.7z M61.1,65.1c1.3,1.1,1.4,3.1,0.3,4.4c-0.1,0.1-0.2,0.2-0.3,0.3
			c-0.4,0.4-0.5,1-0.1,1.5c0,0,0,0,0,0l0.1,0.1c1.3,1.2,1.4,3.1,0.3,4.4c-0.2,0.3-0.5,0.5-0.8,0.7c-0.5,0.3-0.7,0.9-0.4,1.4
			c0.1,0.2,0.2,0.3,0.4,0.4c1.5,0.8,2.1,2.8,1.2,4.3c-0.6,1-1.6,1.6-2.7,1.6c-0.6,0-1,0.5-1,1v4.2c0,2.9-2.4,5.2-5.2,5.2h-2.1
			c-2.9,0-5.2-2.3-5.2-5.2l0,0v-4.2c0-0.6-0.5-1-1.1-1c-1.7,0-3.1-1.4-3.1-3.2c0-1.1,0.6-2.2,1.6-2.7c0.5-0.3,0.7-0.9,0.4-1.4
			c-0.1-0.2-0.2-0.3-0.4-0.4c-1.5-0.8-2.1-2.7-1.3-4.3c0.2-0.3,0.4-0.6,0.7-0.8c0.4-0.4,0.5-1,0.2-1.5c0,0,0,0,0,0
			c0,0-0.1-0.1-0.1-0.1c-1.3-1.1-1.4-3.1-0.3-4.4c0.1-0.1,0.2-0.2,0.3-0.3c0.4-0.4,0.5-1,0.1-1.5c0,0,0,0,0,0l-0.1-0.1
			c-1.3-1.2-1.4-3.1-0.3-4.4c0.4-0.4,0.8-0.7,1.3-0.9c0.5-0.2,0.8-0.8,0.6-1.3c0-0.1-0.1-0.2-0.1-0.2c-1-1.4-0.6-3.4,0.9-4.4
			c0.7-0.5,1.7-0.7,2.5-0.4c0.5,0.1,1.1-0.2,1.3-0.7c0,0,0,0,0,0c0-0.1,0-0.2,0-0.3v-0.1c0-1.7,1.4-3.1,3.1-3.1
			c1.7,0,3.1,1.4,3.1,3.1v0.1c0,0.6,0.4,1.1,1,1.1c0,0,0,0,0,0c0.1,0,0.2,0,0.3,0c1.7-0.4,3.4,0.6,3.8,2.3c0.2,0.9,0.1,1.8-0.4,2.5
			c-0.3,0.5-0.2,1.1,0.3,1.4c0,0,0,0,0,0l0.2,0.1c1.6,0.6,2.5,2.4,1.9,4c-0.2,0.5-0.5,0.9-0.8,1.2c-0.4,0.4-0.5,1-0.1,1.5
			c0,0,0,0,0,0C61.1,65,61.1,65,61.1,65.1z"/>
		<path class="st1" d="M57.5,64.1c0.5-0.3,0.6-0.9,0.4-1.4c-0.3-0.5-0.9-0.7-1.4-0.4c0,0,0,0,0,0l-3.7,2.2v-8.7c0-0.6-0.5-1-1-1
			c-0.6,0-1,0.5-1,1c0,0,0,0,0,0v5.5L47,59.2c-0.5-0.3-1.1-0.1-1.4,0.3c0,0,0,0,0,0c-0.3,0.5-0.1,1.1,0.4,1.4l0,0l4.7,2.8v3.8
			L47,65.5c-0.5-0.3-1.2-0.1-1.5,0.4c-0.3,0.5-0.1,1.2,0.4,1.5l0,0l0,0l4.7,2.8v3.8L47,71.8c-0.5-0.3-1.1-0.1-1.4,0.3c0,0,0,0,0,0
			c-0.3,0.5-0.1,1.1,0.4,1.4l4.7,2.8v6.7c0,0.6,0.5,1,1,1c0.6,0,1-0.5,1-1l0,0v-3.6l4.7-2.8c0.4-0.4,0.4-1.1,0-1.5
			c-0.3-0.3-0.7-0.4-1.1-0.3l0,0l-3.7,2.2v-3.8l4.7-2.8c0.5-0.3,0.7-1,0.4-1.5c-0.3-0.5-1-0.7-1.5-0.4l0,0l0,0l-3.7,2.2V67
			L57.5,64.1z"/>
		<path class="st1" d="M74.5,63.2h-0.8v-2.2c3.4-0.6,5.7-3.8,5.2-7.2c-0.2-1-0.6-1.9-1.2-2.7c0.8-2.8-0.8-5.7-3.6-6.5
			s-5.7,0.8-6.5,3.6c-0.3,0.9-0.3,1.9,0,2.9c-2.1,2.8-1.5,6.7,1.3,8.8c0.8,0.6,1.7,1,2.7,1.2v2.2h-0.8c-2.9,0-5.2,2.3-5.2,5.2
			c0,0.1,0,0.2,0,0.4l1.5,23c0.2,2.7,2.5,4.9,5.2,4.9h0.5c2.8,0,5-2.1,5.2-4.9l1.5-23c0.2-2.9-2-5.4-4.9-5.6c0,0,0,0,0,0L74.5,63.2z
			 M68.4,54.9c0-1.1,0.4-2.1,1.2-2.8c0.3-0.3,0.4-0.8,0.2-1.1c-0.2-0.4-0.3-0.8-0.3-1.3c0-1.7,1.4-3.1,3.1-3.1s3.1,1.4,3.1,3.1
			c0,0.4-0.1,0.9-0.3,1.3c-0.2,0.4-0.1,0.8,0.2,1.1c1.6,1.7,1.5,4.3-0.2,5.9c0,0,0,0,0,0c-0.5,0.5-1.1,0.8-1.8,1v-5.1
			c0-0.6-0.5-1-1-1c-0.6,0-1,0.5-1,1c0,0,0,0,0,0v5.1C69.7,58.5,68.4,56.8,68.4,54.9z M72.9,94.6h-0.5c-1.7,0-3-1.3-3.1-2.9l-1.5-23
			c-0.1-1.7,1.2-3.2,2.9-3.3c0,0,0,0,0,0h3.8c1.7,0,3.1,1.4,3.1,3.1c0,0.1,0,0.1,0,0.2v0.8h-3.8c-0.6,0-1,0.5-1,1c0,0.6,0.5,1,1,1
			h3.7l-0.3,4.2h-3.5c-0.6,0.1-1,0.6-0.9,1.2c0.1,0.5,0.4,0.9,0.9,0.9H77l-0.3,4.2h-3.2c-0.6,0-1,0.5-1,1c0,0.6,0.5,1,1,1
			c0,0,0,0,0,0h3.1l-0.5,7.5C75.9,93.4,74.6,94.6,72.9,94.6L72.9,94.6z"/>
		<path class="st1" d="M95.6,76.7c0.9-0.7,1.6-1.6,2-2.6c0.1-0.6-0.2-1.1-0.8-1.3c-0.5-0.1-1,0.1-1.2,0.6l0,0
			c-0.6,1.3-1.7,2.2-3.1,2.4v-5.1c-0.1-0.6-0.6-1-1.2-0.9c-0.5,0.1-0.9,0.4-0.9,0.9v5.1c-1.4-0.2-2.6-1.1-3.2-2.3
			c-0.2-0.5-0.8-0.8-1.3-0.7c-0.5,0.2-0.8,0.8-0.7,1.3l0,0c0.4,1.1,1.1,2,2.1,2.6c-5.3,2.3-7.7,8.5-5.4,13.8s8.5,7.7,13.8,5.4
			c5.3-2.3,7.7-8.5,5.4-13.8C100.1,79.7,98.1,77.7,95.6,76.7L95.6,76.7z M91.5,94.6c-4.6,0-8.4-3.7-8.4-8.4c0-4.6,3.7-8.4,8.4-8.4
			s8.4,3.7,8.4,8.4S96.1,94.6,91.5,94.6L91.5,94.6z"/>
	</g>
</g>
</svg>
