<?xml version="1.0" encoding="utf-8"?>
<!-- Generator: Adobe Illustrator 23.0.0, SVG Export Plug-In . SVG Version: 6.00 Build 0)  -->
<svg version="1.1" id="Calque_1" xmlns="http://www.w3.org/2000/svg" xmlns:xlink="http://www.w3.org/1999/xlink" x="0px" y="0px"
	 viewBox="0 0 141.2 141.2" style="enable-background:new 0 0 141.2 141.2;" xml:space="preserve">
<style type="text/css">
	.st0{fill:#F3F3F3;}
	.st1{fill:#404964;}
</style>
<circle class="st0" cx="70.6" cy="70.6" r="70.6"/>
<g id="Layer_2_1_">
	<g id="Layer_1-2_1_">
		<path class="st1" d="M89.3,82.7c-5.5,4.9-12.6,7.6-20,7.5c-3,0-5.9-0.5-8.8-1.3c-0.7-0.2-1.4,0.1-1.7,0.8s0.1,1.4,0.8,1.7
			c0.1,0,0.1,0,0.2,0l0,0c3.1,0.9,6.3,1.3,9.4,1.3c8,0.1,15.8-2.8,21.7-8.2c0.4-0.6,0.3-1.4-0.2-1.8C90.4,82.5,89.8,82.4,89.3,82.7z
			"/>
		<path class="st1" d="M43.4,73.8c0.4,0.6,1.2,0.8,1.8,0.4c0.6-0.4,0.8-1.2,0.4-1.8c-0.3-0.5-0.6-1.1-0.9-1.6
			c-0.3-0.6-0.2-1.3,0.3-1.7c0.4-0.4,1.1-0.5,1.6-0.1c5.2,3.7,14.5,6.2,22.7,6.2c7.4,0,15.1-3.2,21.7-8.9c0.6-0.4,0.8-1.2,0.4-1.8
			c-0.4-0.6-1.2-0.8-1.8-0.4c-0.1,0.1-0.2,0.1-0.3,0.2l0,0c-6.1,5.3-13.2,8.2-20,8.2c-7.5,0-16.4-2.4-21.2-5.8
			c-1.5-1.1-3.5-1-4.9,0.2c-1.4,1.2-1.8,3.2-0.9,4.8C42.7,72.6,43,73.2,43.4,73.8z"/>
		<path class="st1" d="M100.2,54.9c0.7,0.2,1.4-0.2,1.6-0.9c0-0.1,0.1-0.2,0.1-0.3v-6.5c0-0.6-0.4-1.1-1-1.3l-11.7-2.6
			c-0.7-0.2-1.4,0.3-1.6,1c0,0,0,0,0,0c0,0.1,0,0.2,0,0.3V51c0,0.6,0.4,1.1,1,1.3l2.9,0.6v2.7c-6,5.1-13,7.9-19.6,7.9
			c-7.5,0-16.4-2.4-21.1-5.7c-1.1-0.8-2.6-1-3.9-0.5c-2,0.9-2.9,3.2-2,5.2l0.1,0.3c0.3,0.6,0.7,1.2,1.1,1.8c0.4,0.6,1.2,0.8,1.8,0.4
			c0.6-0.4,0.8-1.2,0.4-1.8c-0.3-0.5-0.6-1.1-0.9-1.6c-0.3-0.6-0.2-1.3,0.3-1.7c0.5-0.4,1.1-0.4,1.6-0.1c5.2,3.7,14.5,6.2,22.7,6.2
			c7.4,0,15.1-3.2,21.7-8.9c0.3-0.2,0.4-0.6,0.4-1v-4.3c0-0.6-0.4-1.1-1-1.3L90.2,50v-3.9l9.1,2v3.7l-0.8-0.3
			c-0.7-0.2-1.4,0.1-1.6,0.8c0,0.1-0.1,0.3-0.1,0.4v11.4c-1.2,0.3-2.3,1.1-2.8,2.3c-5,9.4-15.6,15.5-27.2,15.5
			c-7.5,0-16.4-2.4-21.1-5.7c-1.1-0.8-2.6-1-3.9-0.5c-2,0.9-2.9,3.2-2.1,5.2l0.1,0.3C44.7,91,57.7,98,70.6,98
			c17.3,0,31.3-13.3,31.3-29.6v-0.1c0-1.7-1-3.3-2.6-3.9v-9.8L100.2,54.9z M99.3,68.5c0,14.9-12.9,26.9-28.7,26.9
			c-11.8,0-24.1-6.6-28.5-15.3c-0.3-0.6-0.2-1.3,0.3-1.7c0.2-0.2,0.5-0.3,0.9-0.3c0.3,0,0.5,0.1,0.8,0.3c5.2,3.7,14.5,6.2,22.7,6.2
			c12.5,0,24.1-6.6,29.5-16.9c0.4-0.7,1.1-1.1,1.9-0.9C99.3,67,99.3,68.5,99.3,68.5z"/>
	</g>
</g>
</svg>
