<?xml version="1.0" encoding="utf-8"?>
<!-- Generator: Adobe Illustrator 23.0.0, SVG Export Plug-In . SVG Version: 6.00 Build 0)  -->
<svg version="1.1" id="Calque_1" xmlns="http://www.w3.org/2000/svg" xmlns:xlink="http://www.w3.org/1999/xlink" x="0px" y="0px"
	 viewBox="0 0 141.2 141.2" style="enable-background:new 0 0 141.2 141.2;" xml:space="preserve">
<style type="text/css">
	.st0{fill:#F3F3F3;}
	.st1{fill:#404964;}
</style>
<circle class="st0" cx="70.6" cy="70.6" r="70.6"/>
<g id="Layer_2">
	<g id="Layer_1-2">
		<path class="st1" d="M103.5,95.3h-8.2v-4.4c0.5,0.2,1.1,0.3,1.7,0.3c1.4,0,2.9-0.4,4.2-1c1.3-0.7,2.9-3.6,3.4-4.9
			c0.2-0.3,0.2-0.7,0-1.1c-0.2-0.3-0.5-0.6-0.9-0.6c-1.4-0.1-4.6-0.3-5.9,0.4c-0.9,0.6-1.7,1.3-2.4,2.2v-3.1
			c0.5,0.2,1.1,0.3,1.7,0.3c1.4,0,2.9-0.4,4.2-1c1.3-0.7,2.9-3.7,3.4-4.9c0.2-0.3,0.2-0.8,0-1.1c-0.2-0.3-0.5-0.6-0.9-0.6
			c-1.4-0.1-4.6-0.3-5.9,0.4c-0.9,0.6-1.7,1.3-2.4,2.2v-3.1c0.5,0.2,1.1,0.3,1.7,0.3c1.4,0,2.9-0.4,4.2-1c1.3-0.7,2.9-3.6,3.4-4.9
			c0.3-0.6,0.1-1.3-0.5-1.6c-0.2-0.1-0.3-0.1-0.5-0.1c-1.4-0.1-4.6-0.3-5.9,0.4c-0.9,0.6-1.7,1.3-2.4,2.2v-3.1
			c0.5,0.2,1.1,0.3,1.7,0.3c1.4,0,2.9-0.4,4.2-1c1.3-0.7,2.9-3.6,3.4-4.9c0.2-0.3,0.2-0.7,0-1.1c-0.2-0.3-0.5-0.6-0.9-0.6
			c-1.4-0.1-4.6-0.3-5.9,0.4c-0.9,0.6-1.7,1.3-2.4,2.2v-3c0.5,0.2,1.1,0.3,1.7,0.3c1.4,0,2.8-0.4,4.1-1c1.3-0.7,2.9-3.7,3.4-4.9
			c0.2-0.3,0.2-0.8,0-1.1c-0.2-0.3-0.5-0.6-0.9-0.6c-1.4-0.1-4.6-0.3-5.9,0.4c-0.9,0.6-1.7,1.3-2.4,2.2v-0.7
			c1.6-1.1,2.3-4.3,2.3-5.5c0-1.5-1.8-4.3-2.6-5.4c-0.4-0.5-1.2-0.6-1.7-0.2c-0.1,0.1-0.2,0.1-0.2,0.2c-0.8,1.1-2.6,3.9-2.6,5.3
			c0,1.1,0.7,4.4,2.4,5.4v0.7c-0.7-0.9-1.5-1.6-2.4-2.2c-1.3-0.7-4.6-0.5-5.9-0.4c-0.4,0-0.7,0.3-0.9,0.6c-0.2,0.3-0.2,0.7,0,1.1
			c0.6,1.2,2.1,4.1,3.4,4.9c1.3,0.6,2.7,1,4.2,1c0.6,0,1.2-0.1,1.7-0.3v3.1c-0.7-0.9-1.5-1.6-2.4-2.2c-1.3-0.7-4.6-0.5-5.9-0.4
			c-0.6,0.1-1.1,0.6-1.1,1.3c0,0.1,0.1,0.3,0.1,0.4c0.6,1.2,2.1,4.1,3.4,4.9c1.3,0.6,2.7,1,4.2,1c0.6,0,1.2-0.1,1.7-0.3v3.1
			c-0.7-0.9-1.5-1.6-2.4-2.2c-1.3-0.7-4.6-0.5-5.9-0.4c-0.4,0-0.7,0.2-0.9,0.6c-0.2,0.3-0.2,0.7,0,1.1c0.6,1.2,2.1,4.1,3.4,4.9
			c1.3,0.6,2.7,1,4.2,1c0.6,0,1.2-0.1,1.7-0.3v3.1c-0.7-0.9-1.5-1.6-2.4-2.2c-1.3-0.7-4.6-0.5-5.9-0.4c-0.4,0-0.7,0.3-0.9,0.6
			c-0.2,0.3-0.2,0.7,0,1.1c0.6,1.2,2.1,4.1,3.4,4.9c1.3,0.6,2.7,1,4.2,1c0.6,0,1.2-0.1,1.7-0.3v3.1c-0.7-0.9-1.5-1.6-2.4-2.2
			c-1.3-0.7-4.6-0.5-5.9-0.4c-0.4,0-0.7,0.3-0.9,0.6c-0.2,0.3-0.2,0.7,0,1.1c0.6,1.2,2.1,4.1,3.4,4.9c1.3,0.6,2.7,1,4.2,1
			c0.6,0,1.2-0.1,1.7-0.3v4.4H71.7v-4.4c0.5,0.2,1.1,0.3,1.7,0.3c1.4,0,2.9-0.4,4.1-1c1.3-0.7,2.8-3.6,3.4-4.9
			c0.2-0.3,0.2-0.7,0-1.1c-0.2-0.3-0.5-0.6-0.9-0.6c-1.4-0.1-4.6-0.3-5.9,0.4c-0.9,0.6-1.7,1.3-2.4,2.2v-3.1
			c0.5,0.2,1.1,0.3,1.7,0.3c1.4,0,2.8-0.4,4.1-1c1.3-0.7,2.8-3.7,3.4-4.9c0.2-0.3,0.2-0.8,0-1.1c-0.2-0.3-0.5-0.6-0.9-0.6
			c-1.4-0.1-4.6-0.3-5.9,0.4c-0.9,0.6-1.7,1.3-2.4,2.2v-3.1c0.5,0.2,1.1,0.3,1.7,0.3c1.4,0,2.8-0.4,4.1-1c1.3-0.7,2.8-3.6,3.4-4.9
			c0.3-0.6,0.1-1.3-0.5-1.6c-0.2-0.1-0.4-0.1-0.6-0.1c-1.4-0.1-4.6-0.3-5.9,0.4c-0.9,0.6-1.7,1.3-2.4,2.2v-3.1
			c0.5,0.2,1.1,0.3,1.7,0.3c1.4,0,2.9-0.4,4.1-1c1.3-0.7,2.8-3.6,3.4-4.9c0.2-0.3,0.2-0.7,0-1.1c-0.2-0.3-0.5-0.6-0.9-0.6
			c-1.4-0.1-4.6-0.3-5.9,0.4c-0.9,0.6-1.7,1.3-2.4,2.2v-3c0.5,0.2,1.1,0.3,1.7,0.3c1.4,0,2.8-0.4,4.1-1c1.3-0.7,2.8-3.7,3.4-4.9
			c0.2-0.3,0.2-0.8,0-1.1c-0.2-0.3-0.5-0.6-0.9-0.6c-1.4-0.1-4.6-0.3-5.9,0.4c-0.9,0.6-1.7,1.3-2.4,2.2v-0.7
			c1.6-1.1,2.3-4.3,2.3-5.5c0-1.5-1.8-4.3-2.6-5.4c-0.4-0.5-1.2-0.6-1.7-0.2c-0.1,0.1-0.2,0.1-0.2,0.2c-0.8,1.2-2.6,3.9-2.6,5.4
			c0,1.1,0.7,4.4,2.4,5.4v0.7c-0.7-0.9-1.5-1.6-2.4-2.2c-1.3-0.7-4.6-0.5-5.9-0.4c-0.4,0-0.7,0.3-0.9,0.6c-0.2,0.3-0.2,0.7,0,1.1
			c0.6,1.2,2.1,4.1,3.4,4.9c1.3,0.6,2.7,1,4.2,1c0.6,0,1.2-0.1,1.7-0.3v3.1c-0.7-0.9-1.5-1.6-2.5-2.2c-1.3-0.7-4.6-0.5-5.9-0.4
			c-0.7,0.1-1.1,0.7-1.1,1.3c0,0.1,0,0.3,0.1,0.4c0.6,1.2,2.1,4.1,3.4,4.9c1.3,0.6,2.7,1,4.2,1c0.6,0,1.2-0.1,1.7-0.3v3.1
			c-0.7-0.8-1.5-1.6-2.4-2.2c-1.3-0.7-4.6-0.5-5.9-0.4c-0.4,0-0.7,0.2-0.9,0.6c-0.2,0.3-0.2,0.7,0,1.1c0.6,1.2,2.1,4.1,3.4,4.9
			c1.3,0.6,2.7,1,4.2,1c0.6,0,1.2-0.1,1.7-0.3v3.1c-0.7-0.9-1.5-1.6-2.4-2.2c-1.3-0.7-4.6-0.5-5.9-0.4c-0.4,0-0.7,0.3-0.9,0.6
			c-0.2,0.3-0.2,0.7,0,1.1c0.6,1.2,2.1,4.1,3.4,4.9c1.3,0.6,2.7,1,4.2,1c0.6,0,1.2-0.1,1.7-0.3v3.1c-0.7-0.9-1.5-1.6-2.5-2.2
			c-1.3-0.7-4.6-0.5-5.9-0.4c-0.4,0-0.7,0.3-0.9,0.6c-0.2,0.3-0.2,0.7,0,1.1c0.6,1.2,2.1,4.1,3.4,4.9c1.3,0.6,2.7,1,4.2,1
			c0.6,0,1.2-0.1,1.7-0.3v4.4H48.2v-4.4c0.5,0.2,1.1,0.3,1.7,0.3c1.4,0,2.9-0.4,4.1-1c1.3-0.7,2.8-3.6,3.4-4.9
			c0.2-0.3,0.2-0.7,0-1.1c-0.2-0.3-0.5-0.6-0.9-0.6c-1.4-0.1-4.6-0.3-5.9,0.4c-0.9,0.6-1.7,1.3-2.4,2.2v-3.1
			c0.5,0.2,1.1,0.3,1.7,0.3c1.4,0,2.8-0.4,4.1-1c1.3-0.7,2.8-3.7,3.4-4.9c0.2-0.3,0.2-0.8,0-1.1C57.3,76.2,57,76,56.6,76
			c-1.4-0.1-4.6-0.3-5.9,0.4c-0.9,0.6-1.8,1.3-2.5,2.2v-3.1c0.5,0.2,1.1,0.3,1.7,0.3c1.4,0,2.8-0.4,4.1-1c1.3-0.8,2.8-3.7,3.4-4.9
			c0.3-0.6,0.1-1.3-0.5-1.6c-0.1-0.1-0.3-0.1-0.5-0.1c-1.4-0.1-4.6-0.3-5.9,0.4c-0.9,0.6-1.7,1.3-2.4,2.2v-3.1
			c0.5,0.2,1.1,0.3,1.7,0.3c1.4,0,2.9-0.4,4.1-1c1.3-0.7,2.8-3.6,3.4-4.9c0.2-0.3,0.2-0.7,0-1.1c-0.2-0.3-0.5-0.6-0.9-0.6
			c-1.4-0.1-4.6-0.3-5.9,0.4c-0.9,0.6-1.7,1.3-2.4,2.2v-3.1c0.5,0.2,1.1,0.3,1.7,0.3c1.4,0,2.8-0.3,4.1-0.9c1.3-0.7,2.8-3.7,3.4-4.9
			c0.2-0.3,0.2-0.7,0-1.1c-0.2-0.3-0.5-0.6-0.9-0.6c-1.4-0.1-4.6-0.3-5.9,0.4c-0.9,0.6-1.8,1.3-2.4,2.2v-0.7
			c1.6-1.1,2.4-4.3,2.4-5.5c0-1.5-1.8-4.2-2.5-5.3c-0.4-0.5-1.2-0.6-1.7-0.2c-0.1,0.1-0.2,0.1-0.2,0.2c-0.8,1.1-2.6,3.9-2.6,5.3
			c0,1.1,0.8,4.4,2.4,5.4v0.7c-0.7-0.9-1.5-1.6-2.4-2.2c-1.3-0.7-4.6-0.5-5.9-0.4c-0.4,0-0.7,0.3-0.9,0.6c-0.2,0.3-0.2,0.7,0,1.1
			c0.6,1.2,2.1,4.1,3.4,4.9c1.3,0.6,2.7,1,4.2,1c0.6,0,1.2-0.1,1.7-0.3v3.1c-0.7-0.9-1.5-1.6-2.5-2.2c-1.3-0.7-4.6-0.5-5.9-0.4
			c-0.4,0-0.7,0.3-0.9,0.6c-0.2,0.3-0.2,0.7,0,1.1c0.6,1.2,2.1,4.1,3.4,4.9c1.3,0.6,2.7,1,4.2,1c0.6,0,1.2-0.1,1.7-0.3v3.1
			c-0.7-0.9-1.5-1.6-2.4-2.2c-1.3-0.7-4.6-0.5-5.9-0.4c-0.4,0-0.7,0.2-0.9,0.6c-0.2,0.3-0.2,0.7,0,1.1c0.5,1.2,2,4.1,3.3,4.9
			c1.3,0.6,2.7,1,4.2,1c0.6,0,1.2-0.1,1.7-0.3v3.1c-0.7-0.9-1.5-1.6-2.4-2.2c-1.3-0.7-4.6-0.5-5.9-0.4c-0.4,0-0.7,0.3-0.9,0.6
			c-0.2,0.3-0.2,0.7,0,1.1c0.6,1.2,2.1,4.1,3.4,4.9c1.3,0.6,2.7,1,4.2,1c0.6,0,1.2-0.1,1.7-0.3v3.1c-0.7-0.9-1.5-1.6-2.4-2.2
			c-1.3-0.7-4.6-0.5-5.9-0.4c-0.4,0-0.8,0.2-1,0.6c-0.2,0.3-0.2,0.7,0,1.1c0.6,1.2,2.1,4.1,3.4,4.9c1.3,0.6,2.7,1,4.2,1
			c0.6,0,1.2-0.1,1.7-0.3v4.4h-8.3c-0.7,0-1.2,0.5-1.2,1.2s0.5,1.2,1.2,1.2c0,0,0,0,0,0h65.9c0.7,0,1.2-0.5,1.2-1.2
			C104.7,95.8,104.2,95.3,103.5,95.3z M98.8,86.1c0.9-0.2,1.8-0.3,2.8-0.2c-0.4,0.8-1,1.6-1.6,2.3c-1.1,0.5-2.3,0.8-3.6,0.7
			C97,87.7,97.8,86.8,98.8,86.1z M98.8,78.4c0.9-0.2,1.8-0.3,2.8-0.2c-0.4,0.8-1,1.6-1.6,2.3c-1.1,0.5-2.3,0.7-3.6,0.7
			C97,80.1,97.8,79.1,98.8,78.4z M98.8,70.8c0.9-0.2,1.8-0.3,2.8-0.2c-0.4,0.8-1,1.6-1.6,2.3c-1.1,0.5-2.3,0.7-3.6,0.7
			C97,72.4,97.8,71.5,98.8,70.8z M98.8,63.1c0.9-0.2,1.8-0.3,2.8-0.2c-0.4,0.8-1,1.6-1.6,2.3c-1.1,0.5-2.3,0.8-3.6,0.7
			C97,64.7,97.8,63.8,98.8,63.1z M98.8,55.4c0.9-0.2,1.8-0.3,2.8-0.2c-0.4,0.8-1,1.6-1.6,2.3c-1.1,0.5-2.3,0.7-3.6,0.7
			C97,57,97.8,56.1,98.8,55.4z M88.2,57.5c-0.7-0.7-1.2-1.5-1.6-2.3c0.9-0.1,1.9,0,2.8,0.2c1,0.7,1.8,1.6,2.4,2.7
			C90.5,58.2,89.3,58,88.2,57.5z M88.2,65.1c-0.7-0.7-1.2-1.4-1.6-2.3c0.9-0.1,1.9,0,2.8,0.2c1,0.7,1.8,1.6,2.4,2.7
			C90.5,65.9,89.3,65.7,88.2,65.1z M88.2,72.8c-0.7-0.7-1.2-1.4-1.6-2.3c0.9-0.1,1.9,0,2.8,0.2c1,0.7,1.8,1.6,2.4,2.7
			C90.5,73.6,89.3,73.3,88.2,72.8z M88.2,80.5c-0.7-0.7-1.2-1.4-1.6-2.3c0.9-0.1,1.9,0,2.8,0.2c1,0.7,1.8,1.6,2.4,2.7
			C90.5,81.2,89.3,81,88.2,80.5z M88.2,88.2c-0.7-0.7-1.2-1.4-1.6-2.3c0.9-0.1,1.9,0,2.8,0.2c1,0.7,1.9,1.6,2.4,2.7
			C90.5,88.9,89.3,88.7,88.2,88.2z M94.1,46.9c0.5,0.8,0.9,1.6,1.2,2.5c-0.1,1.2-0.5,2.4-1.2,3.4c-0.7-1-1.1-2.2-1.2-3.4
			C93.2,48.5,93.6,47.6,94.1,46.9z M75.3,86.1c0.9-0.2,1.8-0.3,2.8-0.2c-0.4,0.8-1,1.6-1.6,2.3c-1.1,0.5-2.3,0.8-3.6,0.7
			C73.4,87.7,74.3,86.8,75.3,86.1L75.3,86.1z M75.3,78.5c0.9-0.2,1.8-0.3,2.8-0.2c-0.4,0.8-1,1.6-1.6,2.3c-1.1,0.5-2.3,0.7-3.6,0.7
			C73.4,80.1,74.3,79.1,75.3,78.5L75.3,78.5z M75.3,70.8c0.9-0.2,1.8-0.3,2.8-0.2c-0.4,0.8-1,1.6-1.6,2.3c-1.1,0.5-2.3,0.7-3.6,0.7
			C73.4,72.4,74.3,71.5,75.3,70.8L75.3,70.8z M75.3,63.1c0.9-0.2,1.8-0.3,2.8-0.2c-0.4,0.8-1,1.6-1.6,2.3c-1.1,0.5-2.3,0.8-3.6,0.7
			C73.4,64.7,74.3,63.8,75.3,63.1L75.3,63.1z M75.3,55.5c0.9-0.2,1.8-0.3,2.8-0.3c-0.4,0.8-1,1.6-1.6,2.3c-1.1,0.5-2.3,0.7-3.6,0.7
			C73.4,57,74.3,56.1,75.3,55.5L75.3,55.5z M64.7,57.5C64,56.8,63.5,56,63,55.2c0.9-0.1,1.9,0,2.8,0.2c1,0.7,1.8,1.6,2.4,2.7
			C67,58.2,65.8,58,64.7,57.5z M64.7,65.1c-0.7-0.7-1.2-1.4-1.6-2.3c0.9-0.1,1.9,0,2.8,0.2c1,0.7,1.8,1.6,2.4,2.7
			C67,65.9,65.8,65.7,64.7,65.1z M64.7,72.8c-0.7-0.7-1.2-1.4-1.6-2.3c0.9-0.1,1.9,0,2.8,0.2c1,0.7,1.8,1.6,2.4,2.7
			C67,73.6,65.8,73.3,64.7,72.8z M64.7,80.5c-0.7-0.7-1.2-1.4-1.6-2.3c0.9-0.1,1.9,0,2.8,0.2c1,0.7,1.8,1.6,2.4,2.7
			C67,81.2,65.8,81,64.7,80.5z M64.7,88.2c-0.7-0.7-1.2-1.4-1.6-2.3c0.9-0.1,1.9,0,2.8,0.2c1,0.7,1.9,1.6,2.4,2.7
			C67,88.9,65.8,88.7,64.7,88.2z M70.6,46.9c0.5,0.8,0.9,1.6,1.2,2.5c-0.1,1.2-0.5,2.4-1.2,3.4c-0.7-1-1.1-2.2-1.2-3.4
			C69.6,48.5,70,47.6,70.6,46.9z M51.7,86.1c0.9-0.2,1.8-0.3,2.8-0.2c-0.4,0.8-1,1.6-1.6,2.3c-1.1,0.5-2.3,0.8-3.6,0.7
			C49.9,87.7,50.7,86.8,51.7,86.1L51.7,86.1z M51.7,78.5c0.9-0.2,1.8-0.3,2.8-0.2c-0.4,0.8-1,1.6-1.6,2.3c-1.1,0.5-2.3,0.7-3.6,0.7
			C49.9,80.1,50.7,79.1,51.7,78.5L51.7,78.5z M51.7,70.8c0.9-0.2,1.8-0.3,2.8-0.2c-0.4,0.8-1,1.6-1.6,2.3c-1.1,0.5-2.3,0.7-3.6,0.7
			C49.9,72.4,50.7,71.5,51.7,70.8L51.7,70.8z M51.7,63.1c0.9-0.2,1.8-0.3,2.8-0.2c-0.4,0.8-1,1.6-1.6,2.3c-1.1,0.5-2.3,0.8-3.6,0.7
			C49.9,64.7,50.7,63.8,51.7,63.1L51.7,63.1z M51.7,55.5c0.9-0.2,1.8-0.3,2.8-0.3c-0.4,0.8-1,1.6-1.6,2.3c-1.1,0.5-2.3,0.7-3.6,0.6
			C49.9,57,50.7,56.1,51.7,55.5L51.7,55.5z M41.1,57.5c-0.7-0.7-1.2-1.5-1.6-2.3c0.9-0.1,1.8,0,2.7,0.2c1,0.7,1.9,1.6,2.5,2.7
			C43.5,58.2,42.2,58,41.1,57.5z M41.1,65.1c-0.7-0.7-1.2-1.4-1.6-2.3c0.9-0.1,1.8,0,2.7,0.2c1,0.7,1.8,1.6,2.4,2.7
			C43.4,65.9,42.2,65.7,41.1,65.1z M41.1,72.8c-0.7-0.7-1.2-1.4-1.6-2.3c0.9-0.1,1.8,0,2.7,0.2c1,0.7,1.8,1.6,2.4,2.7
			C43.4,73.6,42.2,73.3,41.1,72.8z M41.1,80.5c-0.7-0.7-1.2-1.4-1.6-2.3c0.9-0.1,1.8,0,2.7,0.2c1,0.7,1.8,1.6,2.4,2.7
			C43.4,81.2,42.2,81,41.1,80.5z M41.1,88.2c-0.7-0.7-1.2-1.4-1.6-2.3c0.9-0.1,1.8,0,2.7,0.2c1,0.7,1.9,1.6,2.4,2.7
			C43.4,88.9,42.2,88.7,41.1,88.2z M47,46.9c0.5,0.8,0.9,1.6,1.2,2.5c-0.1,1.2-0.5,2.4-1.2,3.4c-0.7-1-1.1-2.2-1.2-3.4
			C46.1,48.5,46.5,47.6,47,46.9z"/>
	</g>
</g>
</svg>
