<?xml version="1.0" encoding="utf-8"?>
<!-- Generator: Adobe Illustrator 23.0.0, SVG Export Plug-In . SVG Version: 6.00 Build 0)  -->
<svg version="1.1" id="Calque_1" xmlns="http://www.w3.org/2000/svg" xmlns:xlink="http://www.w3.org/1999/xlink" x="0px" y="0px"
	 viewBox="0 0 141.2 141.2" style="enable-background:new 0 0 141.2 141.2;" xml:space="preserve">
<style type="text/css">
	.st0{fill:#F3F3F3;}
	.st1{fill:#404964;}
</style>
<circle class="st0" cx="70.6" cy="70.6" r="70.6"/>
<g id="Layer_2_1_">
	<g id="Layer_1-2_1_">
		<path class="st1" d="M78.1,64.7c-0.2,0-0.5-0.1-0.7-0.2c-0.5-0.3-0.8-0.8-0.7-1.4c0.1-0.7,0.1-1.4,0.1-2.1c0-1.2-0.1-2.4-0.4-3.6
			c-0.1-0.5,0.1-1,0.5-1.3c3.3-2.9,7.5-4.6,11.9-4.8c0.7,0,1.3,0.4,1.4,1.1c0.4,2.1,0.5,4.3,0.3,6.5c-0.1,0.7-0.6,1.1-1.3,1.2
			c-3.1,0.2-6,1.2-8.6,2.9c-0.6,0.4-1.1,0.8-1.6,1.3C78.8,64.6,78.4,64.7,78.1,64.7z M79.4,57.8c0.1,0.9,0.2,1.8,0.3,2.7
			c2.5-1.6,5.4-2.6,8.3-2.9c0-0.3,0-0.6,0-0.9c0-0.8,0-1.6-0.2-2.4C84.7,54.7,81.8,55.9,79.4,57.8z"/>
		<path class="st1" d="M65.4,64.7c-0.3,0-0.6-0.1-0.9-0.3c-0.5-0.4-1.1-0.9-1.6-1.3c-2.6-1.7-5.6-2.7-8.6-2.9
			c-0.7,0-1.2-0.5-1.3-1.2c-0.1-0.8-0.1-1.6-0.1-2.4c0-1.4,0.1-2.8,0.4-4.1c0.1-0.7,0.8-1.1,1.4-1.1c4.4,0.3,8.5,2,11.9,4.8
			c0.4,0.3,0.6,0.8,0.5,1.3c-0.2,1.2-0.4,2.4-0.4,3.6c0,0.7,0,1.4,0.1,2.1c0.1,0.5-0.2,1.1-0.6,1.4C65.9,64.7,65.7,64.7,65.4,64.7z
			 M55.7,57.6c3,0.4,5.8,1.4,8.3,2.9c0-0.9,0.1-1.8,0.3-2.7c-2.4-1.9-5.3-3.1-8.4-3.6c-0.1,0.8-0.2,1.6-0.2,2.4
			C55.6,56.9,55.6,57.2,55.7,57.6L55.7,57.6z"/>
		<path class="st1" d="M72.2,76.2h-0.9c-0.4,0-0.7-0.1-0.9-0.4c-8.1-7.5-8.6-20.2-1.1-28.3c0.5-0.6,1.1-1.1,1.6-1.6
			c0.5-0.5,1.3-0.5,1.8,0c8.4,7.2,9.3,19.9,2.1,28.3c-0.5,0.6-1,1.1-1.6,1.6C72.9,76.1,72.6,76.2,72.2,76.2z M71.8,48.9
			C65,55.6,65,66.6,71.7,73.3c0,0,0,0,0.1,0.1C78.5,66.6,78.5,55.7,71.8,48.9C71.8,48.9,71.8,48.9,71.8,48.9z"/>
		<path class="st1" d="M80.1,76.2h-7.8c-0.6,0-1.1-0.4-1.3-0.9c-0.2-0.5-0.1-1.1,0.4-1.5c3-2.8,5-6.6,5.4-10.7
			c0-0.3,0.2-0.7,0.5-0.9c0.6-0.5,1.2-1,1.9-1.4c4.8-3.2,10.9-4.2,16.5-2.7c0.7,0.2,1.1,0.8,1,1.5c-0.7,5.8-3.9,11-8.7,14.2l0,0
			C85.6,75.4,82.9,76.2,80.1,76.2z M75.4,73.4h4.7c2.2,0,4.4-0.6,6.2-1.9l0,0c3.8-2.6,6.4-6.5,7.3-11c-1.1-0.2-2.2-0.3-3.3-0.3
			c-3.4,0-6.8,1-9.6,2.9c-0.4,0.3-0.8,0.6-1.2,0.9C78.9,67.5,77.5,70.7,75.4,73.4z"/>
		<path class="st1" d="M71.3,76.2h-7.8c-2.8,0-5.5-0.8-7.8-2.4l0,0c-4.8-3.3-8-8.5-8.7-14.2c-0.1-0.7,0.4-1.3,1-1.5
			c5.6-1.5,11.6-0.6,16.5,2.7c0.7,0.5,1.3,0.9,1.9,1.4c0.3,0.2,0.4,0.5,0.5,0.9c0.5,4.1,2.4,7.9,5.4,10.7c0.5,0.5,0.5,1.4,0,2
			C72.1,76,71.7,76.2,71.3,76.2L71.3,76.2z M50,60.5c0.9,4.5,3.5,8.5,7.3,11l0,0c1.8,1.2,4,1.9,6.2,1.9h4.7c-2.1-2.7-3.5-6-4-9.4
			c-0.4-0.3-0.8-0.6-1.2-0.9c-2.8-1.9-6.2-2.9-9.6-2.9C52.2,60.2,51,60.3,50,60.5L50,60.5z"/>
		<path class="st1" d="M97,95.6c-2.3,0-4.2-1.9-4.2-4.2c0-2.3,1.9-4.2,4.2-4.2c2.3,0,4.2,1.9,4.2,4.2C101.2,93.7,99.3,95.6,97,95.6
			C97,95.6,97,95.6,97,95.6z M97,90c-0.8,0-1.4,0.6-1.4,1.4c0,0.8,0.6,1.4,1.4,1.4s1.4-0.6,1.4-1.4C98.4,90.7,97.8,90,97,90z"/>
		<path class="st1" d="M49.7,85.9c-2.3,0-4.2-1.9-4.2-4.2c0-2.3,1.9-4.2,4.2-4.2s4.2,1.9,4.2,4.2l0,0C53.9,84.1,52,85.9,49.7,85.9z
			 M49.7,80.4c-0.8,0-1.4,0.6-1.4,1.4c0,0.8,0.6,1.4,1.4,1.4s1.4-0.6,1.4-1.4C51.1,81,50.5,80.4,49.7,80.4z"/>
		<path class="st1" d="M94.2,45.6c-2.3,0-4.2-1.9-4.2-4.2c0-2.3,1.9-4.2,4.2-4.2c2.3,0,4.2,1.9,4.2,4.2c0,0,0,0,0,0
			C98.4,43.7,96.5,45.6,94.2,45.6z M94.2,40c-0.8,0-1.4,0.6-1.4,1.4c0,0.8,0.6,1.4,1.4,1.4c0.8,0,1.4-0.6,1.4-1.4S95,40,94.2,40
			C94.2,40,94.2,40,94.2,40z"/>
		<path class="st1" d="M43.5,55.3c-1.9,0-3.5-1.5-3.5-3.5c0-1.9,1.5-3.5,3.5-3.5c1.9,0,3.5,1.5,3.5,3.5c0,0,0,0,0,0
			C46.9,53.8,45.4,55.3,43.5,55.3z M43.5,51.1c-0.4,0-0.7,0.3-0.7,0.7l0,0c0.1,0.4,0.4,0.7,0.8,0.6c0.3,0,0.6-0.3,0.6-0.6
			C44.2,51.5,43.9,51.1,43.5,51.1z"/>
		<path class="st1" d="M72,104c-0.8,0-1.4-0.6-1.4-1.4c0,0,0,0,0,0V62.3c0-0.8,0.6-1.4,1.4-1.4c0.8,0,1.4,0.6,1.4,1.4v40.3
			C73.4,103.3,72.7,103.9,72,104z"/>
		<path class="st1" d="M88.7,104H58.1c-0.8,0-1.4-0.6-1.4-1.4c0-0.8,0.6-1.4,1.4-1.4h30.6c0.8,0,1.4,0.6,1.4,1.4
			C90.1,103.3,89.5,104,88.7,104z"/>
		<path class="st1" d="M76.2,93.3c-1.6,0-3.1-0.3-4.6-0.8c-0.6-0.2-0.9-0.7-0.9-1.3V91c0-1.6,0.3-3.3,0.8-4.8
			c1.4-4.2,5.3-7.1,9.7-7.2c1.8-0.1,3.5,0.2,5.2,0.8c0.6,0.2,0.9,0.7,0.9,1.3v0.2c0,1.7-0.3,3.3-0.8,4.9c-1.5,4.2-5.5,7.1-9.9,7.1
			L76.2,93.3z M73.4,90.2c1,0.3,2,0.4,3.1,0.4c3.4,0,6.3-2.2,7.4-5.3c0.4-1,0.6-2,0.6-3.1c-1.1-0.3-2.1-0.4-3.2-0.4
			C78,81.8,75,84,74,87.1C73.7,88.1,73.4,89.1,73.4,90.2z"/>
		<path class="st1" d="M67.8,99.8h-0.4c-4.5,0-8.5-2.9-10-7.1c-0.6-1.6-0.8-3.2-0.8-4.9c0-0.1,0-0.2,0-0.2c0-0.6,0.4-1.1,0.9-1.3
			c1.5-0.5,3.1-0.8,4.6-0.8h0.6c4.4,0.1,8.3,3,9.8,7.2c0.5,1.6,0.8,3.2,0.8,4.8v0.2c0,0.6-0.4,1.1-0.9,1.3
			C71,99.5,69.4,99.8,67.8,99.8z M59.5,88.5c0.1,1.1,0.3,2.1,0.6,3.1c1.1,3.2,4.1,5.3,7.4,5.3c1,0,2.1-0.1,3.1-0.4
			c-0.1-1-0.3-2.1-0.6-3.1c-1-3.1-4-5.3-7.3-5.4C61.6,88.2,60.6,88.3,59.5,88.5L59.5,88.5z"/>
		<path class="st1" d="M72,91.9c-0.5,0-0.9-0.2-1.2-0.6c-0.4-0.6-0.2-1.5,0.4-1.9l8.3-5.5c0.7-0.4,1.5-0.2,2,0.4
			c0.4,0.7,0.2,1.5-0.4,2l-8.3,5.5C72.5,91.9,72.2,91.9,72,91.9z"/>
		<path class="st1" d="M72,98.4c-0.3,0-0.5-0.1-0.7-0.2l-8.3-5c-0.7-0.4-0.9-1.2-0.6-1.9c0.4-0.7,1.2-0.9,1.9-0.6c0,0,0.1,0,0.1,0.1
			l8.3,5c0.7,0.4,0.9,1.2,0.5,1.9c0,0,0,0,0,0C72.9,98.1,72.5,98.4,72,98.4z"/>
		<path class="st1" d="M97.6,74.2c-0.9,0-1.6-0.7-1.7-1.6c0-0.4,0.2-0.9,0.5-1.2c0.6-0.6,1.6-0.6,2.3,0c0.6,0.6,0.6,1.6,0,2.3
			C98.4,74,98,74.2,97.6,74.2z M97.6,71.4c-0.3,0-0.6,0.1-0.8,0.3c-0.2,0.2-0.4,0.5-0.4,0.8c0,0.3,0.1,0.6,0.3,0.8
			c0.5,0.5,1.2,0.5,1.7,0c0.5-0.5,0.5-1.2,0-1.7C98.2,71.6,97.9,71.4,97.6,71.4z"/>
		<path class="st1" d="M58.2,46c-0.9,0-1.6-0.7-1.6-1.6c0-0.9,0.7-1.6,1.6-1.6c0.9,0,1.6,0.7,1.6,1.6C59.8,45.3,59.1,46,58.2,46
			L58.2,46z M58.2,43.2c-0.7,0-1.2,0.5-1.2,1.2c0,0.3,0.1,0.6,0.3,0.8c0.5,0.5,1.2,0.5,1.7,0c0.2-0.2,0.3-0.5,0.3-0.8
			C59.4,43.7,58.9,43.2,58.2,43.2L58.2,43.2z"/>
		<path class="st1" d="M53.9,104c-0.8,0-1.4-0.6-1.4-1.4c0-0.4,0.2-0.7,0.4-1c0.3-0.3,0.6-0.4,1-0.4c0.8,0,1.4,0.6,1.4,1.4
			c0,0,0,0,0,0c0,0.4-0.1,0.7-0.4,1C54.6,103.8,54.3,103.9,53.9,104z"/>
		<path class="st1" d="M49.7,104c-0.4,0-0.7-0.2-1-0.4c-0.3-0.3-0.4-0.6-0.4-1c0-0.4,0.2-0.7,0.4-1c0.3-0.3,0.6-0.4,1-0.4
			c0.8,0,1.4,0.6,1.4,1.3c0,0,0,0,0,0c0,0.4-0.1,0.7-0.4,1C50.5,103.8,50.1,103.9,49.7,104z"/>
		<path class="st1" d="M45.6,104c-0.8,0-1.4-0.6-1.4-1.4c0-0.4,0.1-0.7,0.4-1c0.5-0.5,1.4-0.5,2,0c0.3,0.3,0.4,0.6,0.4,1
			c0,0.4-0.1,0.7-0.4,1C46.3,103.8,45.9,103.9,45.6,104z"/>
	</g>
</g>
</svg>
