<?xml version="1.0" encoding="utf-8"?>
<!-- Generator: Adobe Illustrator 23.0.0, SVG Export Plug-In . SVG Version: 6.00 Build 0)  -->
<svg version="1.1" id="Calque_1" xmlns="http://www.w3.org/2000/svg" xmlns:xlink="http://www.w3.org/1999/xlink" x="0px" y="0px"
	 viewBox="0 0 141.2 141.2" style="enable-background:new 0 0 141.2 141.2;" xml:space="preserve">
<style type="text/css">
	.st0{fill:#F3F3F3;}
	.st1{fill:#404964;}
</style>
<circle class="st0" cx="70.6" cy="70.6" r="70.6"/>
<g id="Layer_2_1_">
	<g id="Layer_1-2_1_">
		<path class="st1" d="M104.7,75.8c0-0.2,0-0.4,0.1-0.6l0.1-0.3c0.3-0.6,0.2-1.3-0.1-1.9l-0.4-0.8l1.3-2.1c0.4-0.6,0.2-1.5-0.5-1.9
			c-0.2-0.1-0.5-0.2-0.7-0.2l0,0c-1.4,0.2-2.8,0.7-3.9,1.5c-0.4,0.3-0.5,0.9-0.2,1.3c0.3,0.4,0.9,0.5,1.3,0.2c0.6-0.4,1.2-0.8,1.9-1
			l-1,1.7c-0.2,0.3-0.2,0.6,0,0.9l0.7,1.2c0,0.1,0,0.2,0,0.3l-0.1,0.3c-0.2,0.5-0.3,1.1-0.2,1.6l1.1,6.1c0,0.1,0,0.3-0.1,0.3
			l-1.1,0.6c-0.1,0.1-0.3,0.1-0.4,0c-0.1-0.1-0.2-0.1-0.2-0.2c-1.5-0.7-2.9-1.6-4.1-2.8c-1-1-1.8-2.1-2.5-3.2c-0.7-1.3-1-2.7-1-4.1
			c0-0.5-0.4-0.9-0.9-0.9c0,0,0,0,0,0l0,0c-0.5,0-0.9,0.4-0.9,0.9c0,0,0,0,0,0c0,0.8,0.1,1.7,0.3,2.5L86.9,75h-0.2
			c-0.8,0-1.5,0.5-1.8,1.2l-1.7,4c0,0.1-0.1,0.2-0.1,0.3l-0.5,11h-2.1l-1.4-13.2c0-0.2-0.1-0.3-0.2-0.5l-2.4-3.2
			c-0.6-0.7-1.4-1.1-2.3-1.1h-16c-0.8,0-1.5,0.3-2.1,0.8L48,81.1c-0.2,0.2-0.3,0.4-0.3,0.7v9.8h-2.3V78c0-0.3,0.1-0.6,0.2-0.9
			l3.3-5.4c0.1-0.2,0.2-0.4,0.1-0.6l-2-10.6c-0.1-0.3-0.1-0.5,0-0.8l1.5-6.8c1.2-0.4,2.4-0.5,3.6-0.3h0.1c4.6,0,16.8,0,24,0h5.4
			c1-0.1,2,0.4,2.6,1.2l13,15.4c0.2,0.2,0.4,0.3,0.6,0.3l1,0.1h0.1c0.4,0,0.7-0.2,0.8-0.6c0.2-0.6,0.6-1.1,1.1-1.5
			c0.3,0.4,0.8,0.5,1.3,0.2c0.3-0.2,0.5-0.6,0.4-0.9c0-0.8-0.6-1.4-1.4-1.3c-0.2,0-0.5,0.1-0.7,0.2c-0.8,0.5-1.5,1.2-2,2h-0.1
			L85.8,52.7c-0.9-1.3-2.5-2-4.1-1.8H52.4c-3.6-0.5-7.2,0.9-9.5,3.7c-1.7,2.3-2.5,5.2-2.2,8c0,0.9,0,1.7-0.2,2.6
			c-0.2,0.1-0.3,0.2-0.5,0.3H40c-0.9,0.7-1.6,1.7-2,2.9c-0.3,0.8-0.4,1.7-0.2,2.6c0,0.3,0.1,0.7,0.2,1l0,0c0,0.2,0.1,0.4,0.1,0.6
			c0,0.4,0.3,0.8,0.7,1c0.1,0.1,0.3,0.1,0.4,0.1c0.5-0.1,0.9-0.3,1.3-0.6c0.2-0.1,0.4-0.2,0.6-0.3c0.3-0.2,0.6-0.4,0.9-0.6
			c1.1-1,1.7-2.3,1.9-3.7c0.1-0.5-0.3-1-0.8-1c-0.5-0.1-1,0.3-1,0.8l0,0c-0.1,1-0.5,1.9-1.2,2.5c-0.2,0.1-0.4,0.2-0.6,0.3
			c-0.2,0.1-0.4,0.2-0.6,0.3c0-0.2-0.1-0.4-0.1-0.6c-0.1-0.6-0.1-1.2,0.1-1.8c0.3-0.8,0.7-1.5,1.3-2c0.3-0.2,0.5-0.4,0.8-0.6
			c0.2-0.1,0.4-0.3,0.4-0.6c0.2-1.1,0.3-2.2,0.2-3.2c-0.2-2.5,0.5-4.9,1.9-6.9c0.6-0.7,1.3-1.4,2.2-1.8l-1.3,5.5
			c-0.1,0.5-0.1,1,0,1.5l1.9,10.2l-3.1,5.1c-0.3,0.6-0.5,1.2-0.5,1.8v13.9c0,0.8,0.7,1.5,1.5,1.5h3c0.8,0,1.5-0.7,1.5-1.5v-9.7
			l2.2-1.8l3.8,10.4c0.2,0.5,0.7,0.9,1.2,0.9h2.6c0.4,0,0.8-0.2,1-0.5c0.2-0.3,0.3-0.7,0.2-1.1l-2.4-9l3.8-5.7h9.2l-2.5,14.8
			c-0.1,0.7,0.3,1.4,1.1,1.5c0,0,0,0,0,0h0.2H73c0.6,0,1.1-0.4,1.2-0.9l3.4-9.7l1.1,11.1c0,0.3,0.1,0.6,0.4,0.8
			c0.3,0.3,0.6,0.4,1,0.4h3c0.7,0,1.3-0.6,1.3-1.3L85,80.8l1.7-3.8c0-0.1,0.1-0.1,0.2-0.1l6.8,0.3c0.1,0.1,0.2,0.2,0.2,0.4
			c0.1,0.1,0.1,0.2,0.1,0.2c0.7,1.4,1.7,2.7,2.9,3.8c1.3,1.3,2.8,2.3,4.4,3.1c0.7,0.5,1.6,0.6,2.4,0.2l1.1-0.6
			c0.8-0.5,1.2-1.3,1-2.2L104.7,75.8z M76.8,77.9L76.8,77.9l-4.1,11.9h-2l2.5-14.5h1.1c0.3,0,0.7,0.1,0.9,0.4L76.8,77.9z M56.5,80.4
			c-0.1,0.2-0.2,0.5-0.1,0.7l2.3,8.7h-1.6l-3.9-10.7l0,0l4.1-3.4c0.3-0.2,0.6-0.3,1-0.3h1.6L56.5,80.4z"/>
	</g>
</g>
</svg>
