<?xml version="1.0" encoding="utf-8"?>
<!-- Generator: Adobe Illustrator 23.0.0, SVG Export Plug-In . SVG Version: 6.00 Build 0)  -->
<svg version="1.1" id="Calque_1" xmlns="http://www.w3.org/2000/svg" xmlns:xlink="http://www.w3.org/1999/xlink" x="0px" y="0px"
	 viewBox="0 0 141.2 141.2" style="enable-background:new 0 0 141.2 141.2;" xml:space="preserve">
<style type="text/css">
	.st0{fill:#F3F3F3;}
	.st1{fill:#404964;}
</style>
<circle class="st0" cx="70.6" cy="70.6" r="70.6"/>
<g id="Layer_2_1_">
	<g id="Layer_1-2_1_">
		<g id="Layer_1-2-2">
			<path class="st1" d="M77.9,86.3c-1.7,0-3.3-0.8-4.4-2.1c-0.8-0.9-1.2-2.1-1.3-3.3v-0.7c0.1-1,0.4-1.9,0.9-2.7
				c0.1-0.2,0.2-0.4,0.4-0.5c0.6-0.7,1.4-1.3,2.3-1.6c0.2-0.1,0.4-0.2,0.6-0.2c0.9-0.3,1.9-0.3,2.9,0c0.2,0.1,0.4,0.1,0.6,0.2
				c0.9,0.4,1.7,0.9,2.3,1.7c0.8,0.9,1.2,2.1,1.3,3.3V81l0,0c-0.1,1.2-0.5,2.3-1.3,3.3C81.2,85.6,79.6,86.3,77.9,86.3 M79.1,70.6
				h-3.3v0.8c-0.9,0.2-1.7,0.5-2.5,0.9l-0.4-0.8l-2.2,1.7l0.6,0.8c-0.7,0.7-1.3,1.5-1.7,2.4l-0.9-0.3l-0.9,2.7l1,0.3
				c-0.2,1-0.2,2,0,3l-1,0.3l0.9,2.7l1-0.3c0.5,0.9,1,1.7,1.7,2.4L70.7,88l2.3,1.7l0.2-0.8c0.8,0.4,1.6,0.8,2.5,0.9V91h3.3v-1.2
				c1-0.2,2-0.5,3-0.9l0.6,0.8L85,88l-0.6-0.8c0.7-0.7,1.3-1.5,1.8-2.4l1,0.3l0.9-2.7l-0.9-0.3c0.1-0.5,0.1-1,0.1-1.5
				c0-0.5,0-1-0.1-1.5l1-0.3l-0.9-2.7l-0.9,0.3c-0.5-0.9-1-1.7-1.7-2.4l0.6-0.8l-2.3-1.7L82,72.3c-0.9-0.5-1.9-0.8-3-0.9L79.1,70.6"
				/>
			<polyline class="st1" points="91,50.2 67.6,50.2 67.6,52.1 91.4,52.1 91,50.2 			"/>
		</g>
		<path class="st1" d="M105.8,72c-0.3-0.3-0.6-0.6-1-0.7c-0.4-0.2-0.9-0.2-1.3-0.2h-2v7.1h2c0.5,0,0.9-0.1,1.3-0.2
			c0.4-0.2,0.7-0.4,1-0.7c0.3-0.3,0.5-0.7,0.6-1.1c0.3-1,0.3-2,0-3C106.3,72.7,106,72.3,105.8,72z"/>
		<path class="st1" d="M111.5,81l-4.9-13.3h-7.1v-5.2h-1.4v-6.2h-1.9v11.4h-1.8L90.2,53h-1.4l2.6,9.5h-2.9L85,59.1l1.3-1.3
			c0.3-0.3,0.3-0.7,0-1s-0.7-0.3-1,0l0,0l-3.2,3.2c-0.3,0.3-0.3,0.7,0,1l0,0c0.3,0.3,0.7,0.3,1,0l0,0l1.3-1.3l2.9,2.9H75.7v-3
			c0-1.7-0.8-3.2-2.4-3.2H71V53h-1.4v14.5c-1,0.7-1.8,1.4-2.6,2.3c-0.5,0.6-0.5,1.5,0.1,2c0.3,0.2,0.6,0.4,0.9,0.4
			c0.4,0,0.8-0.2,1-0.4c4.8-5.1,12.8-5.4,17.9-0.6c3.2,3,4.6,7.3,3.8,11.6c-0.1,0.7,0.3,1.5,1.1,1.6H92c0.7-0.1,1.3-0.6,1.4-1.3
			c0.1-0.6,0.2-1.3,0.2-2h5.3c-1,1.1-1.5,2.6-1.5,4.1c0,3.2,2.5,5.8,5.7,5.9c0,0,0,0,0,0h0.1c3.2,0,5.7-2.6,5.7-5.7V85
			c0-1.5-0.5-2.9-1.5-4H111.5z M97.9,77.8c-0.2,0.4-0.4,0.7-0.7,1c-0.3,0.3-0.7,0.5-1.1,0.7c-0.5,0.2-1,0.3-1.5,0.3
			c-0.3,0-0.6,0-0.9-0.1c-0.3-0.1-0.6-0.2-0.9-0.3c-0.3-0.1-0.6-0.3-0.8-0.4c-0.2-0.2-0.5-0.3-0.7-0.5l0.5-0.9
			c0.1-0.1,0.1-0.1,0.2-0.2c0.1,0,0.2-0.1,0.2-0.1c0.1,0,0.3,0.1,0.4,0.1c0.1,0.1,0.3,0.2,0.5,0.3c0.2,0.1,0.4,0.2,0.6,0.3
			c0.3,0.1,0.6,0.1,0.9,0.1c0.4,0,0.9-0.1,1.2-0.4c0.3-0.3,0.5-0.7,0.4-1.1c0-0.2-0.1-0.5-0.2-0.6c-0.1-0.2-0.3-0.3-0.5-0.4
			c-0.2-0.1-0.5-0.2-0.7-0.3L94,75.1c-0.3-0.1-0.6-0.2-0.8-0.3c-0.3-0.1-0.5-0.3-0.7-0.5c-0.2-0.2-0.4-0.5-0.5-0.8
			c-0.1-0.4-0.2-0.8-0.2-1.2c0-0.4,0.1-0.7,0.2-1.1c0.1-0.3,0.4-0.7,0.6-0.9c0.3-0.3,0.7-0.5,1-0.6c0.4-0.2,0.9-0.3,1.4-0.2
			c0.6,0,1.1,0.1,1.6,0.3c0.5,0.2,0.9,0.4,1.3,0.8l-0.5,0.9c0,0.1-0.1,0.2-0.2,0.2c-0.1,0-0.2,0.1-0.2,0.1c-0.1,0-0.2,0-0.3-0.1
			l-0.4-0.2c-0.2-0.1-0.4-0.2-0.5-0.2C95.6,71,95.3,71,95.1,71c-0.2,0-0.5,0-0.7,0.1c-0.2,0.1-0.3,0.1-0.5,0.3
			c-0.1,0.1-0.2,0.2-0.3,0.4c-0.1,0.2-0.1,0.3-0.1,0.5c0,0.2,0.1,0.4,0.2,0.6c0.1,0.2,0.3,0.3,0.5,0.4c0.2,0.1,0.5,0.2,0.7,0.3
			c0.3,0.1,0.6,0.2,0.9,0.3c0.3,0.1,0.6,0.2,0.9,0.3c0.3,0.1,0.5,0.3,0.7,0.5c0.2,0.2,0.4,0.5,0.5,0.7c0.1,0.3,0.2,0.7,0.2,1.1
			C98.1,76.9,98.1,77.4,97.9,77.8z M103.2,88.5c-1.7,0-3.2-1.4-3.2-3.2s1.4-3.2,3.2-3.2c1.7,0,3.2,1.4,3.2,3.2
			C106.3,87.1,104.9,88.5,103.2,88.5z M107.1,78.2c-0.5,0.5-1,0.8-1.6,1c-0.7,0.3-1.4,0.4-2.1,0.4h-3.8V69.6h3.8
			c0.7,0,1.4,0.1,2.1,0.4c1.2,0.5,2.2,1.4,2.6,2.6c0.3,0.6,0.4,1.3,0.4,2c0,0.7-0.1,1.4-0.4,2C107.9,77.2,107.6,77.8,107.1,78.2z"/>
		<polygon class="st1" points="38.6,67.1 57,67.1 51.2,76.8 43.1,76.8 		"/>
		<polygon class="st1" points="66.6,72.5 60.6,83.9 31.2,83.9 31.2,82.2 59.6,82.2 65.6,72 		"/>
		<circle class="st1" cx="31.5" cy="87.4" r="3.6"/>
		<circle class="st1" cx="49.6" cy="87.4" r="3.5"/>
		<polygon class="st1" points="39.4,72 55.8,72 55.8,73.2 41.8,73.2 39.4,73.2 		"/>
		<polygon class="st1" points="35.1,82.2 34.1,82.2 41.8,73.2 42.5,73.2 		"/>
		<polygon class="st1" points="53.7,73.2 57.6,82.2 58.3,82.2 54.6,73.2 		"/>
		<path class="st1" d="M47.8,76.8l-7.2,9.5c-0.4,0.7-0.4,1.5,0,2.1c0.5,0.9,1.2,1.7,1.9,2.5c0,0-2.6-1.2-3.1-2.5s-0.5-1.7,0-3.2
			c0.5-1.5,7.2-8.5,7.2-8.5L47.8,76.8z"/>
		<rect x="55.2" y="87.4" class="st1" width="0.4" height="3.5"/>
		<rect x="57" y="87.4" class="st1" width="0.4" height="3.5"/>
		<rect x="58.3" y="87.4" class="st1" width="0.4" height="3.5"/>
		<rect x="60.1" y="87.4" class="st1" width="0.4" height="3.5"/>
		<rect x="61.8" y="87.4" class="st1" width="0.4" height="3.5"/>
		<rect x="65.5" y="87.4" class="st1" width="0.4" height="3.5"/>
		<rect x="67.2" y="87.4" class="st1" width="0.4" height="3.5"/>
		<rect x="63.2" y="87.4" class="st1" width="0.4" height="3.5"/>
		<rect x="85.7" y="87.4" class="st1" width="0.4" height="3.5"/>
		<rect x="87.5" y="87.4" class="st1" width="0.4" height="3.5"/>
		<rect x="88.8" y="87.4" class="st1" width="0.4" height="3.5"/>
		<rect x="90.6" y="87.4" class="st1" width="0.4" height="3.5"/>
		<rect x="92.3" y="87.4" class="st1" width="0.4" height="3.5"/>
		<rect x="96" y="87.4" class="st1" width="0.4" height="3.5"/>
		<rect x="97.7" y="87.4" class="st1" width="0.4" height="3.5"/>
		<rect x="93.7" y="87.4" class="st1" width="0.4" height="3.5"/>
		<rect x="109.7" y="87.4" class="st1" width="0.4" height="3.5"/>
		<rect x="111.5" y="87.4" class="st1" width="0.4" height="3.5"/>
		<rect x="112.8" y="87.4" class="st1" width="0.4" height="3.5"/>
	</g>
</g>
</svg>
