<?xml version="1.0" encoding="utf-8"?>
<!-- Generator: Adobe Illustrator 23.0.0, SVG Export Plug-In . SVG Version: 6.00 Build 0)  -->
<svg version="1.1" id="Calque_1" xmlns="http://www.w3.org/2000/svg" xmlns:xlink="http://www.w3.org/1999/xlink" x="0px" y="0px"
	 viewBox="0 0 141.2 141.2" style="enable-background:new 0 0 141.2 141.2;" xml:space="preserve">
<style type="text/css">
	.st0{fill:#F3F3F3;}
	.st1{fill:#404964;}
</style>
<circle class="st0" cx="70.6" cy="70.6" r="70.6"/>
<g id="Layer_2">
	<g id="Layer_1-2">
		<g id="Layer_1-2-2">
			<path class="st1" d="M78.9,86.6c-1.7,0-3.4-0.8-4.5-2.1c-0.8-1-1.2-2.1-1.3-3.3v-0.7c0.1-1,0.4-1.9,0.9-2.8
				c0.1-0.2,0.3-0.4,0.4-0.6c0.6-0.8,1.5-1.3,2.4-1.7c0.2-0.1,0.4-0.2,0.6-0.2c1-0.3,2-0.3,2.9,0c0.2,0.1,0.4,0.1,0.6,0.2
				c0.9,0.4,1.7,0.9,2.4,1.7c0.8,1,1.2,2.1,1.3,3.4v0.7l0,0c-0.1,1.2-0.5,2.4-1.3,3.3C82.3,85.8,80.7,86.6,78.9,86.6 M80.1,70.6
				h-3.4v0.8c-0.9,0.2-1.7,0.5-2.5,0.9l-0.4-0.8l-2.3,1.7l0.6,0.8c-0.7,0.7-1.3,1.5-1.8,2.4l-0.9-0.3L68.6,79l1,0.3
				c-0.2,1-0.2,2,0,3l-1,0.3l0.9,2.8l1-0.3c0.5,0.9,1.1,1.7,1.8,2.4l-0.6,0.8l2.3,1.7l0.2-0.8c0.8,0.5,1.6,0.8,2.5,0.9v1.2h3.4v-1.2
				c1-0.2,2.1-0.5,3-0.9l0.7,0.8l2.4-1.7l-0.6-0.8c0.7-0.7,1.3-1.5,1.8-2.4l1,0.3l0.9-2.8l-0.9-0.3c0.1-0.5,0.1-1,0.1-1.5
				c0-0.5,0-1-0.1-1.5l1-0.3l-0.9-2.8l-1,0.3c-0.5-0.9-1.1-1.7-1.8-2.4l0.6-0.8l-2.3-1.7l-0.8,0.8c-1-0.5-2-0.8-3-0.9L80.1,70.6"/>
			<polyline class="st1" points="92.3,49.8 68.5,49.8 68.5,51.7 92.6,51.7 92.3,49.8 			"/>
		</g>
		<path class="st1" d="M107.3,72c-0.3-0.3-0.6-0.6-1-0.7c-0.4-0.2-0.9-0.3-1.3-0.2h-2v7.2h2c0.5,0,0.9-0.1,1.3-0.3
			c0.4-0.2,0.7-0.4,1-0.7c0.3-0.3,0.5-0.7,0.6-1.1c0.3-1,0.3-2,0-3C107.8,72.7,107.6,72.4,107.3,72z"/>
		<path class="st1" d="M113.1,81.2l-4.9-13.5h-7.3v-5.3h-1.4v-6.3h-1.9v11.6h-1.9l-4.2-15h-1.4l2.6,9.7h-3l-3.6-3.5l1.3-1.3
			c0.3-0.3,0.3-0.7,0-1c-0.3-0.3-0.7-0.3-1,0l0,0l-3.2,3.2c-0.3,0.3-0.3,0.7,0,1l0,0c0.3,0.3,0.7,0.3,1,0l0,0l1.3-1.3l2.9,2.9H76.7
			v-3c0-1.7-0.8-3.2-2.5-3.2h-2.3v-3.4h-1.4v14.8c-1,0.7-1.9,1.5-2.7,2.3c-0.5,0.6-0.5,1.5,0.1,2c0.3,0.2,0.6,0.4,0.9,0.4
			c0.4,0,0.8-0.2,1.1-0.4c4.8-5.2,13-5.5,18.2-0.6c3.2,3,4.7,7.5,3.9,11.8c-0.1,0.8,0.4,1.5,1.1,1.7h0.3c0.7-0.1,1.3-0.6,1.4-1.3
			c0.1-0.7,0.2-1.3,0.2-2h5.4c-1,1.1-1.6,2.6-1.5,4.1c0,3.2,2.6,5.9,5.8,6c0,0,0,0,0,0h0.1c3.2,0,5.8-2.6,5.8-5.8v-0.2
			c0-1.5-0.5-3-1.5-4.1H113.1z M99.3,77.9c-0.2,0.4-0.4,0.8-0.7,1.1c-0.3,0.3-0.7,0.6-1.1,0.7c-0.5,0.2-1,0.3-1.5,0.3
			c-0.3,0-0.6,0-1-0.1c-0.3-0.1-0.6-0.2-0.9-0.3c-0.3-0.1-0.6-0.3-0.8-0.4c-0.2-0.2-0.5-0.3-0.7-0.6l0.6-0.9
			c0.1-0.1,0.1-0.1,0.2-0.2c0.1,0,0.2-0.1,0.2-0.1c0.1,0,0.3,0.1,0.4,0.2c0.1,0.1,0.3,0.2,0.5,0.3c0.2,0.1,0.4,0.2,0.7,0.3
			c0.3,0.1,0.6,0.1,0.9,0.1c0.5,0,0.9-0.1,1.3-0.4c0.3-0.3,0.5-0.7,0.4-1.1c0-0.2-0.1-0.5-0.2-0.7c-0.1-0.2-0.3-0.3-0.5-0.4
			c-0.2-0.1-0.5-0.2-0.8-0.3l-0.9-0.3c-0.3-0.1-0.6-0.2-0.9-0.3c-0.3-0.1-0.5-0.3-0.8-0.5c-0.2-0.2-0.4-0.5-0.5-0.8
			c-0.1-0.4-0.2-0.8-0.2-1.2c0-0.4,0.1-0.7,0.3-1.1c0.2-0.4,0.4-0.7,0.7-0.9c0.3-0.3,0.7-0.5,1.1-0.7c0.5-0.2,0.9-0.3,1.4-0.3
			c0.6,0,1.1,0.1,1.7,0.3c0.5,0.2,0.9,0.4,1.3,0.8l-0.5,0.9c0,0.1-0.1,0.2-0.2,0.2c-0.1,0-0.2,0.1-0.2,0.1c-0.1,0-0.2,0-0.3-0.1
			l-0.4-0.2c-0.2-0.1-0.4-0.2-0.6-0.2C96.9,71,96.7,71,96.4,71c-0.2,0-0.5,0-0.7,0.1c-0.2,0.1-0.3,0.1-0.5,0.3
			c-0.1,0.1-0.2,0.3-0.3,0.4c-0.1,0.2-0.1,0.3-0.1,0.5c0,0.2,0.1,0.4,0.2,0.6c0.2,0.2,0.3,0.3,0.5,0.4c0.2,0.1,0.5,0.2,0.8,0.3
			c0.3,0.1,0.6,0.2,0.9,0.3c0.3,0.1,0.6,0.2,0.9,0.4c0.3,0.1,0.5,0.3,0.8,0.5c0.2,0.2,0.4,0.5,0.5,0.8c0.1,0.3,0.2,0.7,0.2,1.1
			C99.5,77.1,99.5,77.5,99.3,77.9z M104.7,88.8c-1.8,0-3.2-1.4-3.2-3.2s1.4-3.2,3.2-3.2c1.8,0,3.2,1.4,3.2,3.2
			C107.9,87.4,106.5,88.8,104.7,88.8z M108.7,78.4c-0.5,0.5-1,0.8-1.6,1.1c-0.7,0.3-1.4,0.4-2.2,0.4H101V69.5h3.9
			c0.7,0,1.5,0.1,2.2,0.4c1.2,0.5,2.2,1.4,2.7,2.7c0.3,0.7,0.4,1.4,0.4,2.1c0,0.7-0.1,1.4-0.4,2.1C109.5,77.4,109.1,77.9,108.7,78.4
			z"/>
		<polygon class="st1" points="38.9,67.1 57.6,67.1 51.8,76.9 43.5,76.9 		"/>
		<polygon class="st1" points="67.4,72.6 61.3,84.1 31.4,84.1 31.4,82.4 60.3,82.4 66.4,72 		"/>
		<circle class="st1" cx="31.7" cy="87.7" r="3.7"/>
		<circle class="st1" cx="50.1" cy="87.7" r="3.6"/>
		<polygon class="st1" points="39.7,72 56.4,72 56.4,73.2 42.2,73.2 39.7,73.2 		"/>
		<polygon class="st1" points="35.4,82.4 34.4,82.4 42.2,73.2 42.9,73.2 		"/>
		<polygon class="st1" points="54.3,73.2 58.2,82.4 59,82.4 55.2,73.2 		"/>
		<path class="st1" d="M48.3,76.9l-7.4,9.7c-0.4,0.7-0.4,1.5,0,2.2c0.6,0.9,1.2,1.8,2,2.5c0,0-2.6-1.3-3.1-2.5s-0.5-1.7,0-3.2
			c0.5-1.5,7.3-8.6,7.3-8.6L48.3,76.9z"/>
	</g>
</g>
</svg>
