<?xml version="1.0" encoding="utf-8"?>
<!-- Generator: Adobe Illustrator 23.0.0, SVG Export Plug-In . SVG Version: 6.00 Build 0)  -->
<svg version="1.1" id="Calque_1" xmlns="http://www.w3.org/2000/svg" xmlns:xlink="http://www.w3.org/1999/xlink" x="0px" y="0px"
	 viewBox="0 0 141.2 141.2" style="enable-background:new 0 0 141.2 141.2;" xml:space="preserve">
<style type="text/css">
	.st0{fill:#F3F3F3;}
	.st1{fill:#404964;}
</style>
<circle class="st0" cx="70.6" cy="70.6" r="70.6"/>
<g id="Layer_2_1_">
	<g id="Layer_1-2_1_">
		<g id="Layer_1-2-2_1_">
			<path class="st1" d="M59.1,89.8c-2,0-3.8-0.9-5.1-2.4c-0.9-1.1-1.4-2.4-1.5-3.8v-0.8c0.1-1.1,0.4-2.2,1-3.1
				c0.1-0.2,0.3-0.4,0.5-0.6c0.7-0.9,1.6-1.5,2.7-1.9c0.2-0.1,0.5-0.2,0.7-0.2c1.1-0.3,2.2-0.3,3.3,0c0.3,0.1,0.5,0.1,0.7,0.2
				c1,0.4,2,1.1,2.7,1.9c0.9,1.1,1.4,2.4,1.5,3.8v0.8l0,0c-0.1,1.4-0.6,2.7-1.5,3.8C62.9,88.9,61.1,89.8,59.1,89.8 M60.4,71.6h-3.8
				v0.9c-1,0.2-2,0.5-2.8,1.1l-0.5-0.9l-2.6,1.9l0.7,0.9c-0.8,0.8-1.5,1.8-2,2.8L48.4,78l-1,3.2l1.1,0.4c-0.2,1.1-0.2,2.3,0,3.4
				l-1.1,0.4l1,3.1l1.1-0.4c0.5,1,1.2,2,2,2.8l-0.7,0.9l2.7,1.9l0.2-0.9c0.9,0.5,1.8,0.9,2.9,1.1v1.4h3.8v-1.4
				c1.2-0.2,2.3-0.5,3.4-1.1l0.7,0.9l2.7-1.9l-0.7-0.9c0.8-0.8,1.5-1.8,2-2.8l1.1,0.4l1-3.2l-1.1-0.4c0.2-1.1,0.2-2.3,0-3.4l1.1-0.4
				l-1-3.2l-1.1,0.4c-0.5-1-1.2-2-2-2.8l0.7-0.9l-2.6-2l-0.9,0.9c-1.1-0.5-2.2-0.9-3.4-1.1L60.4,71.6"/>
			<path class="st1" d="M88.4,92.3c-2,0-3.7-1.6-3.7-3.6c0-2,1.6-3.7,3.6-3.7s3.7,1.6,3.7,3.6c0,0,0,0,0,0l0,0
				C92.1,90.7,90.4,92.3,88.4,92.3L88.4,92.3 M51.1,51.3h-1.6V68c-1.1,0.8-2.1,1.7-3.1,2.7c-0.5,0.7-0.4,1.7,0.3,2.3
				c0.6,0.5,1.5,0.4,2.1-0.1c5.5-5.9,14.8-6.1,20.7-0.6c3.6,3.4,5.3,8.4,4.3,13.3c-0.2,0.9,0.4,1.7,1.3,1.9h0.3
				c0.8-0.1,1.5-0.7,1.6-1.5c0.2-0.8,0.2-1.5,0.3-2.3h6.2c-1.1,1.3-1.8,3-1.7,4.7c0,3.7,2.9,6.7,6.6,6.8h0.1c3.7,0,6.6-3,6.7-6.6
				v-0.2c0-1.7-0.6-3.4-1.8-4.7h4.6l-5.6-15.4h-8.3v-6h-1.6v-7.2h-2.2v13.2h-2.1l-4.8-17.1h-1.6l3,11h-3.4l-4.1-4l1.6-1.5
				c0.3-0.3,0.3-0.8,0-1.2c-0.3-0.3-0.8-0.3-1.1,0l0,0l0,0L64,59.3c-0.3,0.3-0.3,0.8,0,1.1l0,0c0.3,0.3,0.8,0.3,1.1,0l0,0l1.5-1.5
				l3.3,3.3H56.6v-3.5c0-1.9-0.9-3.7-2.8-3.7h-2.7V51.3"/>
			<polyline class="st1" points="74.3,47.9 47.3,47.9 47.3,50.2 74.7,50.2 74.3,47.9 			"/>
		</g>
		<path class="st1" d="M70.6,37.9c-18.1,0-32.7,14.6-32.7,32.7s14.6,32.7,32.7,32.7s32.7-14.6,32.7-32.7S88.7,37.9,70.6,37.9
			C70.6,37.9,70.6,37.9,70.6,37.9z M70.6,99.9c-16.2,0-29.3-13.1-29.3-29.3s13.1-29.3,29.3-29.3s29.3,13.1,29.3,29.3c0,0,0,0,0,0
			C99.9,86.8,86.8,99.9,70.6,99.9z"/>
		<polygon class="st1" points="50.5,95.3 96,52.1 93,49 47.8,92.4 		"/>
	</g>
</g>
</svg>
