<?xml version="1.0" encoding="utf-8"?>
<!-- Generator: Adobe Illustrator 23.0.0, SVG Export Plug-In . SVG Version: 6.00 Build 0)  -->
<svg version="1.1" id="Calque_1" xmlns="http://www.w3.org/2000/svg" xmlns:xlink="http://www.w3.org/1999/xlink" x="0px" y="0px"
	 viewBox="0 0 141.2 141.2" style="enable-background:new 0 0 141.2 141.2;" xml:space="preserve">
<style type="text/css">
	.st0{fill:#F3F3F3;}
	.st1{fill:#404964;}
</style>
<circle class="st0" cx="70.6" cy="70.6" r="70.6"/>
<g id="Layer_2">
	<g id="Layer_1-2">
		<path class="st1" d="M73.6,72.9c-4.7,0-8.5-3.8-8.5-8.5s3.8-8.5,8.5-8.5c2.5,0,4.9,1.1,6.6,3.1l0,0c3,3.6,2.6,8.9-1,12
			C77.5,72.1,75.6,72.9,73.6,72.9z M73.6,57.4c-3.8,0-6.9,3.1-6.9,6.9c0,3.8,3.1,6.9,6.9,6.9c3.8,0,6.9-3.1,6.9-6.9
			c0-1.6-0.6-3.2-1.6-4.4l0,0c-1.2-1.4-2.9-2.2-4.7-2.4C73.9,57.5,73.7,57.4,73.6,57.4L73.6,57.4z"/>
		<path class="st1" d="M53.1,68.7c-0.3,0-0.6-0.2-0.8-0.5c-1.2-4.1,1-8.4,5.1-9.6c0.4-0.1,0.9-0.2,1.4-0.3c0.4-0.1,0.9,0.1,1,0.6
			c0.1,0.4-0.1,0.9-0.6,1c-0.1,0-0.2,0-0.3,0c-3.3,0.4-5.7,3.4-5.3,6.7c0,0.4,0.1,0.7,0.2,1.1c0.1,0.4-0.1,0.9-0.5,1l0,0
			C53.3,68.7,53.2,68.7,53.1,68.7z"/>
		<path class="st1" d="M62.3,53.9c-0.2,0-0.3-0.1-0.4-0.1c-0.4-0.2-0.5-0.7-0.2-1.1c0,0,0,0,0,0c1.7-2.5,4.7-3.8,7.6-3.2
			c0.4,0.1,0.7,0.5,0.6,0.9c-0.1,0.4-0.5,0.7-0.9,0.6l0,0c-1.7-0.4-3.6,0.1-4.9,1.3c-0.4,0.4-0.8,0.8-1.1,1.2
			C62.8,53.8,62.6,53.9,62.3,53.9z"/>
		<path class="st1" d="M88.7,55.1c-0.2,0-0.3-0.1-0.5-0.2c-0.4-0.3-0.4-0.7-0.2-1.1c1.3-1.7,0.9-4.2-0.8-5.5
			c-1.7-1.3-4.2-0.9-5.5,0.8c-0.2,0.2-0.3,0.5-0.4,0.7c-0.2,0.4-0.7,0.6-1.1,0.4s-0.6-0.7-0.4-1.1l0,0c1.3-2.7,4.6-3.9,7.3-2.6
			c0.7,0.3,1.3,0.8,1.8,1.4c1.6,1.9,1.7,4.7,0.3,6.8C89.1,55,88.9,55.1,88.7,55.1z"/>
		<path class="st1" d="M69.6,58c-0.3,0-0.5-0.1-0.7-0.4c-2.2-3.5-1.1-8,2.3-10.2c3.5-2.2,8-1.1,10.2,2.3c0.8,1.2,1.2,2.6,1.1,4.1
			c0,0.4-0.4,0.8-0.8,0.8c-0.4,0-0.8-0.4-0.8-0.8c0-3.2-2.5-5.9-5.7-5.9c-3.2,0-5.9,2.5-5.9,5.7c0,1.1,0.3,2.2,0.9,3.1
			c0.2,0.4,0.1,0.9-0.3,1.1l0,0C69.8,58,69.7,58,69.6,58z"/>
		<path class="st1" d="M71.4,88.3c-4.7,0-8.5-3.8-8.5-8.5c0-4.7,3.8-8.5,8.5-8.5c2.5,0,4.9,1.1,6.5,3l0,0c3,3.6,2.6,8.9-1,12
			C75.4,87.6,73.4,88.3,71.4,88.3z M71.4,72.9c-1.6,0-3.2,0.6-4.5,1.6c-2.9,2.5-3.3,6.8-0.8,9.8c2.5,2.9,6.8,3.3,9.8,0.8l0,0
			c1.4-1.2,2.2-2.9,2.4-4.7c0.2-1.8-0.4-3.6-1.6-5.1l0,0c-1.2-1.4-2.9-2.2-4.7-2.4L71.4,72.9z"/>
		<path class="st1" d="M97.3,100.5c-1.7,0-3.3-0.8-4.4-2c-0.3-0.4-0.6-0.8-0.8-1.2c-0.2-0.4,0-0.9,0.3-1.1c0.4-0.2,0.9,0,1.1,0.3
			l0,0c0.2,0.3,0.4,0.6,0.6,0.9c1.5,1.8,4.2,2.1,6,0.6c1.8-1.5,2.1-4.2,0.6-6c0,0-0.1-0.1-0.1-0.1c-0.7-0.8-1.7-1.4-2.8-1.5
			c-0.4-0.1-0.8-0.5-0.7-0.9c0.1-0.4,0.4-0.7,0.9-0.7c0,0,0,0,0,0c3.2,0.3,5.5,3.2,5.2,6.4C102.9,98.3,100.4,100.5,97.3,100.5
			L97.3,100.5z"/>
		<path class="st1" d="M94.5,93.3c-0.4,0-0.8-0.3-0.8-0.8c0-0.3,0.2-0.7,0.5-0.8c0.6-0.2,1.2-0.6,1.7-1c2.4-2,2.7-5.6,0.6-8
			c-0.9-1.1-2.2-1.8-3.6-2c-0.4-0.1-0.7-0.4-0.7-0.9l0,0c0.1-0.4,0.5-0.7,0.9-0.7c0,0,0,0,0,0l0,0c4,0.5,6.8,4.1,6.3,8.1
			c-0.2,1.8-1.1,3.5-2.5,4.7c-0.7,0.6-1.4,1-2.2,1.3C94.7,93.3,94.6,93.3,94.5,93.3z"/>
		<path class="st1" d="M89.1,98.7c-3,0-5.5-2.3-5.8-5.2c-0.1-0.4,0.3-0.8,0.7-0.9c0,0,0,0,0,0c0.4,0,0.8,0.3,0.9,0.7
			c0.3,2.4,2.4,4,4.8,3.7c2.4-0.3,4-2.4,3.7-4.8c-0.3-2.4-2.4-4-4.8-3.7c0,0,0,0,0,0h-0.2c-0.4,0.1-0.9-0.2-0.9-0.7
			c-0.1-0.4,0.2-0.8,0.7-0.9c3.2-0.5,6.2,1.6,6.8,4.8c0.5,3.2-1.6,6.2-4.8,6.8c-0.3,0.1-0.6,0.1-1,0.1L89.1,98.7z"/>
		<path class="st1" d="M52.8,79.6c-0.1,0-0.2,0-0.3-0.1c-3.2-1.3-4.7-5-3.4-8.2c1.2-3,4.5-4.5,7.6-3.6c0.4,0.1,0.6,0.6,0.5,1l0,0
			c-0.1,0.4-0.6,0.6-1,0.5c-2.5-0.8-5.1,0.6-5.8,3.1c-0.1,0.3-0.2,0.7-0.2,1c-0.1,1.2,0.3,2.5,1.1,3.4c0.5,0.6,1.1,1,1.8,1.3
			c0.4,0.2,0.6,0.6,0.4,1C53.4,79.4,53.1,79.6,52.8,79.6L52.8,79.6z"/>
		<path class="st1" d="M59.4,89.7c-4.3,0-7.7-3.4-7.7-7.7c0-4.3,3.4-7.7,7.7-7.7c1.9,0,3.7,0.7,5.1,1.9c0.3,0.3,0.4,0.8,0.1,1.1
			c-0.3,0.3-0.8,0.4-1.1,0.1c-2.5-2.2-6.4-2-8.6,0.5c-2.2,2.5-2,6.4,0.5,8.6c2.1,1.9,5.2,2,7.5,0.4c0.4-0.2,0.9-0.2,1.1,0.2
			c0.3,0.4,0.2,0.8-0.2,1.1c0,0,0,0,0,0l0,0C62.5,89.2,60.9,89.7,59.4,89.7z"/>
		<path class="st1" d="M57.8,75.7c-0.3,0-0.5-0.1-0.6-0.3c-2.5-3.4-1.7-8.3,1.7-10.8c2-1.4,4.6-1.9,6.9-1.1c0.4,0.1,0.6,0.6,0.5,1
			s-0.6,0.6-1,0.5c-3.2-1.1-6.6,0.6-7.7,3.8c-0.7,1.9-0.3,4,0.9,5.6c0.3,0.4,0.2,0.8-0.2,1.1l0,0C58.2,75.6,58,75.7,57.8,75.7z"/>
		<path class="st1" d="M70.1,94.2c-4.2,0-7.5-3.4-7.5-7.6c0-1.2,0.3-2.4,0.9-3.5c0.2-0.4,0.7-0.5,1.1-0.3c0,0,0,0,0,0
			c0.4,0.2,0.5,0.7,0.3,1.1c0,0,0,0,0,0l0,0c-1.5,2.9-0.4,6.5,2.5,8s6.5,0.4,8-2.5c0.6-1.2,0.8-2.5,0.6-3.9
			c-0.1-0.4,0.2-0.8,0.6-0.9c0,0,0,0,0,0c0.4-0.1,0.9,0.2,0.9,0.6c0,0,0,0,0,0c0.8,4.1-1.9,8-6,8.8c-0.5,0.1-0.9,0.1-1.4,0.1
			L70.1,94.2z"/>
		<path class="st1" d="M81.2,82.1c-0.6,0-1.3,0-1.9-0.2c-0.4-0.1-0.7-0.6-0.6-1c0.1-0.4,0.6-0.7,1-0.6c0,0,0,0,0,0
			c3,1.1,6.3-0.5,7.3-3.5c1.1-3-0.5-6.3-3.5-7.3c-0.3-0.1-0.6-0.2-0.9-0.2c-0.7-0.2-1.4-0.2-2.1-0.2c-0.4,0-0.8-0.3-0.9-0.7
			c0-0.4,0.3-0.8,0.7-0.9l0,0l0,0c4-0.6,7.7,2.2,8.3,6.2c0.6,4-2.2,7.7-6.2,8.3c-0.2,0-0.4,0-0.5,0.1C81.6,82.1,81.4,82.1,81.2,82.1
			z"/>
		<path class="st1" d="M81.8,94.5h-0.6c-1.8-0.1-3.5-1-4.7-2.4c-0.4-0.5-0.8-1-1-1.6c-0.2-0.4-0.1-0.9,0.3-1.1
			c0.4-0.2,0.9-0.1,1.1,0.3c0,0,0,0.1,0,0.1c0.2,0.5,0.5,0.9,0.8,1.3c1.9,2.2,5.3,2.5,7.5,0.6c1.1-0.9,1.8-2.2,1.9-3.6
			c0.2-2.9-2-5.5-4.9-5.7c-1-0.1-1.9,0.1-2.8,0.5c-0.4,0.2-0.9,0.1-1.1-0.3c-0.2-0.4-0.1-0.9,0.3-1.1l0,0l0,0c3.4-1.7,7.6-0.4,9.3,3
			c1.7,3.4,0.4,7.6-3,9.3C83.9,94.2,82.9,94.5,81.8,94.5L81.8,94.5z"/>
		<path class="st1" d="M87.3,85.4c-0.4,0-0.8-0.3-0.8-0.8c0,0,0,0,0,0c0-0.4,0.3-0.8,0.7-0.8c0,0,0,0,0,0c3.2-0.3,5.5-3,5.3-6.2
			c-0.1-1.2-0.6-2.3-1.3-3.2L91,74.2c-0.4-0.2-0.5-0.7-0.3-1.1s0.7-0.5,1.1-0.3c0.1,0.1,0.3,0.2,0.3,0.3l0.2,0.2
			c2.6,3.1,2.2,7.7-0.9,10.3C90.3,84.7,88.8,85.3,87.3,85.4L87.3,85.4z"/>
		<path class="st1" d="M87.7,76.2c-0.4,0-0.8-0.3-0.8-0.7s0.3-0.8,0.7-0.8c3.1-0.5,5.2-3.4,4.7-6.6c-0.2-1-0.6-2-1.3-2.8
			c-0.2-0.3-0.5-0.6-0.8-0.8c-0.3-0.3-0.3-0.8,0-1.1c0.3-0.3,0.7-0.3,1-0.1c0.4,0.3,0.7,0.6,1,1c2.6,3.1,2.3,7.7-0.8,10.3
			c0,0,0,0,0,0c-1,0.9-2.2,1.4-3.6,1.7L87.7,76.2z"/>
		<path class="st1" d="M84.8,67.2c-1.3,0-2.5-0.3-3.6-1c-0.4-0.2-0.5-0.7-0.3-1.1c0.2-0.4,0.7-0.5,1.1-0.3l0,0
			c2.8,1.5,6.2,0.5,7.7-2.2c1.5-2.8,0.5-6.2-2.2-7.7c-2.8-1.5-6.2-0.5-7.7,2.2c-0.2,0.4-0.4,0.9-0.5,1.3c-0.1,0.4-0.5,0.7-0.9,0.6
			c-0.4-0.1-0.7-0.5-0.6-0.9c0,0,0,0,0-0.1c1-3.9,5-6.3,8.9-5.3c3.9,1,6.3,5,5.3,8.9C91.2,64.9,88.2,67.2,84.8,67.2L84.8,67.2z"/>
		<path class="st1" d="M96.2,81.8c-0.4,0-0.8-0.3-0.8-0.7c0-0.3,0.1-0.6,0.4-0.7c0.2-0.1,0.4-0.3,0.6-0.4c1.9-1.5,2.2-4.3,0.7-6.2
			c-1-1.3-2.7-1.9-4.3-1.6c-0.4,0-0.8-0.2-0.9-0.6c-0.1-0.4,0.2-0.9,0.7-0.9c3.3-0.5,6.4,1.8,6.9,5.1c0.3,2-0.5,4.1-2,5.4
			c-0.2,0.2-0.5,0.4-0.8,0.6C96.5,81.8,96.4,81.8,96.2,81.8z"/>
		<path class="st1" d="M63,64.3c-0.2,0-0.4-0.1-0.6-0.3c-9.5-10.9-6.7-21.8-6.6-22.3c0.1-0.2,0.2-0.4,0.4-0.5c1.8-1,3.9-0.9,5.7,0.2
			c0.3,0.2,0.4,0.5,0.3,0.8c-2.2,12.7,4.1,17.8,4.4,18c0.4,0.3,0.4,0.8,0.1,1.2c-0.3,0.4-0.8,0.4-1.2,0.1c-0.3-0.2-7.1-5.7-5-18.9
			c-1.1-0.5-2.3-0.5-3.3,0C57,44.4,55.6,53.9,63.6,63c0.3,0.3,0.2,0.8-0.1,1.1C63.4,64.3,63.2,64.3,63,64.3z"/>
		<path class="st1" d="M47.6,59.9c-0.1,0-0.1,0-0.2,0L43.5,59c-0.2-0.1-0.4-0.2-0.6-0.5c-0.1-0.2-0.1-0.5,0-0.7l1.3-2.5l-2.9,0.2
			c-0.4,0-0.8-0.3-0.9-0.7c0,0,0-0.1,0-0.1v-1.4c-1.1-1.1-2-2.5-2.6-4c-0.1-0.3,0-0.6,0.2-0.8c1.1-1.1,2.5-2,4-2.6l0.5-1.3
			c0.1-0.2,0.3-0.4,0.5-0.5c0.2-0.1,0.4-0.1,0.6,0l2.6,1.4l-0.2-2.9c0-0.4,0.3-0.8,0.7-0.9c0.1,0,0.1,0,0.2,0l4,0.7
			c0.3,0.1,0.5,0.2,0.6,0.5c1.5,3.3,3.7,8,4.2,8.8l0.1,0.1c0.3,0.3,0.3,0.8,0,1.1l0,0l-7.7,6.6C48,59.8,47.8,59.9,47.6,59.9z
			 M44.9,57.7l2.5,0.6l6.8-5.9c-0.6-1-1.7-3.3-3.9-8.2l-2.5-0.5l0.3,3.3c0,0.3-0.1,0.6-0.4,0.7c-0.2,0.1-0.5,0.1-0.8,0l-3.1-1.6
			l-0.3,0.8c-0.1,0.2-0.3,0.4-0.5,0.5c-1.2,0.4-2.3,1.1-3.3,1.9c0.5,1.2,1.3,2.2,2.2,3.1c0.2,0.2,0.3,0.4,0.3,0.6v0.8l3.5-0.2
			c0.3,0,0.6,0.1,0.7,0.4c0.1,0.2,0.1,0.5,0,0.8L44.9,57.7z"/>
	</g>
</g>
</svg>
