<svg xmlns="http://www.w3.org/2000/svg" viewBox="0 0 141.2 141.2"><defs><style>.cls-1{fill:#414a64;}.cls-2{fill:none;}</style></defs><title>ACS</title><g id="Layer_2" data-name="Layer 2"><g id="Layer_1-2" data-name="Layer 1"><path class="cls-1" d="M85.87,49.76a8.35,8.35,0,0,0-6.45,2.48C76.84,55,77.22,59,77.59,62.53c.28,2.9.28,4.53,0,4.81,0,0-.93.56-4.63-.32-7.06-1.73-12.58-1-16.36,2.29C51.12,74,51.78,82,51.83,82.31a3.5,3.5,0,0,0,3.5,3.18h.33a3.55,3.55,0,0,0,3.18-3.84s-.33-4.67,2.34-7c2.48-2.11,6.87-1.59,10.1-.8S79,75.39,82.17,72.67s2.76-7,2.44-10.8c-.1-1.21-.43-4.39,0-4.91a2.84,2.84,0,0,1,1.27-.19,3.53,3.53,0,0,0,3.5-3.5A3.57,3.57,0,0,0,85.87,49.76Zm-5.75,3.13.23-.23a2.2,2.2,0,0,1,1,.28A5.79,5.79,0,0,1,84,56.31s0,0-.1,0c-.6.7-.56,2.62-.32,5-2.39-2-4.35-1.36-5.24-.89C78.15,57.71,78.29,54.9,80.12,52.89ZM55.57,84.5a2.54,2.54,0,0,1-2.81-2.33,23,23,0,0,1,.05-3,5.52,5.52,0,0,1,5.09.65,14.92,14.92,0,0,0,0,1.92A2.51,2.51,0,0,1,55.57,84.5Zm2.38-5a5.68,5.68,0,0,0-5.1-.61A15.41,15.41,0,0,1,55,72.58,4.62,4.62,0,0,1,60.48,74,8.69,8.69,0,0,0,58,79.5Zm2.71-5.66a4.82,4.82,0,0,0-5.47-1.54,13.15,13.15,0,0,1,2-2.25,11.72,11.72,0,0,1,4.21-2.29,5,5,0,0,1,3.09,4.59A7.09,7.09,0,0,0,60.66,73.84Zm4.07-1.54a5.2,5.2,0,0,0-3-4.68,16.65,16.65,0,0,1,4.44-.56,25.78,25.78,0,0,1,3.6.28,5.12,5.12,0,0,1,1.31,3.23,2.79,2.79,0,0,1-1.12,2A19.53,19.53,0,0,0,64.73,72.3Zm5.52.37a3,3,0,0,0,1.08-2,5.15,5.15,0,0,0-1.22-3.23c.84.14,1.68.33,2.62.51a16,16,0,0,0,3,.52,5.24,5.24,0,0,1,1.22,3.13,3.24,3.24,0,0,1-.94,2,20.91,20.91,0,0,1-4.49-.7C71.09,72.81,70.67,72.72,70.25,72.67ZM81.52,72a7.73,7.73,0,0,1-5.24,1.64,3.28,3.28,0,0,0,.84-2A4.73,4.73,0,0,0,76,68.46c1.45.05,2-.23,2.15-.37.38-.33.52-1.07.56-2.24a3.21,3.21,0,0,1,1.17.18c.84.33,2.06,1.22,3.32,3.65A6,6,0,0,1,81.52,72ZM83.3,69.4c-1.87-3.51-3.7-3.83-4.59-3.79,0-.84-.09-1.87-.18-3.13,0-.56-.1-1.17-.14-1.78.79-.47,2.8-1.17,5.23.94a.72.72,0,0,0,0,.32C83.86,64.44,84.14,67.16,83.3,69.4Zm2.57-13.56a4.35,4.35,0,0,0-1.69.28c-1.16-2.85-2.71-3.55-3.6-3.69a7.67,7.67,0,0,1,5.29-1.73,2.59,2.59,0,0,1,2.57,2.57A2.56,2.56,0,0,1,85.87,55.84Z"/><path class="cls-1" d="M67.75,91.34H66.5a.53.53,0,0,1-.34-.1A.63.63,0,0,1,66,91l-.64-1.77h-3.6L61.07,91a.59.59,0,0,1-.18.25.52.52,0,0,1-.35.11H59.29l3.4-8.67h1.66Zm-5.61-3.27H64.9l-1.05-2.89c-.05-.13-.1-.28-.16-.45s-.12-.36-.17-.57c-.06.21-.11.4-.17.57a4.79,4.79,0,0,1-.16.46Z"/><path class="cls-1" d="M74.3,89.3a.29.29,0,0,1,.23.1l.64.69a3.45,3.45,0,0,1-1.3,1,4.49,4.49,0,0,1-1.85.35,4.39,4.39,0,0,1-1.74-.33,3.82,3.82,0,0,1-2.15-2.32A5.15,5.15,0,0,1,67.84,87a4.76,4.76,0,0,1,.32-1.8,4.29,4.29,0,0,1,.91-1.4,4.13,4.13,0,0,1,1.41-.91,4.82,4.82,0,0,1,1.81-.33,4.21,4.21,0,0,1,1.69.31,4.12,4.12,0,0,1,1.24.82l-.54.75a.8.8,0,0,1-.13.13.39.39,0,0,1-.2,0,.5.5,0,0,1-.29-.11,2.53,2.53,0,0,0-.36-.23,3.35,3.35,0,0,0-.56-.24,3,3,0,0,0-.86-.1,3,3,0,0,0-1.13.21,2.45,2.45,0,0,0-.88.61,2.71,2.71,0,0,0-.58,1,3.91,3.91,0,0,0-.2,1.28,4,4,0,0,0,.2,1.3,3,3,0,0,0,.56,1,2.33,2.33,0,0,0,.84.59,2.53,2.53,0,0,0,1,.21,5.47,5.47,0,0,0,.6,0,3.19,3.19,0,0,0,.49-.12,2.39,2.39,0,0,0,.43-.2,2.55,2.55,0,0,0,.39-.3.51.51,0,0,1,.13-.09A.32.32,0,0,1,74.3,89.3Z"/><path class="cls-1" d="M81,84.25a.48.48,0,0,1-.16.18.32.32,0,0,1-.2.06.56.56,0,0,1-.27-.1l-.36-.2a2.29,2.29,0,0,0-.47-.21,2.13,2.13,0,0,0-.65-.09,1.69,1.69,0,0,0-.58.08,1.19,1.19,0,0,0-.42.22.89.89,0,0,0-.26.35,1,1,0,0,0-.08.44.75.75,0,0,0,.17.51,1.5,1.5,0,0,0,.45.35,4.27,4.27,0,0,0,.64.25l.74.25a5.1,5.1,0,0,1,.73.3,2.18,2.18,0,0,1,.64.43,2,2,0,0,1,.46.64,2.29,2.29,0,0,1,.17.92,3.11,3.11,0,0,1-.2,1.1,2.57,2.57,0,0,1-.59.89,2.86,2.86,0,0,1-1,.6,3.35,3.35,0,0,1-1.27.22,4.47,4.47,0,0,1-.82-.08,4.6,4.6,0,0,1-.77-.23,3.75,3.75,0,0,1-.69-.36,3.32,3.32,0,0,1-.57-.47l.46-.77a.75.75,0,0,1,.16-.15.5.5,0,0,1,.21,0,.56.56,0,0,1,.32.12l.42.27a3.51,3.51,0,0,0,.55.28,2.22,2.22,0,0,0,.77.12,1.57,1.57,0,0,0,1.07-.33,1.18,1.18,0,0,0,.38-.94.88.88,0,0,0-.17-.55,1.38,1.38,0,0,0-.45-.37,3.52,3.52,0,0,0-.65-.25c-.24-.06-.48-.14-.73-.22a5,5,0,0,1-.73-.29,2.32,2.32,0,0,1-.64-.43,1.92,1.92,0,0,1-.45-.68,2.45,2.45,0,0,1-.18-1,2.48,2.48,0,0,1,.19-.92,2.32,2.32,0,0,1,.56-.8,2.65,2.65,0,0,1,.89-.56,3.21,3.21,0,0,1,1.2-.21,4.07,4.07,0,0,1,1.42.24,3.28,3.28,0,0,1,1.1.67Z"/><rect class="cls-2" width="141.2" height="141.2" rx="70.6"/></g></g></svg>