<svg xmlns="http://www.w3.org/2000/svg" viewBox="0 0 141.2 141.2"><defs><style>.cls-1{fill:#414a64;}.cls-2{fill:none;}</style></defs><title>Agriculture-raisonnee</title><g id="Layer_2" data-name="Layer 2"><g id="Layer_1-2" data-name="Layer 1"><path class="cls-1" d="M98.16,63.31v-4.1a8,8,0,0,0-6.6-7.9v-5.2a.94.94,0,0,0-1-1H89v-2.8l1.7-1a1,1,0,1,0-1-1.8l-2.2,1.3a1.05,1.05,0,0,0-.5.9V45h-1.6a.94.94,0,0,0-1,1v5.1H80l-2.5-12.8a3.52,3.52,0,0,0-3.4-2.8H60.76a3.54,3.54,0,0,0-3.5,3.5v12.2h0v4.5c-2.8-3-9.1-9.7-11.9-12.7h0a1.34,1.34,0,0,0-.8-.5c-5.7-1-8.1,4.9-6.2,10.3a1,1,0,0,0,.9.7h0a.94.94,0,0,0,1-1v-.3a4.47,4.47,0,0,1,7.7-3.5l.2.2c-4.2.9-5.2,6.1-3.8,10.3a1.2,1.2,0,0,0,1,.7h0a.94.94,0,0,0,1-1v-.3a4.47,4.47,0,0,1,7.7-3.5l3.1,3.3a11.21,11.21,0,1,0,18,11.2h10a8.3,8.3,0,1,0,16.6.4A8.16,8.16,0,0,0,98.16,63.31ZM86.36,47h3.2v4.1h-3.2Zm-10.7-8.3,2.4,12.4H65V37.51h9.2A1.59,1.59,0,0,1,75.66,38.71Zm-16.4.2a1.54,1.54,0,0,1,1.5-1.5h2.1v13.7h-3.6ZM40,47.41a3.55,3.55,0,0,1,3.5-3.1H44l.8.8.1.1A6.12,6.12,0,0,0,40,47.41Zm6.1,6.4c.5-2.1,1.8-3.3,4-3.1l.9.9A6.63,6.63,0,0,0,46.06,53.81Zm18.2,22.5a9.2,9.2,0,1,1,9.2-9.2A9.18,9.18,0,0,1,64.26,76.31Zm11.3-9.2a11.18,11.18,0,0,0-11.2-11.2,11.52,11.52,0,0,0-5,1.2v-4h30.9a6,6,0,0,1,6,6v3.1a8.84,8.84,0,0,0-2.7-.4,8.16,8.16,0,0,0-7.9,5.9h-10C75.46,67.51,75.56,67.31,75.56,67.11Zm17.9,9.2a6.27,6.27,0,0,1-6.3-6.3,6.34,6.34,0,0,1,6.3-6.3,6.3,6.3,0,0,1,0,12.6Z"/><path class="cls-1" d="M93.46,66.31a3.8,3.8,0,1,0,3.8,3.8A3.8,3.8,0,0,0,93.46,66.31Zm0,5.6a1.8,1.8,0,1,1,1.8-1.8A1.79,1.79,0,0,1,93.46,71.91Z"/><path class="cls-1" d="M64.26,61.31a5.8,5.8,0,0,0-5.8,5.8,5.87,5.87,0,0,0,5.8,5.8,5.8,5.8,0,0,0,5.8-5.8A5.68,5.68,0,0,0,64.26,61.31Zm0,9.7a3.8,3.8,0,1,1,3.8-3.8A3.74,3.74,0,0,1,64.26,71Z"/><path class="cls-1" d="M84,63.51h-6.2a1,1,0,0,0,0,2h6.3a.94.94,0,0,0,1-1A1.18,1.18,0,0,0,84,63.51Z"/><path class="cls-1" d="M84,58.41a.94.94,0,0,0,1-1v-2.2a1,1,0,1,0-2,0v2.2A.94.94,0,0,0,84,58.41Z"/><path class="cls-1" d="M87.86,58.41a.94.94,0,0,0,1-1v-2.2a1,1,0,1,0-2,0v2.2A.94.94,0,0,0,87.86,58.41Z"/><path class="cls-1" d="M91.66,58.41a.94.94,0,0,0,1-1v-2.2a1,1,0,0,0-2,0v2.2A.94.94,0,0,0,91.66,58.41Z"/><path class="cls-1" d="M50.51,89.13H49.27a.56.56,0,0,1-.35-.11.55.55,0,0,1-.19-.26L48.08,87h-3.6l-.64,1.77a.64.64,0,0,1-.19.25.53.53,0,0,1-.35.12H42.05l3.41-8.68h1.65ZM44.9,85.85h2.76l-1-2.89c0-.12-.1-.27-.16-.45a5.6,5.6,0,0,1-.17-.57c-.06.21-.11.4-.17.57A3.67,3.67,0,0,1,46,83Z"/><path class="cls-1" d="M53.45,82.86a3.52,3.52,0,0,1,.75.08,2.94,2.94,0,0,1,.63.24H56.6v.55a.29.29,0,0,1-.07.22.45.45,0,0,1-.24.11l-.56.1a1.59,1.59,0,0,1,.1.33,2.1,2.1,0,0,1,0,.36,1.87,1.87,0,0,1-.18.83,1.82,1.82,0,0,1-.51.63,2.38,2.38,0,0,1-.76.4,3.22,3.22,0,0,1-1,.14,3,3,0,0,1-.67-.07c-.2.12-.29.25-.29.39a.3.3,0,0,0,.17.28,1.22,1.22,0,0,0,.45.12,4.09,4.09,0,0,0,.63,0l.73,0a5.43,5.43,0,0,1,.72.1,2.12,2.12,0,0,1,.64.24,1.45,1.45,0,0,1,.45.44,1.42,1.42,0,0,1,.17.72,1.76,1.76,0,0,1-.2.8,2.31,2.31,0,0,1-.58.68,2.89,2.89,0,0,1-.94.49,4.08,4.08,0,0,1-1.26.18,4.91,4.91,0,0,1-1.22-.13,2.9,2.9,0,0,1-.85-.36,1.57,1.57,0,0,1-.51-.52,1.25,1.25,0,0,1-.17-.61,1,1,0,0,1,.27-.73,1.88,1.88,0,0,1,.73-.47,1.06,1.06,0,0,1-.37-.33,1,1,0,0,1-.13-.55.9.9,0,0,1,0-.28,2.1,2.1,0,0,1,.15-.3,2.05,2.05,0,0,1,.25-.27,2.36,2.36,0,0,1,.35-.23,2,2,0,0,1-.73-.67,1.79,1.79,0,0,1-.27-1,1.84,1.84,0,0,1,.7-1.45,2.25,2.25,0,0,1,.77-.4A3.34,3.34,0,0,1,53.45,82.86Zm1.63,6.52a.4.4,0,0,0-.11-.29.77.77,0,0,0-.29-.19,2.43,2.43,0,0,0-.44-.09,4.28,4.28,0,0,0-.52,0h-.58a2.12,2.12,0,0,1-.57-.07,1.24,1.24,0,0,0-.41.33.63.63,0,0,0,.19,1,1.54,1.54,0,0,0,.46.16,3.27,3.27,0,0,0,.69.06,3,3,0,0,0,.71-.07,1.82,1.82,0,0,0,.5-.17.81.81,0,0,0,.28-.27A.7.7,0,0,0,55.08,89.38ZM53.45,85.9a1.34,1.34,0,0,0,.48-.08.88.88,0,0,0,.34-.2,1,1,0,0,0,.21-.32,1.35,1.35,0,0,0,.07-.41.94.94,0,0,0-.28-.72,1.37,1.37,0,0,0-1.63,0,.94.94,0,0,0-.28.72,1.24,1.24,0,0,0,.07.4.9.9,0,0,0,.55.53A1.36,1.36,0,0,0,53.45,85.9Z"/><path class="cls-1" d="M57.53,89.13V83h.87a.49.49,0,0,1,.32.08.52.52,0,0,1,.12.29l.09.75a2.89,2.89,0,0,1,.78-.9,1.6,1.6,0,0,1,1-.33,1.29,1.29,0,0,1,.76.21l-.19,1.11a.27.27,0,0,1-.08.15.28.28,0,0,1-.16,0,1,1,0,0,1-.25,0,1.53,1.53,0,0,0-.41,0,1.28,1.28,0,0,0-.8.26,1.89,1.89,0,0,0-.55.74v3.84Z"/><path class="cls-1" d="M64.24,81.18a.94.94,0,0,1-.08.36.86.86,0,0,1-.21.29.88.88,0,0,1-.3.2.9.9,0,0,1-.74,0,1,1,0,0,1-.49-.49.94.94,0,0,1-.08-.36,1,1,0,0,1,.08-.38,1,1,0,0,1,.2-.3,1,1,0,0,1,.29-.2,1,1,0,0,1,.74,0,1,1,0,0,1,.3.2,1,1,0,0,1,.21.3A1,1,0,0,1,64.24,81.18ZM64,83v6.16H62.53V83Z"/><path class="cls-1" d="M70,84.27a.51.51,0,0,1-.12.13.29.29,0,0,1-.19,0,.38.38,0,0,1-.22-.07l-.26-.15a2.29,2.29,0,0,0-.35-.16,1.87,1.87,0,0,0-.52-.07,1.59,1.59,0,0,0-.68.14,1.3,1.3,0,0,0-.49.41,1.71,1.71,0,0,0-.29.64,3.15,3.15,0,0,0-.1.85,3.28,3.28,0,0,0,.11.87,2,2,0,0,0,.3.65,1.29,1.29,0,0,0,.48.39,1.47,1.47,0,0,0,.64.14,1.55,1.55,0,0,0,.57-.09,1.81,1.81,0,0,0,.37-.19l.26-.19a.38.38,0,0,1,.25-.09.31.31,0,0,1,.27.14l.42.54a2.65,2.65,0,0,1-.53.48,2.44,2.44,0,0,1-.6.31,2.74,2.74,0,0,1-.64.17,4.74,4.74,0,0,1-.65,0A2.56,2.56,0,0,1,67,89a2.47,2.47,0,0,1-.88-.62,3,3,0,0,1-.6-1,4.13,4.13,0,0,1,0-2.6,2.81,2.81,0,0,1,.57-1,2.68,2.68,0,0,1,.94-.67,3.4,3.4,0,0,1,1.28-.23,3,3,0,0,1,1.21.22,2.94,2.94,0,0,1,.93.63Z"/><path class="cls-1" d="M72.77,83v3.91a1.3,1.3,0,0,0,.26.88,1,1,0,0,0,.78.3,1.47,1.47,0,0,0,.72-.17,2.34,2.34,0,0,0,.64-.47V83h1.48v6.16h-.91a.36.36,0,0,1-.37-.27l-.11-.5a4.38,4.38,0,0,1-.39.36,3.23,3.23,0,0,1-.44.27,2.58,2.58,0,0,1-.49.17,2.65,2.65,0,0,1-.58.06,2.11,2.11,0,0,1-.89-.17,1.72,1.72,0,0,1-.65-.48,2.12,2.12,0,0,1-.4-.74,3.16,3.16,0,0,1-.13-1V83Z"/><path class="cls-1" d="M79.81,80.21v8.92H78.33V80.21Z"/><path class="cls-1" d="M83.51,89.22a1.63,1.63,0,0,1-1.23-.45,1.73,1.73,0,0,1-.43-1.25V84.08h-.63A.28.28,0,0,1,81,84a.29.29,0,0,1-.09-.23v-.59l1-.16.31-1.68a.33.33,0,0,1,.11-.19.38.38,0,0,1,.22-.06h.77V83H85v1.06H83.33v3.34a.69.69,0,0,0,.14.45.53.53,0,0,0,.39.16.8.8,0,0,0,.23,0l.16-.07.12-.07a.23.23,0,0,1,.11,0,.2.2,0,0,1,.11,0,.3.3,0,0,1,.09.1l.44.72a2.31,2.31,0,0,1-.74.41A2.82,2.82,0,0,1,83.51,89.22Z"/><path class="cls-1" d="M87.49,83v3.91a1.3,1.3,0,0,0,.26.88,1,1,0,0,0,.78.3,1.47,1.47,0,0,0,.72-.17,2.5,2.5,0,0,0,.64-.47V83h1.48v6.16h-.91a.37.37,0,0,1-.38-.27l-.1-.5-.39.36a3.23,3.23,0,0,1-.44.27,2.45,2.45,0,0,1-.5.17,2.56,2.56,0,0,1-.57.06,2.08,2.08,0,0,1-.89-.17,1.65,1.65,0,0,1-.65-.48,2.12,2.12,0,0,1-.4-.74,3.16,3.16,0,0,1-.14-1V83Z"/><path class="cls-1" d="M93,89.13V83h.87a.51.51,0,0,1,.32.08.52.52,0,0,1,.12.29l.09.75a3,3,0,0,1,.77-.9,1.64,1.64,0,0,1,1-.33,1.31,1.31,0,0,1,.76.21l-.2,1.11a.21.21,0,0,1-.07.15.29.29,0,0,1-.17,0,.93.93,0,0,1-.24,0,1.61,1.61,0,0,0-.42,0,1.27,1.27,0,0,0-.79.26,2,2,0,0,0-.56.74v3.84Z"/><path class="cls-1" d="M100.4,82.88a3.08,3.08,0,0,1,1.07.18,2.29,2.29,0,0,1,.84.54,2.4,2.4,0,0,1,.55.88,3.16,3.16,0,0,1,.2,1.19,2.1,2.1,0,0,1,0,.27.38.38,0,0,1-.06.18.22.22,0,0,1-.1.09.44.44,0,0,1-.17,0h-3.8a2.09,2.09,0,0,0,.51,1.4,1.58,1.58,0,0,0,1.17.44,2.22,2.22,0,0,0,.62-.08,2.91,2.91,0,0,0,.46-.19l.34-.19a.63.63,0,0,1,.29-.08.24.24,0,0,1,.15,0,.38.38,0,0,1,.12.1l.43.54a2.75,2.75,0,0,1-.55.48,2.9,2.9,0,0,1-.64.31,3.22,3.22,0,0,1-.68.17,5.16,5.16,0,0,1-.67,0A3.07,3.07,0,0,1,99.28,89a2.59,2.59,0,0,1-1-.63,2.84,2.84,0,0,1-.65-1,4.1,4.1,0,0,1-.23-1.42,3.58,3.58,0,0,1,.2-1.19,2.92,2.92,0,0,1,.59-1,2.62,2.62,0,0,1,.93-.66A3.22,3.22,0,0,1,100.4,82.88Zm0,1.06a1.41,1.41,0,0,0-1,.36,1.79,1.79,0,0,0-.46,1h2.78a1.91,1.91,0,0,0-.08-.54,1.22,1.22,0,0,0-.24-.45,1,1,0,0,0-.41-.3A1.26,1.26,0,0,0,100.43,83.94Z"/><path class="cls-1" d="M47.32,100.14v3.39H45.71V94.85h2.64a5.68,5.68,0,0,1,1.53.18,3,3,0,0,1,1,.52,2,2,0,0,1,.6.79,2.71,2.71,0,0,1,.19,1,2.76,2.76,0,0,1-.13.82,2.52,2.52,0,0,1-.37.71,2.91,2.91,0,0,1-.6.56,2.94,2.94,0,0,1-.82.38,1.68,1.68,0,0,1,.53.5l2.17,3.21H51a.69.69,0,0,1-.36-.09.71.71,0,0,1-.25-.24l-1.82-2.78a.77.77,0,0,0-.22-.22.92.92,0,0,0-.37-.06Zm0-1.16h1a2.45,2.45,0,0,0,.8-.12,1.47,1.47,0,0,0,.55-.31,1.15,1.15,0,0,0,.33-.48,1.64,1.64,0,0,0,.11-.6,1.25,1.25,0,0,0-.44-1,2.11,2.11,0,0,0-1.33-.35h-1Z"/><path class="cls-1" d="M58.25,103.53h-.66a.74.74,0,0,1-.33-.07.38.38,0,0,1-.18-.25l-.13-.44c-.16.14-.31.26-.46.37a3.17,3.17,0,0,1-.47.27,2.76,2.76,0,0,1-.51.16,3.64,3.64,0,0,1-.6.05,2.37,2.37,0,0,1-.72-.1,1.59,1.59,0,0,1-.57-.32,1.39,1.39,0,0,1-.36-.52,1.83,1.83,0,0,1-.14-.73,1.5,1.5,0,0,1,.19-.69,1.62,1.62,0,0,1,.61-.61,3.63,3.63,0,0,1,1.13-.46,7.27,7.27,0,0,1,1.76-.18v-.36a1.37,1.37,0,0,0-.26-.92,1,1,0,0,0-.76-.3,1.74,1.74,0,0,0-.6.08,2.76,2.76,0,0,0-.42.19l-.33.19a.73.73,0,0,1-.33.08.36.36,0,0,1-.25-.08.55.55,0,0,1-.18-.19l-.27-.47a3.65,3.65,0,0,1,2.56-1,2.66,2.66,0,0,1,1,.17,2.11,2.11,0,0,1,1.16,1.25,2.93,2.93,0,0,1,.15,1Zm-2.88-.93a1.76,1.76,0,0,0,.42,0,2.29,2.29,0,0,0,.37-.12,3,3,0,0,0,.33-.21,3.76,3.76,0,0,0,.32-.28v-1a5.54,5.54,0,0,0-1.08.08,2.43,2.43,0,0,0-.7.21.91.91,0,0,0-.38.29.72.72,0,0,0-.11.37.66.66,0,0,0,.23.56A1,1,0,0,0,55.37,102.6Z"/><path class="cls-1" d="M61.51,95.58a.78.78,0,0,1-.08.36,1,1,0,0,1-.2.29,1.1,1.1,0,0,1-.31.2.91.91,0,0,1-.37.08.86.86,0,0,1-.36-.08,1.21,1.21,0,0,1-.3-.2,1,1,0,0,1-.2-.29.92.92,0,0,1-.07-.36,1,1,0,0,1,.07-.38.92.92,0,0,1,.5-.5.86.86,0,0,1,.36-.07.9.9,0,0,1,.37.07,1.1,1.1,0,0,1,.31.2,1.21,1.21,0,0,1,.2.3A.81.81,0,0,1,61.51,95.58Zm-.22,1.79v6.16H59.81V97.37Z"/><path class="cls-1" d="M66.62,98.57a.44.44,0,0,1-.13.14.4.4,0,0,1-.17,0,.56.56,0,0,1-.23-.06l-.28-.13a2.61,2.61,0,0,0-.37-.14,1.77,1.77,0,0,0-.49-.06,1.18,1.18,0,0,0-.69.19A.57.57,0,0,0,64,99a.44.44,0,0,0,.13.33,1.14,1.14,0,0,0,.34.24,3.74,3.74,0,0,0,.48.18c.18,0,.37.11.55.18a3.83,3.83,0,0,1,.56.22,1.72,1.72,0,0,1,.48.31,1.28,1.28,0,0,1,.34.45,1.41,1.41,0,0,1,.13.64,2,2,0,0,1-.16.82,1.77,1.77,0,0,1-.48.64,2,2,0,0,1-.77.43,3.32,3.32,0,0,1-1,.15,4.21,4.21,0,0,1-.62-.05,4.91,4.91,0,0,1-.58-.16,3.56,3.56,0,0,1-.52-.24,3.82,3.82,0,0,1-.42-.3l.35-.57a.36.36,0,0,1,.15-.15.41.41,0,0,1,.23-.06.5.5,0,0,1,.26.08l.29.17a2.81,2.81,0,0,0,.38.17,1.71,1.71,0,0,0,.55.07,1.56,1.56,0,0,0,.46-.06,1.13,1.13,0,0,0,.31-.16.69.69,0,0,0,.18-.24.66.66,0,0,0,0-.28.51.51,0,0,0-.12-.35.91.91,0,0,0-.35-.24,3.69,3.69,0,0,0-.48-.19l-.56-.17a5.48,5.48,0,0,1-.56-.23,1.58,1.58,0,0,1-.48-.33,1.42,1.42,0,0,1-.35-.48,1.82,1.82,0,0,1-.13-.7,1.79,1.79,0,0,1,.15-.72,1.61,1.61,0,0,1,.45-.59,2.09,2.09,0,0,1,.72-.41,3.1,3.1,0,0,1,1-.16,3,3,0,0,1,1.15.21A2.56,2.56,0,0,1,67,98Z"/><path class="cls-1" d="M70.84,97.27a3.35,3.35,0,0,1,1.25.23,2.47,2.47,0,0,1,1,.63,2.78,2.78,0,0,1,.62,1,3.89,3.89,0,0,1,.21,1.32,4,4,0,0,1-.21,1.32,2.91,2.91,0,0,1-.62,1,2.59,2.59,0,0,1-1,.63,3.35,3.35,0,0,1-1.25.23,3.4,3.4,0,0,1-1.26-.23,2.63,2.63,0,0,1-1-.63,2.91,2.91,0,0,1-.62-1,3.73,3.73,0,0,1-.22-1.32A3.66,3.66,0,0,1,68,99.12a2.78,2.78,0,0,1,.62-1,2.51,2.51,0,0,1,1-.63A3.4,3.4,0,0,1,70.84,97.27Zm0,5.21A1.3,1.3,0,0,0,72,102a2.55,2.55,0,0,0,.37-1.51A2.58,2.58,0,0,0,72,98.93a1.27,1.27,0,0,0-1.13-.52,1.33,1.33,0,0,0-1.16.52,2.68,2.68,0,0,0-.37,1.52,2.65,2.65,0,0,0,.37,1.51A1.35,1.35,0,0,0,70.84,102.48Z"/><path class="cls-1" d="M75,103.53V97.37h.91a.36.36,0,0,1,.37.27l.11.49a2.57,2.57,0,0,1,.39-.35,2,2,0,0,1,.44-.27,2.05,2.05,0,0,1,.49-.18,2.65,2.65,0,0,1,.58-.06,2.11,2.11,0,0,1,.89.18,1.65,1.65,0,0,1,.65.48,2,2,0,0,1,.4.73,3.16,3.16,0,0,1,.13,1v3.92H78.91V99.61a1.31,1.31,0,0,0-.26-.87.94.94,0,0,0-.78-.31,1.47,1.47,0,0,0-.72.17,2.57,2.57,0,0,0-.64.47v4.46Z"/><path class="cls-1" d="M81.85,103.53V97.37h.91a.37.37,0,0,1,.38.27l.1.49a2.57,2.57,0,0,1,.39-.35,2,2,0,0,1,.44-.27,2.05,2.05,0,0,1,.49-.18,2.65,2.65,0,0,1,.58-.06,2.08,2.08,0,0,1,.89.18,1.76,1.76,0,0,1,.66.48,2.13,2.13,0,0,1,.39.73,3.16,3.16,0,0,1,.14,1v3.92H85.73V99.61a1.26,1.26,0,0,0-.26-.87.94.94,0,0,0-.78-.31,1.47,1.47,0,0,0-.72.17,2.77,2.77,0,0,0-.64.47v4.46Z"/><path class="cls-1" d="M91.22,97.27a3.08,3.08,0,0,1,1.07.19,2.29,2.29,0,0,1,.84.54,2.4,2.4,0,0,1,.55.88,3.14,3.14,0,0,1,.2,1.18,2.18,2.18,0,0,1,0,.28.38.38,0,0,1-.06.18.22.22,0,0,1-.1.09.44.44,0,0,1-.17,0h-3.8a2.09,2.09,0,0,0,.51,1.4,1.58,1.58,0,0,0,1.17.44,2.22,2.22,0,0,0,.62-.08,2.91,2.91,0,0,0,.46-.19l.34-.19a.63.63,0,0,1,.29-.08.24.24,0,0,1,.15,0,.28.28,0,0,1,.12.1l.43.54a2.75,2.75,0,0,1-.55.48,2.9,2.9,0,0,1-.64.31,3.22,3.22,0,0,1-.68.17,5.16,5.16,0,0,1-.67.05,3.27,3.27,0,0,1-1.19-.22,2.59,2.59,0,0,1-1-.63,2.84,2.84,0,0,1-.65-1,4.1,4.1,0,0,1-.23-1.42,3.58,3.58,0,0,1,.2-1.19,2.92,2.92,0,0,1,.59-1,2.62,2.62,0,0,1,.93-.66A3.08,3.08,0,0,1,91.22,97.27Zm0,1.07a1.41,1.41,0,0,0-1,.36,1.79,1.79,0,0,0-.46,1h2.78a1.91,1.91,0,0,0-.08-.54,1.22,1.22,0,0,0-.24-.45,1,1,0,0,0-.41-.3A1.26,1.26,0,0,0,91.25,98.34Zm2.08-3.59-1.48,1.57a.77.77,0,0,1-.22.17.7.7,0,0,1-.27,0h-.89l.85-1.46a.67.67,0,0,1,.21-.23.6.6,0,0,1,.36-.09Z"/><path class="cls-1" d="M97.63,97.27a3,3,0,0,1,1.07.19,2.42,2.42,0,0,1,.85.54,2.53,2.53,0,0,1,.55.88,3.36,3.36,0,0,1,.2,1.18,1.91,1.91,0,0,1,0,.28.56.56,0,0,1,0,.18.24.24,0,0,1-.11.09.42.42,0,0,1-.17,0h-3.8a2.09,2.09,0,0,0,.51,1.4,1.62,1.62,0,0,0,1.18.44,2.28,2.28,0,0,0,.62-.08,3.21,3.21,0,0,0,.45-.19l.34-.19a.67.67,0,0,1,.29-.08.29.29,0,0,1,.16,0,.26.26,0,0,1,.11.1l.43.54a2.5,2.5,0,0,1-.55.48,2.7,2.7,0,0,1-.64.31,3.22,3.22,0,0,1-.68.17,5.16,5.16,0,0,1-.67.05,3.31,3.31,0,0,1-1.19-.22,2.59,2.59,0,0,1-1-.63,2.82,2.82,0,0,1-.64-1,3.88,3.88,0,0,1-.24-1.42,3.35,3.35,0,0,1,.21-1.19,2.74,2.74,0,0,1,.58-1,2.81,2.81,0,0,1,.93-.66A3.08,3.08,0,0,1,97.63,97.27Zm0,1.07a1.37,1.37,0,0,0-1,.36,1.8,1.8,0,0,0-.47,1H99a1.9,1.9,0,0,0-.07-.54,1.61,1.61,0,0,0-.24-.45,1.12,1.12,0,0,0-.41-.3A1.34,1.34,0,0,0,97.66,98.34Z"/><rect class="cls-2" width="141.2" height="141.2" rx="70.6"/></g></g></svg>