<svg xmlns="http://www.w3.org/2000/svg" viewBox="0 0 141.2 141.2"><defs><style>.cls-1{fill:#414a64;}.cls-2{fill:none;}</style></defs><title>Arboriculture</title><g id="Layer_2" data-name="Layer 2"><g id="Layer_1-2" data-name="Layer 1"><path class="cls-1" d="M80.69,78.16a12.18,12.18,0,1,0,6.78-23.37,17,17,0,0,0-33.74,0,12.18,12.18,0,1,0,6.78,23.37,12.31,12.31,0,0,0,5.05,4.25L64.32,95.76H55.57V97.4H85.63V95.76H76.88L75.64,82.41A12.23,12.23,0,0,0,80.69,78.16Zm-5.21,2.53L75,74.92l2-2.75-1.32-1-2.17,3a.86.86,0,0,0-.16.56l1.95,21H66l2-21a.86.86,0,0,0-.16-.56l-2.17-3-1.32,1,2,2.75-.53,5.77a10.5,10.5,0,0,1-4.18-4,.81.81,0,0,0-.7-.39.85.85,0,0,0-.31.06,10.55,10.55,0,1,1-5.91-20.14.82.82,0,0,0,.66-.72,15.41,15.41,0,0,1,30.64,0,.82.82,0,0,0,.66.72,10.55,10.55,0,1,1-5.91,20.14.81.81,0,0,0-1,.33A10.5,10.5,0,0,1,75.48,80.69Z"/><rect class="cls-1" x="60.87" y="99.42" width="19.46" height="1.63"/><path class="cls-1" d="M56.7,64.13V61.31H55.07v2.82a3.33,3.33,0,1,0,1.63,0ZM55.88,69a1.69,1.69,0,1,1,1.69-1.69A1.69,1.69,0,0,1,55.88,69Z"/><path class="cls-1" d="M85.32,70.68a3.33,3.33,0,0,0,.81-6.55V61.31H84.5v2.82a3.33,3.33,0,0,0,.82,6.55Zm0-5a1.69,1.69,0,1,1-1.69,1.69A1.69,1.69,0,0,1,85.32,65.66Z"/><path class="cls-1" d="M71.42,64.13V61.31H69.78v2.82a3.32,3.32,0,1,0,1.64,0ZM70.6,69a1.69,1.69,0,1,1,1.69-1.69A1.69,1.69,0,0,1,70.6,69Z"/><path class="cls-1" d="M63.76,56.89V54.07H62.13v2.82a3.33,3.33,0,1,0,1.63,0ZM63,61.81a1.7,1.7,0,1,1,1.69-1.7A1.69,1.69,0,0,1,63,61.81Z"/><path class="cls-1" d="M81.58,60.11a3.33,3.33,0,0,0-2.51-3.22V54.07H77.44v2.82a3.33,3.33,0,1,0,4.14,3.22Zm-3.33,1.7a1.7,1.7,0,1,1,1.69-1.7A1.7,1.7,0,0,1,78.25,61.81Z"/><rect class="cls-2" width="141.2" height="141.2" rx="70.6"/></g></g></svg>