<svg xmlns="http://www.w3.org/2000/svg" viewBox="0 0 141.2 141.2"><defs><style>.cls-1{fill:#414a64;}.cls-2{fill:none;}</style></defs><title>Aviculture</title><g id="Layer_2" data-name="Layer 2"><g id="Layer_1-2" data-name="Layer 1"><path class="cls-1" d="M95.67,63.94a2.56,2.56,0,0,0-.76-1.83h0a2.58,2.58,0,0,0-3.67,0l-.1.11-.68.76v-.73a2.55,2.55,0,1,0-5.09,0v5.93H70.11a5.94,5.94,0,0,1-5.93-5.93V57.58A7.12,7.12,0,0,0,62.48,53V49.53A2.54,2.54,0,0,0,60,47a2.7,2.7,0,0,0-1,.19,2.53,2.53,0,0,0-4.89,0,2.54,2.54,0,0,0-3.3,1.39,2.7,2.7,0,0,0-.19,1v4.68a7.13,7.13,0,0,0-.51,1.25h-.33a4.25,4.25,0,0,0-4.24,4.24v.85h1.81A3.38,3.38,0,0,0,49.77,63v7.75a17.82,17.82,0,0,0,17.8,17.81v4.73l-1.45,1.45,1.2,1.2,2-1.94V88.53h3.39v4.73l-1.45,1.45,1.2,1.2L74.35,94V88.48a17.8,17.8,0,0,0,17-17.76V69.38l3.6-3.61A2.52,2.52,0,0,0,95.67,63.94ZM87.92,61.4a.85.85,0,0,1,.85.85v5.93h-1.7V62.25A.85.85,0,0,1,87.92,61.4Zm-28-12.72a.85.85,0,0,1,.85.85v1.94l-.17-.09c-.11-.07-.23-.12-.34-.18s-.39-.2-.59-.28l-.38-.14-.22-.09V49.53a.85.85,0,0,1,.85-.85Zm-4.24-.85a.85.85,0,0,1,1.7,0v2.55H55.7Zm-3.39,1.7a.85.85,0,0,1,.85-.85.84.84,0,0,1,.84.85V51l-.2.11a4.16,4.16,0,0,0-.42.23l-.47.29-.39.29-.21.16Zm-2.54,7.63v1.69h-2.4A2.55,2.55,0,0,1,49.77,57.16Zm-.62,3.39h.62v.62A1.68,1.68,0,0,1,49.15,60.55ZM89.61,70.72a16.12,16.12,0,0,1-16.1,16.11H67.57A16.13,16.13,0,0,1,51.46,70.72V57.58a5.53,5.53,0,0,1,3.68-5.19,5.47,5.47,0,0,1,2.92-.21h0a4.35,4.35,0,0,1,.78.23l.24.1.5.23.27.17.42.28.26.22.24.23v.13h.14a.3.3,0,0,1,.08.08h0a5.45,5.45,0,0,1,1.47,3.73v4.67a7.65,7.65,0,0,0,7.63,7.63h19.5Zm4.1-6.14-3.25,3.25v-2.3l2-2.18a.87.87,0,0,1,.65-.3.92.92,0,0,1,.66.26h0a.9.9,0,0,1,0,1.27h0Z"/><path class="cls-1" d="M55.7,55.46A2.55,2.55,0,1,0,58.24,58,2.55,2.55,0,0,0,55.7,55.46Zm0,3.39a.85.85,0,1,1,.85-.84A.85.85,0,0,1,55.7,58.85Z"/><path class="cls-1" d="M82.83,71.57H65a5.94,5.94,0,1,0,0,11.87h11a2.54,2.54,0,0,0,2.54-2.54,2.45,2.45,0,0,0-.15-.85h1A2.54,2.54,0,0,0,82,77.51a2.45,2.45,0,0,0-.15-.85h1a2.55,2.55,0,0,0,0-5.09Zm0,3.39H71v1.7h8.48a.85.85,0,1,1,0,1.69H71v1.7h5.09a.85.85,0,0,1,0,1.7H65a4.24,4.24,0,0,1,0-8.48h17.8a.85.85,0,1,1,0,1.69Z"/><rect class="cls-2" width="141.2" height="141.2" rx="70.6"/></g></g></svg>