<svg xmlns="http://www.w3.org/2000/svg" viewBox="0 0 141.2 141.2"><defs><style>.cls-1{fill:#414a64;}.cls-2{fill:none;}</style></defs><title>Cultures-tropicales</title><g id="Layer_2" data-name="Layer 2"><g id="Layer_1-2" data-name="Layer 1"><path class="cls-1" d="M87,81.22A26,26,0,0,1,69.44,87.8a30.64,30.64,0,0,1-7.73-1.11,1.15,1.15,0,0,0-.58,2.22h0a32.44,32.44,0,0,0,8.31,1.18,28.24,28.24,0,0,0,19.13-7.17,1.16,1.16,0,0,0,.08-1.63A1.15,1.15,0,0,0,87,81.22Z"/><path class="cls-1" d="M46.7,73.4a1.15,1.15,0,0,0,1.58.35,1.16,1.16,0,0,0,.35-1.59c-.3-.47-.57-1-.82-1.43a1.16,1.16,0,0,1,.28-1.46,1.1,1.1,0,0,1,1.42-.07c4.57,3.23,12.77,5.49,19.93,5.49,6.53,0,13.31-2.77,19.11-7.81a1.15,1.15,0,1,0-1.49-1.74h0c-5.38,4.67-11.64,7.24-17.61,7.24-6.63,0-14.45-2.13-18.6-5.06a3.47,3.47,0,0,0-5.07,4.44A16.61,16.61,0,0,0,46.7,73.4Z"/><path class="cls-1" d="M96.61,56.78a1.15,1.15,0,0,0,1.51-1.09V50a1.14,1.14,0,0,0-.9-1.12L86.9,46.55a1.15,1.15,0,0,0-1.37.87,2,2,0,0,0,0,.25V53.4a1.15,1.15,0,0,0,.89,1.12l2.55.56v2.38c-5.29,4.46-11.39,6.91-17.21,6.91-6.6,0-14.38-2.11-18.55-5a3.44,3.44,0,0,0-3.43-.42,3.5,3.5,0,0,0-1.8,4.6,2.14,2.14,0,0,0,.1.22c.28.54.59,1.09.93,1.62a1.14,1.14,0,0,0,1.93-1.23c-.29-.47-.57-1-.81-1.43a1.17,1.17,0,0,1,.27-1.47,1.13,1.13,0,0,1,1.43-.07c4.57,3.23,12.76,5.49,19.93,5.49,6.52,0,13.31-2.77,19.11-7.81a1.14,1.14,0,0,0,.39-.86V54.16a1.15,1.15,0,0,0-.9-1.12l-2.54-.56V49.1l8,1.78V54.1L95,53.84a1.15,1.15,0,0,0-1.45.73,1.09,1.09,0,0,0-.06.36V65a3.78,3.78,0,0,0-2.49,2c-4.33,8.28-13.71,13.63-23.89,13.63-6.6,0-14.37-2.11-18.54-5a3.45,3.45,0,0,0-3.43-.42,3.5,3.5,0,0,0-1.81,4.6l.1.22c4.35,8.53,15.76,14.73,27.12,14.73,15.18,0,27.53-11.65,27.53-26V68.6a3.68,3.68,0,0,0-2.29-3.45V56.52Zm-.78,11.93c0,13.06-11.32,23.68-25.24,23.68-10.38,0-21.16-5.8-25.07-13.48a1.17,1.17,0,0,1,.27-1.47,1.25,1.25,0,0,1,.76-.3,1.23,1.23,0,0,1,.67.23C51.79,80.6,60,82.86,67.15,82.86c11,0,21.2-5.83,25.92-14.86a1.52,1.52,0,0,1,1.69-.8c1.07.19,1.07,1.51,1.07,1.51Z"/><rect class="cls-2" width="141.2" height="141.2" rx="70.6"/></g></g></svg>