<svg xmlns="http://www.w3.org/2000/svg" viewBox="0 0 141.2 141.2"><defs><style>.cls-1{fill:#414a64;fill-rule:evenodd;}.cls-2{fill:none;}</style></defs><title>Elevage-caprin</title><g id="Layer_2" data-name="Layer 2"><g id="Layer_1-2" data-name="Layer 1"><path class="cls-1" d="M89.78,45.28a.53.53,0,0,1,.63.4l2.47,5.73,1.7.6a.59.59,0,0,1,.3.2L98,56.27l2.66,2.9a.63.63,0,0,1,.17.57.57.57,0,0,1-.33.47L96.78,62a.45.45,0,0,1-.5,0l-.44-.13-.13.37,1,.83a.59.59,0,0,1,.23.7l-.6,1.9a.62.62,0,0,1-.83.4.6.6,0,0,1-.43-.83l.46-1.47-1-.83a.68.68,0,0,1-.2-.8l.37-.74-1.5-.56L85,70.81l.07,4a.75.75,0,0,1-.2.47L80.48,79.6,79.15,95.3a.63.63,0,0,1-.2.46.67.67,0,0,1-.47.17H73.39a.64.64,0,0,1-.44-.2.54.54,0,0,1-.2-.43l-.8-14-5.53,1.4a.26.26,0,0,1-.27,0l-8.26-1.63-.37,1.17-.2.26-5.56,4.87-.53,7.93a.52.52,0,0,1-.21.43.63.63,0,0,1-.46.2H46.13a.61.61,0,0,1-.67-.63l-.9-9.93a.34.34,0,0,1,.07-.34l2.16-4.46-3-7.4a.75.75,0,0,1,0-.57l3.1-5.09-3.9.1a.65.65,0,0,1-.64-.44l-2-5.63a.55.55,0,0,1,.2-.7.57.57,0,0,1,.73-.07l7.27,4,1.8-3a.66.66,0,0,1,.59-.3l26.86.76,9.07-8-1.33-1.47a.6.6,0,0,1-.17-.63.62.62,0,0,1,.5-.43l4.6-1.1a.46.46,0,0,1,.4,0l.23.1-1.8-4.1-3.2.17v1.5l1.2,0,.07-.56a.56.56,0,0,1,.2-.44.69.69,0,0,1,.5-.13.84.84,0,0,1,.46.2.57.57,0,0,1,.14.47l-.1,1.2c0,.37-.22.57-.67.6l-2.46,0a.61.61,0,0,1-.64-.66l0-2.8a.53.53,0,0,1,.17-.47.65.65,0,0,1,.46-.2Zm-2.43,7.4,1,1.13a.46.46,0,0,1,.17.46.65.65,0,0,1-.2.47l-9.77,8.6a.45.45,0,0,1-.46.17l-26.73-.77-2,3.2a.68.68,0,0,1-.37.3.66.66,0,0,1-.5-.07l-6.3-3.43,1.23,3.53,4.6-.1a.67.67,0,0,1,.6.3.78.78,0,0,1,0,.7L45.13,73l3,7.36a.63.63,0,0,1,0,.54l-2.2,4.56.87,9.17H48l.1-8a.82.82,0,0,1,.17-.47l5.33-5.3,1.13-4.49a.59.59,0,0,1,.34-.4.66.66,0,0,1,.5-.07.59.59,0,0,1,.4.33.67.67,0,0,1,.06.5l-.7,2.57a.76.76,0,0,1,.3,0L66.25,81.4l8.43-2.16v-2.1a.56.56,0,0,1,.17-.47.66.66,0,0,1,.43-.23h0a.52.52,0,0,1,.43.2.78.78,0,0,1,.23.46l.14,17.5h1.76l1.33-15.33a.76.76,0,0,1,.17-.43l4.33-4.34,0-3.9a.54.54,0,0,1,.13-.43l8.6-10.46a.64.64,0,0,1,.77-.2l2.56,1h0l.66.26,2.67-1.33-5.17-6.26-1.76-.67h-.07l-1.47-.6ZM73.22,81,74,94.6h.8l-.1-14Zm-16.93.66.3-.83-1.2-.27-.33-.16-.27,1-.17.3L49.36,86.9l-.07,7.7H50l.53-7.6a.6.6,0,0,1,.2-.43Z"/><rect class="cls-2" width="141.2" height="141.2" rx="70.6"/></g></g></svg>