<svg xmlns="http://www.w3.org/2000/svg" viewBox="0 0 141.2 141.2"><defs><style>.cls-1{fill:#414a64;}.cls-2{fill:none;}</style></defs><title>Elevage-bovin</title><g id="Layer_2" data-name="Layer 2"><g id="Layer_1-2" data-name="Layer 1"><path class="cls-1" d="M103.58,74.34a1.05,1.05,0,0,1,.07-.63l.13-.33a2.17,2.17,0,0,0-.11-1.89l-.46-.78,1.26-2.12a1.35,1.35,0,0,0-.47-1.86,1.26,1.26,0,0,0-.71-.19h0a8.08,8.08,0,0,0-3.91,1.54.92.92,0,0,0-.2,1.28,1,1,0,0,0,.61.36.93.93,0,0,0,.67-.17,7,7,0,0,1,1.91-1l-1,1.65a.94.94,0,0,0,0,.93l.72,1.25a.29.29,0,0,1,0,.27L102,73a3,3,0,0,0-.19,1.64l1.08,6.13a.32.32,0,0,1-.15.32l-1.1.62a.3.3,0,0,1-.36,0,1,1,0,0,0-.25-.17,14,14,0,0,1-4.08-2.81,18.23,18.23,0,0,1-2.52-3.23,8.59,8.59,0,0,1-1-4.12.92.92,0,0,0-.91-.92h0a.91.91,0,0,0-.91.9,9.82,9.82,0,0,0,.29,2.47l-6.17-.23h-.12a2,2,0,0,0-1.78,1.2l-1.75,4a.88.88,0,0,0-.07.32l-.45,11H79.41L78,76.87a.85.85,0,0,0-.18-.46l-2.43-3.24a3,3,0,0,0-2.29-1.07h-16a3.34,3.34,0,0,0-2.12.76l-8.15,6.75a.91.91,0,0,0-.34.7v9.78H44.22V76.57a1.77,1.77,0,0,1,.25-.9l3.29-5.43a.9.9,0,0,0,.12-.64L45.88,59a2,2,0,0,1,0-.8l1.55-6.76a8.56,8.56,0,0,1,3.63-.29h.13c4.57,0,16.76,0,24,0h5.43a2.9,2.9,0,0,1,2.59,1.21l13,15.38a.89.89,0,0,0,.64.32l1,.06h.06a.88.88,0,0,0,.83-.55,3.85,3.85,0,0,1,1.15-1.5.9.9,0,0,0,.61.24.92.92,0,0,0,.91-.92,1.36,1.36,0,0,0-1.36-1.36,1.29,1.29,0,0,0-.72.21,5.75,5.75,0,0,0-2,2h0L84.65,51.22a4.63,4.63,0,0,0-4.06-1.85H51.27a10.64,10.64,0,0,0-9.5,3.7c-2,2.57-2.28,5.51-2.28,8a18.17,18.17,0,0,1-.14,2.55l-.46.34-.06,0a6.34,6.34,0,0,0-2,2.87,5.73,5.73,0,0,0-.23,2.63,6.94,6.94,0,0,0,.2,1v0c0,.19.09.39.12.58a1.2,1.2,0,0,0,.74,1,1.28,1.28,0,0,0,.39.07,2.08,2.08,0,0,0,1.26-.6,3.42,3.42,0,0,1,.61-.37,5.26,5.26,0,0,0,.9-.57A5.87,5.87,0,0,0,42.69,67a.91.91,0,0,0-1.81-.26h0a4.07,4.07,0,0,1-1.24,2.57,3.3,3.3,0,0,1-.57.34c-.16.09-.36.19-.56.32a3.82,3.82,0,0,1-.11-.57,3.87,3.87,0,0,1,.13-1.82,4.51,4.51,0,0,1,1.35-2c.27-.2.53-.4.8-.57a.92.92,0,0,0,.41-.6,18.71,18.71,0,0,0,.23-3.25,10.7,10.7,0,0,1,1.89-6.92,7.46,7.46,0,0,1,2.15-1.84l-1.25,5.47a3.64,3.64,0,0,0,0,1.54L46,69.6l-3.11,5.13a3.51,3.51,0,0,0-.52,1.84V90.46a1.47,1.47,0,0,0,1.47,1.46h3a1.46,1.46,0,0,0,1.46-1.46V80.74l2.23-1.85,3.78,10.44a1.33,1.33,0,0,0,1.23.87h2.62a1.31,1.31,0,0,0,1.27-1.64l-2.35-9,3.85-5.66h9.23L67.65,88.67a1.31,1.31,0,0,0,1.06,1.51l.23,0h2.92a1.32,1.32,0,0,0,1.24-.88l3.39-9.72,1.14,11.09a1.24,1.24,0,0,0,.36.83,1.39,1.39,0,0,0,1,.4h3a1.32,1.32,0,0,0,1.32-1.32l.46-11.26,1.68-3.85a.18.18,0,0,1,.16-.1l6.77.26.23.37c0,.08.1.15.14.23a12.84,12.84,0,0,0,3,3.79,15.79,15.79,0,0,0,4.41,3.06,2.15,2.15,0,0,0,2.42.21l1.1-.62a2.15,2.15,0,0,0,1.05-2.22ZM75.64,76.49s0,0,0,0L71.49,88.37H69.55L72,73.92h1.12a1.17,1.17,0,0,1,.87.4ZM55.35,78.9a.88.88,0,0,0-.13.74l2.28,8.73H55.92L52.05,77.68s0,0,0,0l4.1-3.39a1.43,1.43,0,0,1,1-.35h1.64Z"/><rect class="cls-2" width="141.2" height="141.2" rx="70.6"/></g></g></svg>