<svg xmlns="http://www.w3.org/2000/svg" viewBox="0 0 141.2 141.2"><defs><style>.cls-1{fill:#414a64;}.cls-2{fill:none;}</style></defs><title>Elevage-equin</title><g id="Layer_2" data-name="Layer 2"><g id="Layer_1-2" data-name="Layer 1"><path class="cls-1" d="M100.55,81.17c-.62-.48-.64-1.85-.72-3.57a22.27,22.27,0,0,0-1.06-7.25c-2-5.82-8.07-5.78-11.47-4.85-2.25-4.17-9.09-4.34-18.1-4h-.65a14.09,14.09,0,0,1-4.18-.6c3.2-.76,3.79-3.81,4.17-5.81a11.18,11.18,0,0,1,.32-1.39l.63-1.8-1.66.94c-1.66,1-2.48.93-8.65-5.82-5.44-5.95-13.06-3.52-15.27-2.64-.69-.9-2.2-1.9-4.78-1.15l-1,.3.67.84c1.6,2,1.31,3.1.88,4.78a11.87,11.87,0,0,0-.47,2.9,49.64,49.64,0,0,1-1.09,8,2.15,2.15,0,0,0,.07,1.87c.55.93,1.82,1.13,3.34,1.37a3.26,3.26,0,0,0,2.63-.6A4.89,4.89,0,0,0,45.69,59a2.79,2.79,0,0,1,2.14-2.37c.29,0,.3.06.32.09a15,15,0,0,1,0,5.66,21.17,21.17,0,0,0-.07,6.6c-2.15.24-8.2,1.1-10.94,3.57L37,72.8l-.05.37C35.6,85,39.54,88.84,43.08,89.93l.49.15.3-.42a9,9,0,0,0,1.61-4.19l.08-.81-.81,0a1.55,1.55,0,0,1-1-.28s-.14-.15-.08-.52l.13-.86-.87,0c-.13,0-.35-.16-.56-.45a8.61,8.61,0,0,1-.94-5.34c.47,0,1.13.08,1.86.15a31.92,31.92,0,0,0,7.81.07C55.7,87.51,56.33,92,56,93.16c-2.3,1-2.6,3.84-2.62,4l-.08.79h5.26l-.06-.77c0-.47,1.15-1.56,2.24-2.23l.41-.25L61,94.18a125.31,125.31,0,0,1-1.71-14.75,23.92,23.92,0,0,0,6.46,1,11.69,11.69,0,0,0,4.6-.84,20.44,20.44,0,0,0,2,6.63c-2.5,2.37-5.07,10.1-5.36,11.07l-.3.93h7.66l-.45-4.51,5-5.72v-.24a12,12,0,0,1,1.5-5.28c5.42,2,6.29,8.73,6.42,10.57-1.63,1-2.22,4-2.3,4.36l-.15.84h6.06l.13-.49c.39-1.09,1.1-2.37,1.56-2.54l.92-.35-.6-.76c-1.43-1.84-1.56-5.55-1.65-8.26a20.63,20.63,0,0,0-.14-2.49l0-.3-.24-.18c-2.29-1.69-2.46-7.19-2.34-9.34a19.48,19.48,0,0,0,.18-4.45c3.07,1.39,3.07,4.15,3.07,7.57a19,19,0,0,0,.88,6.9,5.38,5.38,0,0,0,5.19,3.67,7.59,7.59,0,0,0,1-.07c3.11-.43,5.93-2.86,6.15-5.23l.1-1-1,.24C102.05,81.53,101,81.53,100.55,81.17ZM58.13,48c5,5.53,7,7.14,9,6.67v.16c-.49,2.5-1,5.34-5.6,4.74-3.37-2.17-5.19-5.79-6.73-9-.36-.71-.71-1.38-1-2a7.88,7.88,0,0,0-5.64-3.93A10.8,10.8,0,0,1,58.13,48ZM43.41,76a19.62,19.62,0,0,0-2.55-.16h-.43l-.17.4c-.76,1.74-.29,5.42.91,7.14a2.52,2.52,0,0,0,1,.92,1.88,1.88,0,0,0,.48,1.07,2.38,2.38,0,0,0,1.28.67A7.89,7.89,0,0,1,43,88.39c-4-1.57-5.59-6.7-4.71-14.92,2.56-2.15,8.19-2.86,10.06-3.08a28.82,28.82,0,0,0,2.07,5.75A34.52,34.52,0,0,1,43.41,76ZM77.47,87.44l-5.06,5.8.36,3.57H68.64c1.26-3.65,3.48-8.87,5-9.77l.71-.41L73.87,86c-.88-1.17-3.12-7.52-1.61-9.89l-1.19-.78a5.4,5.4,0,0,0-.72,2.74c-3.57,1.89-9.08.47-10.86-.07a24.63,24.63,0,0,0,.86-4.25l-1.43-.12a22.22,22.22,0,0,1-.83,4c-.71,2.39,1,13.57,1.49,16.28a6.31,6.31,0,0,0-2.38,2.52H55a3.09,3.09,0,0,1,1.79-2.08L57,94.3l.14-.22c1.73-2.86-3.16-13.86-5.34-18.46-3-6.42-2.6-9.78-2.19-13a16.17,16.17,0,0,0-.06-6.2,1.61,1.61,0,0,0-1.83-1.14,4.18,4.18,0,0,0-3.44,3.69,3.68,3.68,0,0,1-1,2.59,1.88,1.88,0,0,1-1.52.31c-1-.15-2.1-.33-2.31-.71-.1-.17,0-.52.06-.72v-.07A50.42,50.42,0,0,0,40.61,52,10.71,10.71,0,0,1,41,49.47c.4-1.56.79-3.06-.48-5.1a2.14,2.14,0,0,1,2.37,1.15l.21.57.59-.11c.07,0,6.43-1.11,8.81,3.3.33.6.66,1.26,1,2,2.52,5.07,6,12,15.71,11.66,11.55-.42,17.14.32,17.49,5.67.45,6.37-1,8.25-4.72,10.28-4,2.2-4.49,7.34-4.56,8.59Zm11.8-3.63c0,.55.08,1.26.1,2.06.09,2.66.21,6.21,1.53,8.48a7.56,7.56,0,0,0-1.49,2.44H86.1c.34-1.18.94-2.45,1.59-2.61l.54-.14v-.58c0-.1-.09-9.4-7-12.22a5.55,5.55,0,0,1,1.43-1.11,11.3,11.3,0,0,0,4-3.24c.22,2.4.85,5.39,2.61,6.91Zm8.84,1.93a4,4,0,0,1-4.6-2.7,17.44,17.44,0,0,1-.78-6.42c0-3.72,0-7.54-4.68-9.19,0-.21-.09-.41-.14-.61,2-.49,7.69-1.42,9.58,4a20.94,20.94,0,0,1,1,6.8c0,2.14.09,3.78,1.24,4.67a3.74,3.74,0,0,0,3,.48,6.4,6.4,0,0,1-4.64,3Z"/><circle class="cls-1" cx="43.33" cy="51.41" r="0.78"/><path class="cls-1" d="M71.72,73.87l1.36.43a3.77,3.77,0,0,1,1.74-2.14l-.55-1.31A5.15,5.15,0,0,0,71.72,73.87Z"/><path class="cls-1" d="M83.65,66.63c1,1.43.66,2.23.66,2.24l1.29.61c.07-.15.66-1.56-.77-3.65-1.72-2.53-7.9-2.31-8.57-2.28L76.32,65C78.63,64.9,82.69,65.23,83.65,66.63Z"/><rect class="cls-2" width="141.2" height="141.2" rx="70.6"/></g></g></svg>