<svg xmlns="http://www.w3.org/2000/svg" viewBox="0 0 141.2 141.2"><defs><style>.cls-1{fill:#414a64;}.cls-2{fill:none;}</style></defs><title>Elevage-ovin</title><g id="Layer_2" data-name="Layer 2"><g id="Layer_1-2" data-name="Layer 1"><path class="cls-1" d="M98.28,67.23A4,4,0,0,0,96,63.74a3.56,3.56,0,0,0,.27-1.37,4.32,4.32,0,0,0-4.25-4,4.39,4.39,0,0,0-4.63-3.94,5.62,5.62,0,0,0-1.54.22,4.59,4.59,0,0,0-4.43-2.85,5.06,5.06,0,0,0-3.15,1.07,5,5,0,0,0-8,0,5.06,5.06,0,0,0-3.15-1.07,4.62,4.62,0,0,0-4.29,2.57,3.7,3.7,0,0,0-2.31-2.08c0-1.71-1.79-2.82-4.48-2.82-2,0-4.44.74-4.49,2.82a3.55,3.55,0,0,0-2.41,2.43c-1.42,0-4.56.41-6.06,2.66A.73.73,0,0,0,43,58a.78.78,0,0,0,.42.5,24.14,24.14,0,0,0,4.52,1.57c.3,1.75,1.38,6.88,4.19,9.66a6,6,0,0,1-.4.46,3.72,3.72,0,0,0-.76,2.22,4.13,4.13,0,0,0,3.24,3.87,3.73,3.73,0,0,0,0,.57,4.38,4.38,0,0,0,4.63,4.07c.2,0,.41,0,.61,0a3.71,3.71,0,0,0,.51,1.25c-.11.91-.4,3.43-.56,5.12-.2,2.15-.39,4.17,1.63,4.49a3,3,0,0,0,.5,0,1.85,1.85,0,0,0,1.42-.58,2.32,2.32,0,0,0,1.17.54,2.72,2.72,0,0,0,.49,0c1.36,0,2.35-1.18,2.94-3.5.17-.68.4-1.7.65-2.84a5.1,5.1,0,0,0,2.45.63,4.89,4.89,0,0,0,3.7-1.61A4.86,4.86,0,0,0,78,86.06a4.78,4.78,0,0,0,4-2c.19,1.08.64,3.69.92,5.28a2.86,2.86,0,0,0,1.35,2.15,2.53,2.53,0,0,0,2.07.16,2.72,2.72,0,0,0,.84-.55,2.13,2.13,0,0,0,1.67.7c2.57,0,3.08-1.79,3.08-4.69V80.44a4,4,0,0,0,2.51-3.61,3.64,3.64,0,0,0,0-.57,4.13,4.13,0,0,0,3.23-3.86,3.73,3.73,0,0,0-.76-2.23A3.81,3.81,0,0,0,98.28,67.23ZM52.51,53.61a.8.8,0,0,0,.52-.34.77.77,0,0,0,.1-.61,1.56,1.56,0,0,1,0-.35c0-1,1.74-1.32,2.92-1.32s2.92.36,2.92,1.32a1.18,1.18,0,0,1,0,.35.78.78,0,0,0,.63,1c1.12.19,2,1,1.92,1.74s-1.1,1.33-2.27,1.19a1.58,1.58,0,0,0-1.11.46A2.9,2.9,0,0,1,54,57a1.69,1.69,0,0,0-1-.47h-.11c-1.18.15-2.2-.41-2.27-1.19S51.38,53.8,52.51,53.61Zm-3.16,5.64a.78.78,0,0,0-.72-.67A15.15,15.15,0,0,1,45,57.49a7.43,7.43,0,0,1,4.22-1.26,3.48,3.48,0,0,0,3.62,1.88l.18.13a4.75,4.75,0,0,0,3,1.16,4.8,4.8,0,0,0,3-1.16l.18-.13a3.47,3.47,0,0,0,3.61-1.88A7.48,7.48,0,0,1,67,57.49a15.28,15.28,0,0,1-3.62,1.09.78.78,0,0,0-.72.67c0,.11-1.44,10.5-6.63,10.75C50.79,69.76,49.36,59.36,49.35,59.25ZM61.19,90.18c-.33-.05-.58-.09-.33-2.81.11-1.17.29-2.74.42-3.9a4.37,4.37,0,0,0,1.07.5c-.06.63-.11,1.21-.15,1.69l0,.41a17.31,17.31,0,0,0-.08,3.4C61.75,90.26,61.61,90.25,61.19,90.18ZM66,87.89c-.42,1.65-1,2.42-1.63,2.3s-.85-.94-.6-4l0-.41c0-.44.09-1,.14-1.57h0a5.18,5.18,0,0,0,2.39-.58,4,4,0,0,0,.44.66C66.45,85.73,66.15,87.08,66,87.89Zm19.79,2.27a1,1,0,0,1-.74-.07A1.41,1.41,0,0,1,84.42,89c-.25-1.43-.64-3.7-.85-4.92a5.69,5.69,0,0,0,1,.11,6.49,6.49,0,0,0,.78-.06c.14,1.06.27,2,.38,2.59l.08.44a17.65,17.65,0,0,0,.54,2.42A1.63,1.63,0,0,1,85.74,90.16Zm4.59-3.09c0,3.13-.63,3.13-1.52,3.13s-1-1-1.45-3.29l-.08-.43c-.11-.62-.25-1.63-.4-2.79a4.14,4.14,0,0,0,2.28-2.83,6,6,0,0,0,.61,0,5.09,5.09,0,0,0,.56,0v6.21Zm5-17.73a.78.78,0,0,0-.14,1.3A2.26,2.26,0,0,1,96,72.4a2.75,2.75,0,0,1-2.74,2.48.75.75,0,0,0-.6.38.8.8,0,0,0,0,.72,2,2,0,0,1,.2.85,2.84,2.84,0,0,1-3.08,2.51,3.77,3.77,0,0,1-1.1-.17.78.78,0,0,0-.73.14.77.77,0,0,0-.28.68,1,1,0,0,1,0,.17,2.84,2.84,0,0,1-3.08,2.5,3.43,3.43,0,0,1-2.28-.83.77.77,0,0,0-.79-.16.78.78,0,0,0-.5.62A2.94,2.94,0,0,1,78,84.5a3.06,3.06,0,0,1-3-1.84.78.78,0,0,0-1.48,0,3.06,3.06,0,0,1-3,1.84,2.92,2.92,0,0,1-3-2.21.78.78,0,0,0-1.3-.46,3.41,3.41,0,0,1-2.28.83,2.84,2.84,0,0,1-3.08-2.5c0-.06,0-.12,0-.18a.78.78,0,0,0-.29-.68.77.77,0,0,0-.72-.13,3.72,3.72,0,0,1-1.1.17,2.84,2.84,0,0,1-3.07-2.51,2,2,0,0,1,.19-.85.8.8,0,0,0,0-.72.76.76,0,0,0-.6-.38,2.75,2.75,0,0,1-2.74-2.49,2.23,2.23,0,0,1,.83-1.69,5.67,5.67,0,0,0,2.72.86c5.78-.27,7.67-9.09,8.09-11.51a24.43,24.43,0,0,0,4.52-1.57A.79.79,0,0,0,69,57.34a6.64,6.64,0,0,0-4.67-2.53,3.16,3.16,0,0,1,2.79-1.49,3.21,3.21,0,0,1,2.73,1.35.79.79,0,0,0,.79.34.78.78,0,0,0,.63-.6c0-.08,0-.17.07-.26a3.33,3.33,0,0,1,5.9,0,1.53,1.53,0,0,1,.08.26.77.77,0,0,0,.62.6.79.79,0,0,0,.79-.34,3.22,3.22,0,0,1,2.73-1.35,2.87,2.87,0,0,1,3.07,2.42.76.76,0,0,0,.4.64.76.76,0,0,0,.76,0A3.57,3.57,0,0,1,87.4,56a2.84,2.84,0,0,1,3.08,2.49,2,2,0,0,1-.07.49.8.8,0,0,0,.17.7.82.82,0,0,0,.67.27l.39,0a2.84,2.84,0,0,1,3.08,2.5,2.09,2.09,0,0,1-.45,1.29.81.81,0,0,0-.12.72.78.78,0,0,0,.53.5,2.6,2.6,0,0,1,2,2.35A2.42,2.42,0,0,1,95.28,69.34Z"/><rect class="cls-2" width="141.2" height="141.2" rx="70.6"/></g></g></svg>