<svg xmlns="http://www.w3.org/2000/svg" viewBox="0 0 141.2 141.2"><defs><style>.cls-1{fill:#414a64;}.cls-2{fill:none;}</style></defs><title>Elevage-porcin</title><g id="Layer_2" data-name="Layer 2"><g id="Layer_1-2" data-name="Layer 1"><path class="cls-1" d="M97.75,70.49a10.59,10.59,0,0,1-2.2-1.59,8.49,8.49,0,0,0-.94-.74A8.39,8.39,0,0,1,93.9,66h0a9,9,0,0,0,1.64-4,.63.63,0,0,0-.19-.55.65.65,0,0,0-.56-.17,8.31,8.31,0,0,0-3.13,1.3.62.62,0,0,0-.35-.3c-.58-.2-14.4-5-23.07-5.46l-1.52-.08c-2.72-.14-5.52-.29-8.3-.23s-6.24.14-8.68,2.14a8.32,8.32,0,0,0-1.63,1.86,4.6,4.6,0,0,1-.58-.16l.06-.11,0-.09a1.79,1.79,0,0,0-.17-2.43,1.87,1.87,0,0,0-1.85-.5,2.06,2.06,0,0,0-1.24,1.58,1.61,1.61,0,0,0,.23,1.26,2.75,2.75,0,0,0,.88.81,1.57,1.57,0,0,1-.25.2,1.45,1.45,0,0,1-1.48.09.66.66,0,0,0-.87.32.65.65,0,0,0,.32.86,2.84,2.84,0,0,0,1.24.28A2.62,2.62,0,0,0,46,62.13a4.35,4.35,0,0,0,.74-.67c.26.1.51.17.72.23a13,13,0,0,0-1.21,5.46c0,1.26.25,5.28,2.91,6.67-.11.86-.32,2.55-.32,3.07a6,6,0,0,0,.43,1.94,6.59,6.59,0,0,1,.35,1.29,18.12,18.12,0,0,0,.77,4,.65.65,0,0,0,.62.45.78.78,0,0,0,.21,0,.65.65,0,0,0,.4-.83A17,17,0,0,1,50.91,80a7.39,7.39,0,0,0-.41-1.57,4.84,4.84,0,0,1-.36-1.52c0-.44.22-2.27.37-3.38a.64.64,0,0,0-.42-.7c-2.33-.84-2.53-4.55-2.54-5.66,0-2.41.92-5.78,3-7.5s5.3-1.78,7.88-1.84,5.51.09,8.2.23l1.52.08c7.94.4,20.76,4.72,22.51,5.32a4.78,4.78,0,0,0-1.07,1.87.65.65,0,1,0,1.24.37A4.81,4.81,0,0,1,94,62.83c-.31,1.12-1,2.82-2.36,3.24a.65.65,0,0,0,.19,1.27l.19,0a3.12,3.12,0,0,0,.74-.34c.33,1.29.71,2.06,1.14,2.3.11.06.48.38.78.63A12.65,12.65,0,0,0,97,71.6a2.54,2.54,0,0,1-.32,1.13,4.34,4.34,0,0,1-.94.13,7,7,0,0,0-1.35.2l-.41.12c-.62.2-1.21.39-4.35.39-2.44,0-3-.32-3.9-.9l-.32-.19a.65.65,0,0,0-.67,1.12l.13.08a10.83,10.83,0,0,1-1.65.2c.28-.58.57-1.16.87-1.73A.65.65,0,0,0,83,71.54c-.34.66-.68,1.32-1,2a12.74,12.74,0,0,0-1,3.33c-.05.29-.12.58-.19.87a7.44,7.44,0,0,0-.27,2.87,6,6,0,0,0,1.17,2.64H81a.65.65,0,0,0,0,1.3h2.1a.75.75,0,0,0,.26-.05l0,0a.66.66,0,0,0,.17-.12s0,0,0,0a.2.2,0,0,0,0-.08l.07-.11a.77.77,0,0,0,0-.15.19.19,0,0,0,0-.08v0a.8.8,0,0,0,0-.15.32.32,0,0,0,0-.09.33.33,0,0,0-.06-.1,1,1,0,0,0-.08-.11h0a5.34,5.34,0,0,1-1.79-3A6.31,6.31,0,0,1,82,78c.07-.32.14-.63.2-.94a13.46,13.46,0,0,1,.51-1.92l.36,0a18.2,18.2,0,0,0,3.51-.54.71.71,0,0,0,.15-.08,10.39,10.39,0,0,0,2.93.3c3.34,0,4-.22,4.75-.45l.35-.1a5,5,0,0,1,1.1-.16A6.68,6.68,0,0,0,97,74c1.21-.31,1.33-2.26,1.34-2.85A.64.64,0,0,0,97.75,70.49Zm-51.25-11-.06.1-.12.22a1.71,1.71,0,0,1-.62-.5.28.28,0,0,1-.05-.25c.09-.38.26-.6.39-.64h.06a1,1,0,0,1,.54.27C46.78,58.84,46.83,58.92,46.5,59.53Z"/><path class="cls-1" d="M79,81.48a20.68,20.68,0,0,0-1.78-5,7.91,7.91,0,0,1-.93-5.22A.65.65,0,0,0,75,71.13a11.82,11.82,0,0,0,.1,3.45c-2.41.42-11.28,1.74-17.89-.23q.51-.63,1-1.2a.64.64,0,0,0,0-.92.66.66,0,0,0-.92,0,35.11,35.11,0,0,0-3.93,5.33c-1.22,2-.5,3.9.3,5.64h-.82a.65.65,0,1,0,0,1.3h1.84a.65.65,0,0,0,.55-.3.63.63,0,0,0,0-.62l-.2-.44c-.8-1.71-1.57-3.34-.6-4.9.63-1,1.27-2,1.91-2.84a31,31,0,0,0,9.41,1.28,57.2,57.2,0,0,0,9.68-.88,6.68,6.68,0,0,0,.69,1.36,20,20,0,0,1,1.58,4.54,12.44,12.44,0,0,0,.87,2.59.63.63,0,0,0,.58.37.67.67,0,0,0,.28-.06.64.64,0,0,0,.31-.87A11.85,11.85,0,0,1,79,81.48Z"/><circle class="cls-1" cx="91.82" cy="68.69" r="0.75"/><rect class="cls-2" width="141.2" height="141.2" rx="70.6"/></g></g></svg>