<svg xmlns="http://www.w3.org/2000/svg" viewBox="0 0 141.2 141.2"><defs><style>.cls-1{fill:#414a64;}.cls-2{fill:none;}</style></defs><title>Grandes-cultures</title><g id="Layer_2" data-name="Layer 2"><g id="Layer_1-2" data-name="Layer 1"><path class="cls-1" d="M93.27,87.59H87.6v-3a2.79,2.79,0,0,0,1.18.23,7,7,0,0,0,2.86-.68c.9-.51,1.94-2.52,2.35-3.36a.8.8,0,0,0-.65-1.15c-.93-.09-3.19-.23-4.09.28a6.64,6.64,0,0,0-1.65,1.51v-2.1a3,3,0,0,0,1.18.22,7,7,0,0,0,2.86-.68c.9-.51,1.94-2.52,2.35-3.35a.8.8,0,0,0,0-.75.81.81,0,0,0-.63-.41c-.93-.09-3.19-.23-4.09.28a6.64,6.64,0,0,0-1.65,1.51V74a3,3,0,0,0,1.18.22,7,7,0,0,0,2.86-.68C92.54,73,93.58,71,94,70.18a.8.8,0,0,0,0-.75.83.83,0,0,0-.63-.41c-.93-.08-3.19-.22-4.09.28a6.7,6.7,0,0,0-1.65,1.52V68.71a2.79,2.79,0,0,0,1.18.23,7,7,0,0,0,2.86-.68c.9-.51,1.94-2.52,2.35-3.36a.8.8,0,0,0,0-.75.83.83,0,0,0-.63-.41c-.93-.08-3.19-.22-4.09.29a6.45,6.45,0,0,0-1.65,1.51v-2.1a3,3,0,0,0,1.18.22A7,7,0,0,0,91.64,63c.9-.51,1.94-2.52,2.35-3.35a.8.8,0,0,0,0-.75.79.79,0,0,0-.63-.41c-.93-.09-3.19-.23-4.09.28a6.64,6.64,0,0,0-1.65,1.51v-.49c1.1-.78,1.62-3,1.62-3.75,0-1-1.23-2.93-1.76-3.7a.86.86,0,0,0-1.34,0c-.53.77-1.76,2.67-1.76,3.7,0,.77.52,3,1.62,3.75v.49a6.64,6.64,0,0,0-1.65-1.51c-.9-.51-3.16-.37-4.09-.28a.8.8,0,0,0-.65,1.15c.4.84,1.45,2.85,2.35,3.36a7,7,0,0,0,2.86.68A2.79,2.79,0,0,0,86,63.43v2.11A6.51,6.51,0,0,0,84.33,64c-.9-.5-3.16-.36-4.09-.28a.83.83,0,0,0-.63.41.8.8,0,0,0,0,.75c.4.84,1.45,2.84,2.35,3.35a7,7,0,0,0,2.86.68A3,3,0,0,0,86,68.71v2.1a6.64,6.64,0,0,0-1.65-1.51c-.9-.51-3.16-.37-4.09-.28a.79.79,0,0,0-.63.41.8.8,0,0,0,0,.75C80,71,81,73,81.94,73.53a7,7,0,0,0,2.86.68A2.79,2.79,0,0,0,86,74v2.11a6.45,6.45,0,0,0-1.65-1.51c-.9-.51-3.16-.37-4.09-.29a.83.83,0,0,0-.63.41.8.8,0,0,0,0,.75c.4.84,1.45,2.85,2.35,3.35a7,7,0,0,0,2.86.68A3,3,0,0,0,86,79.26v2.1a6.64,6.64,0,0,0-1.65-1.51c-.9-.5-3.16-.36-4.09-.28a.81.81,0,0,0-.63.41.8.8,0,0,0,0,.75c.4.84,1.45,2.84,2.35,3.35a7,7,0,0,0,2.86.68A3,3,0,0,0,86,84.54v3H71.41v-3a2.79,2.79,0,0,0,1.18.23,7,7,0,0,0,2.86-.68c.9-.51,1.94-2.52,2.35-3.36a.8.8,0,0,0-.65-1.15c-.93-.09-3.19-.23-4.09.28a6.64,6.64,0,0,0-1.65,1.51v-2.1a3,3,0,0,0,1.18.22,7,7,0,0,0,2.86-.68c.9-.51,1.94-2.52,2.35-3.35a.8.8,0,0,0,0-.75.81.81,0,0,0-.63-.41c-.93-.09-3.19-.23-4.09.28a6.64,6.64,0,0,0-1.65,1.51V74a3,3,0,0,0,1.18.22,7,7,0,0,0,2.86-.68c.9-.51,1.94-2.51,2.35-3.35a.8.8,0,0,0,0-.75.83.83,0,0,0-.63-.41c-.93-.08-3.19-.22-4.09.28a6.7,6.7,0,0,0-1.65,1.52V68.71a2.79,2.79,0,0,0,1.18.23,7,7,0,0,0,2.86-.68c.9-.51,1.94-2.52,2.35-3.36a.8.8,0,0,0,0-.75.83.83,0,0,0-.63-.41c-.93-.08-3.19-.22-4.09.29a6.45,6.45,0,0,0-1.65,1.51v-2.1a3,3,0,0,0,1.18.22A7,7,0,0,0,75.45,63c.9-.51,1.94-2.52,2.35-3.35a.8.8,0,0,0,0-.75.79.79,0,0,0-.63-.41c-.93-.09-3.19-.23-4.09.28a6.64,6.64,0,0,0-1.65,1.51v-.49C72.51,59,73,56.79,73,56c0-1-1.23-2.93-1.76-3.7a.86.86,0,0,0-1.34,0c-.53.77-1.76,2.67-1.76,3.7,0,.77.52,3,1.62,3.75v.49a6.64,6.64,0,0,0-1.65-1.51c-.9-.51-3.16-.37-4.09-.28a.8.8,0,0,0-.65,1.15c.41.84,1.45,2.85,2.35,3.36a7,7,0,0,0,2.86.68,2.79,2.79,0,0,0,1.18-.23v2.11A6.51,6.51,0,0,0,68.14,64c-.9-.5-3.16-.36-4.09-.28a.83.83,0,0,0-.63.41.8.8,0,0,0,0,.75c.41.84,1.45,2.84,2.35,3.35a7,7,0,0,0,2.86.68,3,3,0,0,0,1.18-.22v2.1a6.64,6.64,0,0,0-1.65-1.51c-.9-.51-3.16-.37-4.09-.28a.79.79,0,0,0-.63.41.8.8,0,0,0,0,.75c.41.84,1.45,2.84,2.35,3.35a7,7,0,0,0,2.86.68A2.79,2.79,0,0,0,69.79,74v2.11a6.45,6.45,0,0,0-1.65-1.51c-.9-.51-3.16-.37-4.09-.29a.83.83,0,0,0-.63.41.8.8,0,0,0,0,.75c.41.84,1.45,2.85,2.35,3.35a7,7,0,0,0,2.86.68,3,3,0,0,0,1.18-.22v2.1a6.64,6.64,0,0,0-1.65-1.51c-.9-.5-3.16-.36-4.09-.28a.81.81,0,0,0-.63.41.8.8,0,0,0,0,.75c.41.84,1.45,2.84,2.35,3.35a7,7,0,0,0,2.86.68,3,3,0,0,0,1.18-.22v3H55.22v-3a2.79,2.79,0,0,0,1.18.23,7,7,0,0,0,2.86-.68c.9-.51,2-2.52,2.35-3.36A.8.8,0,0,0,61,79.58c-.93-.09-3.19-.23-4.09.28a6.64,6.64,0,0,0-1.65,1.51v-2.1a3,3,0,0,0,1.18.22,7,7,0,0,0,2.86-.68c.9-.51,2-2.52,2.35-3.35a.8.8,0,0,0,0-.75A.81.81,0,0,0,61,74.3c-.93-.09-3.19-.23-4.09.28a6.64,6.64,0,0,0-1.65,1.51V74a3,3,0,0,0,1.18.22,7,7,0,0,0,2.86-.68c.9-.51,2-2.51,2.35-3.35a.8.8,0,0,0,0-.75A.83.83,0,0,0,61,69c-.93-.08-3.19-.22-4.09.28a6.7,6.7,0,0,0-1.65,1.52V68.71a2.79,2.79,0,0,0,1.18.23,7,7,0,0,0,2.86-.68c.9-.51,2-2.52,2.35-3.36a.8.8,0,0,0,0-.75.83.83,0,0,0-.63-.41c-.93-.08-3.19-.22-4.09.29a6.45,6.45,0,0,0-1.65,1.51V63.43a2.79,2.79,0,0,0,1.18.23A7,7,0,0,0,59.26,63c.9-.51,2-2.52,2.35-3.35a.82.82,0,0,0,0-.76.8.8,0,0,0-.63-.4c-.93-.09-3.19-.23-4.09.28a6.64,6.64,0,0,0-1.65,1.51v-.49c1.1-.78,1.62-3,1.62-3.75,0-1-1.23-2.93-1.76-3.7a.85.85,0,0,0-1.34,0C53.21,53.09,52,55,52,56c0,.77.52,3,1.62,3.75v.49A6.64,6.64,0,0,0,52,58.75c-.9-.51-3.16-.37-4.09-.28a.8.8,0,0,0-.65,1.15c.41.84,1.45,2.85,2.35,3.36a7,7,0,0,0,2.86.68,2.79,2.79,0,0,0,1.18-.23v2.11A6.51,6.51,0,0,0,52,64c-.9-.5-3.16-.36-4.09-.28a.83.83,0,0,0-.63.41.8.8,0,0,0,0,.75c.41.84,1.45,2.84,2.35,3.35a7,7,0,0,0,2.86.68,3,3,0,0,0,1.18-.22v2.1A6.64,6.64,0,0,0,52,69.3c-.9-.51-3.16-.37-4.09-.28a.79.79,0,0,0-.63.41.8.8,0,0,0,0,.75c.41.84,1.45,2.84,2.35,3.35a7,7,0,0,0,2.86.68A2.79,2.79,0,0,0,53.6,74v2.11A6.45,6.45,0,0,0,52,74.58c-.9-.51-3.16-.37-4.09-.29a.83.83,0,0,0-.63.41.8.8,0,0,0,0,.75c.41.84,1.45,2.85,2.35,3.35a7,7,0,0,0,2.86.68,3,3,0,0,0,1.18-.22v2.1A6.64,6.64,0,0,0,52,79.85c-.9-.5-3.16-.36-4.09-.28a.81.81,0,0,0-.63.41.8.8,0,0,0,0,.75c.41.84,1.45,2.84,2.35,3.35a7,7,0,0,0,2.86.68,3,3,0,0,0,1.18-.22v3H47.93a.81.81,0,1,0,0,1.62H93.27a.81.81,0,1,0,0-1.62Zm-3.22-6.32A6,6,0,0,1,92,81.12a6.11,6.11,0,0,1-1.11,1.56,5.17,5.17,0,0,1-2.46.45A4.85,4.85,0,0,1,90.05,81.27Zm0-5.28A6,6,0,0,1,92,75.84a6.11,6.11,0,0,1-1.11,1.56,5.17,5.17,0,0,1-2.46.45A5,5,0,0,1,90.05,76Zm0-5.28A6.63,6.63,0,0,1,92,70.56a6.11,6.11,0,0,1-1.11,1.56,5,5,0,0,1-2.46.45A5,5,0,0,1,90.05,70.71Zm0-5.28A6.39,6.39,0,0,1,92,65.29a5.81,5.81,0,0,1-1.11,1.55,5.06,5.06,0,0,1-2.46.46A5,5,0,0,1,90.05,65.43Zm0-5.27A6.27,6.27,0,0,1,92,60a6.11,6.11,0,0,1-1.11,1.56,5.07,5.07,0,0,1-2.46.45A5,5,0,0,1,90.05,60.16Zm-7.31,1.41A6.32,6.32,0,0,1,81.62,60a6.19,6.19,0,0,1,1.91.15A5,5,0,0,1,85.19,62,5,5,0,0,1,82.74,61.57Zm0,5.28a6.32,6.32,0,0,1-1.12-1.56,5.88,5.88,0,0,1,1.91.15,4.92,4.92,0,0,1,1.66,1.86A5.11,5.11,0,0,1,82.74,66.85Zm0,5.27a6.12,6.12,0,0,1-1.12-1.56,6.54,6.54,0,0,1,1.91.15,4.87,4.87,0,0,1,1.66,1.87A5,5,0,0,1,82.74,72.12Zm0,5.28a6.32,6.32,0,0,1-1.12-1.56,5.88,5.88,0,0,1,1.91.15,4.92,4.92,0,0,1,1.66,1.86A5.11,5.11,0,0,1,82.74,77.4Zm0,5.28a6.32,6.32,0,0,1-1.12-1.56,5.88,5.88,0,0,1,1.91.15,4.84,4.84,0,0,1,1.66,1.86A5.11,5.11,0,0,1,82.74,82.68Zm4.05-28.4A6.38,6.38,0,0,1,87.6,56a5,5,0,0,1-.81,2.36A5,5,0,0,1,86,56,6.07,6.07,0,0,1,86.79,54.28Zm-12.93,27a6,6,0,0,1,1.91-.15,6.11,6.11,0,0,1-1.11,1.56,5.17,5.17,0,0,1-2.46.45A4.85,4.85,0,0,1,73.86,81.27Zm0-5.28a6,6,0,0,1,1.91-.15,6.11,6.11,0,0,1-1.11,1.56,5.17,5.17,0,0,1-2.46.45A5,5,0,0,1,73.86,76Zm0-5.28a6.63,6.63,0,0,1,1.91-.15,6.11,6.11,0,0,1-1.11,1.56,5,5,0,0,1-2.46.45A5,5,0,0,1,73.86,70.71Zm0-5.28a6.39,6.39,0,0,1,1.91-.14,5.81,5.81,0,0,1-1.11,1.55,5.06,5.06,0,0,1-2.46.46A5,5,0,0,1,73.86,65.43Zm0-5.27A6.27,6.27,0,0,1,75.77,60a6.11,6.11,0,0,1-1.11,1.56A5.07,5.07,0,0,1,72.2,62,5,5,0,0,1,73.86,60.16Zm-7.31,1.41A6.32,6.32,0,0,1,65.43,60a6.19,6.19,0,0,1,1.91.15A5,5,0,0,1,69,62,5,5,0,0,1,66.55,61.57Zm0,5.28a6.32,6.32,0,0,1-1.12-1.56,5.88,5.88,0,0,1,1.91.15A4.92,4.92,0,0,1,69,67.3,5.11,5.11,0,0,1,66.55,66.85Zm0,5.27a6.12,6.12,0,0,1-1.12-1.56,6.54,6.54,0,0,1,1.91.15A4.87,4.87,0,0,1,69,72.58,5,5,0,0,1,66.55,72.12Zm0,5.28a6.32,6.32,0,0,1-1.12-1.56,5.88,5.88,0,0,1,1.91.15A4.92,4.92,0,0,1,69,77.85,5.11,5.11,0,0,1,66.55,77.4Zm0,5.28a6.32,6.32,0,0,1-1.12-1.56,5.88,5.88,0,0,1,1.91.15A4.84,4.84,0,0,1,69,83.13,5.11,5.11,0,0,1,66.55,82.68Zm4-28.4A6.38,6.38,0,0,1,71.41,56a5,5,0,0,1-.81,2.36A5,5,0,0,1,69.79,56,6.07,6.07,0,0,1,70.6,54.28Zm-12.93,27a6,6,0,0,1,1.91-.15,6.11,6.11,0,0,1-1.11,1.56,5.17,5.17,0,0,1-2.46.45A4.85,4.85,0,0,1,57.67,81.27Zm0-5.28a6,6,0,0,1,1.91-.15,6.11,6.11,0,0,1-1.11,1.56,5.17,5.17,0,0,1-2.46.45A5,5,0,0,1,57.67,76Zm0-5.28a6.63,6.63,0,0,1,1.91-.15,6.11,6.11,0,0,1-1.11,1.56,5,5,0,0,1-2.46.45A5,5,0,0,1,57.67,70.71Zm0-5.28a6.39,6.39,0,0,1,1.91-.14,5.81,5.81,0,0,1-1.11,1.55A5.06,5.06,0,0,1,56,67.3,5,5,0,0,1,57.67,65.43Zm0-5.27A6.27,6.27,0,0,1,59.58,60a6.11,6.11,0,0,1-1.11,1.56A5.07,5.07,0,0,1,56,62,5,5,0,0,1,57.67,60.16Zm-7.31,1.41A6.32,6.32,0,0,1,49.24,60a6.23,6.23,0,0,1,1.91.15A5,5,0,0,1,52.81,62,5,5,0,0,1,50.36,61.57Zm0,5.28a6.32,6.32,0,0,1-1.12-1.56,5.92,5.92,0,0,1,1.91.15,4.92,4.92,0,0,1,1.66,1.86A5.11,5.11,0,0,1,50.36,66.85Zm0,5.27a6.12,6.12,0,0,1-1.12-1.56,6.59,6.59,0,0,1,1.91.15,4.87,4.87,0,0,1,1.66,1.87A5,5,0,0,1,50.36,72.12Zm0,5.28a6.32,6.32,0,0,1-1.12-1.56,5.92,5.92,0,0,1,1.91.15,4.92,4.92,0,0,1,1.66,1.86A5.11,5.11,0,0,1,50.36,77.4Zm0,5.28a6.32,6.32,0,0,1-1.12-1.56,5.92,5.92,0,0,1,1.91.15,4.84,4.84,0,0,1,1.66,1.86A5.11,5.11,0,0,1,50.36,82.68Zm4-28.4A6.38,6.38,0,0,1,55.22,56a5.07,5.07,0,0,1-.81,2.36A5.07,5.07,0,0,1,53.6,56,6.07,6.07,0,0,1,54.41,54.28Z"/><rect class="cls-2" width="141.2" height="141.2" rx="70.6"/></g></g></svg>