<svg xmlns="http://www.w3.org/2000/svg" viewBox="0 0 141.2 141.2"><defs><style>.cls-1{fill:#414a64;}.cls-2{fill:none;}</style></defs><title>HVE</title><g id="Layer_2" data-name="Layer 2"><g id="Layer_1-2" data-name="Layer 1"><path class="cls-1" d="M54.8,86.87H48.7V72.65H33.44V86.87h-6.1V54.33h6.1v14H48.7v-14h6.1Z"/><path class="cls-1" d="M58.18,54.33h4.88a2,2,0,0,1,1.28.38,2.46,2.46,0,0,1,.75,1l7.65,19.85c.25.65.5,1.36.73,2.13s.45,1.59.66,2.44a28.29,28.29,0,0,1,1.29-4.57L83.05,55.7a2.19,2.19,0,0,1,.72-.94,1.91,1.91,0,0,1,1.28-.43h4.88L76.79,86.87H71.32Z"/><path class="cls-1" d="M113.86,54.33v4.81H99.43v9H110.8v4.66H99.43V82h14.43v4.84H93.33V54.33Z"/><rect class="cls-2" width="141.2" height="141.2" rx="70.6"/></g></g></svg>