<svg xmlns="http://www.w3.org/2000/svg" viewBox="0 0 141.2 141.2"><defs><style>.cls-1{fill:#414a64;}.cls-2{fill:none;}</style></defs><title>Maraichage</title><g id="Layer_2" data-name="Layer 2"><g id="Layer_1-2" data-name="Layer 1"><path class="cls-1" d="M63.75,59.72a4.11,4.11,0,0,0-2.39-5.31,4.22,4.22,0,0,0-1.45-.26h-.09a4.11,4.11,0,0,0-8.06,0h-.08a4.11,4.11,0,0,0-4.11,4.11,4.06,4.06,0,0,0,.27,1.46,4.11,4.11,0,0,0-1.28,5.67l.19.27a4.11,4.11,0,0,0,0,4.94,4.1,4.1,0,0,0,.35,5.34,4.11,4.11,0,0,0,2.12,6.91V85.4A5.76,5.76,0,0,0,55,91.16h1.65a5.76,5.76,0,0,0,5.75-5.76V82.85A4.11,4.11,0,0,0,65.58,78a4.17,4.17,0,0,0-1.09-2.06,4.1,4.1,0,0,0,.35-5.34,4.11,4.11,0,0,0,0-4.94A4.1,4.1,0,0,0,64,59.91Zm-.57,6.56a2.46,2.46,0,0,1,.22,3.48,1.52,1.52,0,0,1-.22.22.82.82,0,0,0-.07,1.16.46.46,0,0,0,.07.07,2.46,2.46,0,0,1,.22,3.48,2.2,2.2,0,0,1-.65.53.82.82,0,0,0-.32,1.12.71.71,0,0,0,.32.32,2.47,2.47,0,0,1-1.2,4.63.82.82,0,0,0-.82.82V85.4a4.11,4.11,0,0,1-4.11,4.11H55a4.11,4.11,0,0,1-4.11-4.11V82.11a.82.82,0,0,0-.82-.82,2.47,2.47,0,0,1-1.2-4.63.82.82,0,0,0,0-1.44,2.46,2.46,0,0,1-1-3.35,2.41,2.41,0,0,1,.53-.66.82.82,0,0,0,.07-1.16L48.41,70a2.46,2.46,0,0,1-.22-3.48,1.52,1.52,0,0,1,.22-.22.82.82,0,0,0,.07-1.16.46.46,0,0,0-.07-.07,2.47,2.47,0,0,1-.22-3.49,2.5,2.5,0,0,1,1-.69.83.83,0,0,0,.51-1,1.14,1.14,0,0,0-.1-.19,2.47,2.47,0,0,1,.68-3.42,2.5,2.5,0,0,1,2-.34.82.82,0,0,0,1-.59.91.91,0,0,0,0-.23V55a2.47,2.47,0,1,1,4.93,0v.08a.83.83,0,0,0,.8.85l.23,0a2.47,2.47,0,0,1,3,1.77,2.49,2.49,0,0,1-.34,2,.83.83,0,0,0,.22,1.14l.19.1A2.46,2.46,0,0,1,63.88,64a2.37,2.37,0,0,1-.7,1,.83.83,0,0,0-.07,1.17Z"/><path class="cls-1" d="M60.33,65.54a.81.81,0,0,0,.28-1.12.83.83,0,0,0-1.13-.29l-2.86,1.72V59.08a.83.83,0,0,0-1.65,0v4.31l-2.86-1.72a.82.82,0,0,0-.85,1.41h0L55,65.3v3L52.11,66.6a.83.83,0,0,0-1.13.28A.82.82,0,0,0,51.26,68h0L55,70.24v3l-2.86-1.72A.82.82,0,0,0,51.26,73L55,75.17v5.3a.83.83,0,0,0,1.65,0V77.64l3.71-2.23a.82.82,0,0,0,.28-1.13A.83.83,0,0,0,59.48,74h0l-2.86,1.72v-3l3.71-2.23a.82.82,0,0,0-.85-1.41h0l-2.86,1.72v-3Z"/><path class="cls-1" d="M73.66,64.84h-.59V63.12a4.93,4.93,0,0,0,3.12-7.82,4.11,4.11,0,1,0-7.89,0,4.92,4.92,0,0,0,3.12,7.82v1.72h-.59A4.11,4.11,0,0,0,66.71,69c0,.09,0,.18,0,.27l1.21,18.1A4.13,4.13,0,0,0,72,91.16h.43a4.13,4.13,0,0,0,4.1-3.84l1.21-18.1a4.11,4.11,0,0,0-3.83-4.37ZM69,58.26A3.32,3.32,0,0,1,69.83,56a.83.83,0,0,0,.15-.89,2.53,2.53,0,0,1-.2-1,2.47,2.47,0,1,1,4.93,0,2.53,2.53,0,0,1-.2,1,.79.79,0,0,0,.15.89,3.3,3.3,0,0,1-.18,4.65,3.2,3.2,0,0,1-1.41.77v-4a.83.83,0,1,0-1.65,0v4A3.3,3.3,0,0,1,69,58.26Zm3.51,31.25H72a2.47,2.47,0,0,1-2.46-2.3L68.36,69.12a2.47,2.47,0,0,1,2.3-2.63h3A2.47,2.47,0,0,1,76.13,69a1,1,0,0,1,0,.17l0,.65h-3a.83.83,0,1,0,0,1.65H76l-.22,3.29H73.07a.82.82,0,1,0,0,1.64h2.57l-.22,3.29H72.9a.83.83,0,0,0,0,1.65h2.41l-.39,5.92A2.48,2.48,0,0,1,72.46,89.51Z"/><path class="cls-1" d="M90.32,75.39a4.48,4.48,0,0,0,1.62-2.07.82.82,0,1,0-1.55-.53h0a3.11,3.11,0,0,1-2.51,1.84v-4a.82.82,0,1,0-1.64,0v4a3.17,3.17,0,0,1-2.52-1.84.82.82,0,0,0-1.55.52,4.51,4.51,0,0,0,1.61,2.07,8.23,8.23,0,1,0,6.55,0ZM87.05,89.51a6.58,6.58,0,1,1,6.58-6.58A6.57,6.57,0,0,1,87.05,89.51Z"/><rect class="cls-2" width="141.2" height="141.2" rx="70.6"/></g></g></svg>