<svg xmlns="http://www.w3.org/2000/svg" viewBox="0 0 141.2 141.2"><defs><style>.cls-1{fill:#414a64;}.cls-2{fill:none;}</style></defs><title>PBI</title><g id="Layer_2" data-name="Layer 2"><g id="Layer_1-2" data-name="Layer 1"><path class="cls-1" d="M99.68,75.12V71a8,8,0,0,0-6.6-7.9v-5.2a.94.94,0,0,0-1-1h-1.6v-2.8l1.7-1a1,1,0,0,0-1-1.8L89,52.62a1.05,1.05,0,0,0-.5.9v3.3h-1.6a.94.94,0,0,0-1,1v5.1h-4.4L79,50.12a3.52,3.52,0,0,0-3.4-2.8H62.28a3.54,3.54,0,0,0-3.5,3.5V63h0v4.5c-2.8-3-9.1-9.7-11.9-12.7h0a1.34,1.34,0,0,0-.8-.5c-5.7-1-8.1,4.9-6.2,10.3a1,1,0,0,0,.9.7h0a.94.94,0,0,0,1-1V64a4.47,4.47,0,0,1,7.7-3.5l.2.2c-4.2.9-5.2,6.1-3.8,10.3a1.2,1.2,0,0,0,1,.7h0a.94.94,0,0,0,1-1v-.3a4.47,4.47,0,0,1,7.7-3.5l3.1,3.3a11.21,11.21,0,1,0,18,11.2h10a8.3,8.3,0,1,0,16.6.4A8.16,8.16,0,0,0,99.68,75.12Zm-11.8-16.3h3.2v4.1h-3.2Zm-10.7-8.3,2.4,12.4H66.48V49.32h9.2A1.59,1.59,0,0,1,77.18,50.52Zm-16.4.2a1.54,1.54,0,0,1,1.5-1.5h2.1v13.7h-3.6Zm-19.3,8.5a3.55,3.55,0,0,1,3.5-3.1h.5l.8.8.1.1A6.12,6.12,0,0,0,41.48,59.22Zm6.1,6.4c.5-2.1,1.8-3.3,4-3.1l.9.9A6.63,6.63,0,0,0,47.58,65.62Zm18.2,22.5a9.2,9.2,0,1,1,9.2-9.2A9.18,9.18,0,0,1,65.78,88.12Zm11.3-9.2a11.18,11.18,0,0,0-11.2-11.2,11.52,11.52,0,0,0-5,1.2v-4h30.9a6,6,0,0,1,6,6V74a8.84,8.84,0,0,0-2.7-.4,8.16,8.16,0,0,0-7.9,5.9h-10C77,79.32,77.08,79.12,77.08,78.92ZM95,88.12a6.27,6.27,0,0,1-6.3-6.3,6.34,6.34,0,0,1,6.3-6.3,6.3,6.3,0,0,1,0,12.6Z"/><path class="cls-1" d="M95,78.12a3.8,3.8,0,1,0,3.8,3.8A3.8,3.8,0,0,0,95,78.12Zm0,5.6a1.8,1.8,0,1,1,1.8-1.8A1.79,1.79,0,0,1,95,83.72Z"/><path class="cls-1" d="M65.78,73.12a5.8,5.8,0,0,0-5.8,5.8,5.87,5.87,0,0,0,5.8,5.8,5.8,5.8,0,0,0,5.8-5.8A5.68,5.68,0,0,0,65.78,73.12Zm0,9.7a3.8,3.8,0,1,1,3.8-3.8A3.74,3.74,0,0,1,65.78,82.82Z"/><path class="cls-1" d="M85.48,75.32h-6.2a1,1,0,0,0,0,2h6.3a.94.94,0,0,0,1-1A1.18,1.18,0,0,0,85.48,75.32Z"/><path class="cls-1" d="M85.48,70.22a.94.94,0,0,0,1-1V67a1,1,0,0,0-2,0v2.2A.94.94,0,0,0,85.48,70.22Z"/><path class="cls-1" d="M89.38,70.22a.94.94,0,0,0,1-1V67a1,1,0,1,0-2,0v2.2A.94.94,0,0,0,89.38,70.22Z"/><path class="cls-1" d="M93.18,70.22a.94.94,0,0,0,1-1V67a1,1,0,1,0-2,0v2.2A.94.94,0,0,0,93.18,70.22Z"/><path class="cls-1" d="M67.26,97.88v3.06H65.65V92.26h2.82a4.87,4.87,0,0,1,1.51.21A2.79,2.79,0,0,1,71,93a2.22,2.22,0,0,1,.61.87,3.1,3.1,0,0,1,.2,1.12,3.06,3.06,0,0,1-.21,1.15,2.49,2.49,0,0,1-.63.91,3,3,0,0,1-1,.58,4.68,4.68,0,0,1-1.48.21Zm0-1.26h1.21a2.3,2.3,0,0,0,.78-.11,1.42,1.42,0,0,0,.54-.31,1.36,1.36,0,0,0,.33-.51,2,2,0,0,0,.1-.66,1.81,1.81,0,0,0-.1-.63,1.25,1.25,0,0,0-.33-.48,1.41,1.41,0,0,0-.54-.3,2.3,2.3,0,0,0-.78-.11H67.26Z"/><path class="cls-1" d="M73.09,100.94V92.26h3a6.05,6.05,0,0,1,1.45.16,2.85,2.85,0,0,1,1,.47,1.79,1.79,0,0,1,.57.72,2.49,2.49,0,0,1,.18,1,1.92,1.92,0,0,1-.09.59,1.88,1.88,0,0,1-.28.52,2.27,2.27,0,0,1-.48.44,3.7,3.7,0,0,1-.69.34c1.19.26,1.78.91,1.78,1.93a2.45,2.45,0,0,1-.21,1,2.17,2.17,0,0,1-.61.8,2.94,2.94,0,0,1-1,.54,4.56,4.56,0,0,1-1.34.19ZM74.71,96H76a2.14,2.14,0,0,0,1.24-.3,1.08,1.08,0,0,0,.43-1,1.13,1.13,0,0,0-.38-1,2,2,0,0,0-1.2-.29H74.71Zm0,1.11v2.55h1.63a2.39,2.39,0,0,0,.76-.11,1.26,1.26,0,0,0,.48-.29,1.17,1.17,0,0,0,.27-.42,1.7,1.7,0,0,0,.08-.51,1.31,1.31,0,0,0-.09-.5,1.08,1.08,0,0,0-.28-.39,1.37,1.37,0,0,0-.5-.24,2.53,2.53,0,0,0-.72-.09Z"/><path class="cls-1" d="M82.73,100.94H81.11V92.26h1.62Z"/><path class="cls-1" d="M103.28,61.18a3.51,3.51,0,1,1,3.51-3.51A3.51,3.51,0,0,1,103.28,61.18Zm0-4.68a1.17,1.17,0,1,0,0,2.34,1.17,1.17,0,1,0,0-2.34Z"/><path class="cls-1" d="M37.92,79.83a3.51,3.51,0,1,1,3.51-3.51A3.51,3.51,0,0,1,37.92,79.83Zm0-4.68a1.17,1.17,0,1,0,1.17,1.17A1.17,1.17,0,0,0,37.92,75.15Z"/><path class="cls-1" d="M86.48,47.26A3.52,3.52,0,1,1,90,43.74,3.52,3.52,0,0,1,86.48,47.26Zm0-4.69a1.17,1.17,0,1,0,1.17,1.17A1.17,1.17,0,0,0,86.48,42.57Z"/><path class="cls-1" d="M52.06,48.68A2.93,2.93,0,1,1,55,45.76,2.93,2.93,0,0,1,52.06,48.68Zm0-3.51a.59.59,0,1,0,.58.59A.58.58,0,0,0,52.06,45.17Z"/><path class="cls-1" d="M99.77,43.74a1.38,1.38,0,0,1-1-.39,1.34,1.34,0,0,1-.39-1,1.33,1.33,0,0,1,1.35-1.35,1.35,1.35,0,0,1,1.35,1.35,1.31,1.31,0,0,1-.4,1A1.34,1.34,0,0,1,99.77,43.74Zm0-2.34a1,1,0,0,0-1,1,1,1,0,0,0,.29.7,1,1,0,0,0,1.4,0,1,1,0,0,0,0-1.41A1,1,0,0,0,99.77,41.4Z"/><path class="cls-1" d="M64.47,40.79a1.35,1.35,0,0,1-1.35-1.35,1.32,1.32,0,0,1,.4-.95,1.35,1.35,0,0,1,1.9,0,1.32,1.32,0,0,1,.4.95,1.35,1.35,0,0,1-1.35,1.35Zm0-2.34a1,1,0,0,0-.7.29,1,1,0,0,0,0,1.41,1,1,0,0,0,1.4,0,1,1,0,0,0,0-1.41A1,1,0,0,0,64.47,38.45Z"/><rect class="cls-2" width="141.2" height="141.2" rx="70.6"/></g></g></svg>