<svg xmlns="http://www.w3.org/2000/svg" viewBox="0 0 141.2 141.2"><defs><style>.cls-1{fill:#414a64;}.cls-2{fill:none;}</style></defs><title>Polyculture-elevage</title><g id="Layer_2" data-name="Layer 2"><g id="Layer_1-2" data-name="Layer 1"><path class="cls-1" d="M103.58,60.37a1,1,0,0,1,.07-.62l.13-.34a2.14,2.14,0,0,0-.11-1.88l-.46-.78,1.26-2.12a1.37,1.37,0,0,0-.47-1.87,1.45,1.45,0,0,0-.71-.19h0a8.08,8.08,0,0,0-3.91,1.54.92.92,0,0,0-.2,1.28.91.91,0,0,0,.61.36.85.85,0,0,0,.67-.17,7.32,7.32,0,0,1,1.91-1l-1,1.66a.92.92,0,0,0,0,.92l.72,1.25a.29.29,0,0,1,0,.27l-.14.34a3,3,0,0,0-.19,1.64l1.08,6.13a.3.3,0,0,1-.15.31l-1.1.63a.3.3,0,0,1-.36-.05,1,1,0,0,0-.25-.17,14,14,0,0,1-4.08-2.81,17.88,17.88,0,0,1-2.52-3.23,8.55,8.55,0,0,1-1-4.11.93.93,0,0,0-.91-.93h0a.92.92,0,0,0-.91.91,9.68,9.68,0,0,0,.29,2.46l-6.17-.23h-.12a1.93,1.93,0,0,0-1.78,1.19L82,64.8a.88.88,0,0,0-.07.33l-.45,11H79.41L78,62.9a.84.84,0,0,0-.18-.45l-2.43-3.24a3,3,0,0,0-2.29-1.08h-16a3.34,3.34,0,0,0-2.12.76l-8.15,6.75a.91.91,0,0,0-.34.7v9.79H44.22V62.6a1.76,1.76,0,0,1,.25-.89l3.29-5.43a.9.9,0,0,0,.12-.64l-2-10.57a2,2,0,0,1,0-.8l1.55-6.77a8.56,8.56,0,0,1,3.63-.28h.13c4.57,0,16.76,0,24,0h5.43a2.89,2.89,0,0,1,2.59,1.2l13,15.39a.89.89,0,0,0,.64.32l1,.06h.06a.9.9,0,0,0,.83-.56A3.82,3.82,0,0,1,100,52.15a.89.89,0,0,0,.61.23.91.91,0,0,0,.91-.91,1.37,1.37,0,0,0-2.08-1.16,5.83,5.83,0,0,0-2,2h0L84.65,37.25a4.63,4.63,0,0,0-4.06-1.85H51.27a10.64,10.64,0,0,0-9.5,3.7c-2,2.57-2.28,5.51-2.28,8a18,18,0,0,1-.14,2.55l-.46.34-.06.05a6.29,6.29,0,0,0-2,2.87,5.73,5.73,0,0,0-.23,2.63,6.81,6.81,0,0,0,.2,1v0c0,.19.09.38.12.58a1.17,1.17,0,0,0,.74,1,1,1,0,0,0,.39.07,2.12,2.12,0,0,0,1.26-.59,3,3,0,0,1,.61-.38,4.66,4.66,0,0,0,.9-.56A5.89,5.89,0,0,0,42.69,53a.92.92,0,0,0-1.81-.27v0a4.12,4.12,0,0,1-1.24,2.57,3.3,3.3,0,0,1-.57.34,5.86,5.86,0,0,0-.56.32,3.82,3.82,0,0,1-.11-.57,3.91,3.91,0,0,1,.13-1.83,4.54,4.54,0,0,1,1.35-2c.27-.21.53-.4.8-.57a1,1,0,0,0,.41-.61,18.57,18.57,0,0,0,.23-3.25,10.71,10.71,0,0,1,1.89-6.92,7.62,7.62,0,0,1,2.15-1.84l-1.25,5.48a3.63,3.63,0,0,0,0,1.54L46,55.63l-3.11,5.13a3.53,3.53,0,0,0-.52,1.84V76.49A1.47,1.47,0,0,0,43.86,78h3a1.46,1.46,0,0,0,1.46-1.46V66.77l2.23-1.84,3.78,10.44a1.31,1.31,0,0,0,1.23.86h2.62a1.32,1.32,0,0,0,1-.52,1.29,1.29,0,0,0,.22-1.11l-2.35-9L60.94,60h9.23L67.65,74.7a1.31,1.31,0,0,0,1.06,1.51l.23,0h2.92a1.3,1.3,0,0,0,1.24-.88l3.39-9.72,1.14,11.09a1.22,1.22,0,0,0,.36.83,1.35,1.35,0,0,0,1,.4h3a1.32,1.32,0,0,0,1.32-1.31l.46-11.27,1.68-3.85a.17.17,0,0,1,.16-.09l6.77.25.23.38.14.22a13,13,0,0,0,3,3.8,16,16,0,0,0,4.41,3,2.15,2.15,0,0,0,2.42.22l1.1-.63a2.13,2.13,0,0,0,1.05-2.21ZM75.64,62.53s0,0,0,0L71.49,74.4H69.55L72,60h1.12a1.16,1.16,0,0,1,.87.39Zm-20.29,2.4a.89.89,0,0,0-.13.74L57.5,74.4H55.92L52.05,63.72s0,0,0,0l4.1-3.39a1.47,1.47,0,0,1,1-.34h1.64Z"/><path class="cls-1" d="M42.06,86.26v3.06H40.44V80.64h2.83a4.76,4.76,0,0,1,1.5.21,2.64,2.64,0,0,1,1,.57,2.24,2.24,0,0,1,.62.87,3.1,3.1,0,0,1,.19,1.12,3.06,3.06,0,0,1-.21,1.15,2.49,2.49,0,0,1-.63.91,3,3,0,0,1-1,.58,4.65,4.65,0,0,1-1.47.21Zm0-1.26h1.21a2.27,2.27,0,0,0,.77-.11,1.55,1.55,0,0,0,.55-.31,1.34,1.34,0,0,0,.32-.51,2,2,0,0,0,.11-.66,1.81,1.81,0,0,0-.11-.63,1.23,1.23,0,0,0-.32-.48A1.72,1.72,0,0,0,44,82a2.94,2.94,0,0,0-.77-.1H42.06Z"/><path class="cls-1" d="M50.25,83.07a3.31,3.31,0,0,1,1.25.22,2.66,2.66,0,0,1,1.57,1.62,3.93,3.93,0,0,1,.22,1.32,3.88,3.88,0,0,1-.22,1.32,2.89,2.89,0,0,1-.61,1,2.65,2.65,0,0,1-1,.64,3.66,3.66,0,0,1-2.5,0,2.69,2.69,0,0,1-1-.64,2.89,2.89,0,0,1-.61-1,3.66,3.66,0,0,1-.22-1.32,3.69,3.69,0,0,1,.22-1.32,2.76,2.76,0,0,1,.61-1,2.81,2.81,0,0,1,1-.63A3.31,3.31,0,0,1,50.25,83.07Zm0,5.2a1.3,1.3,0,0,0,1.14-.52,2.63,2.63,0,0,0,.37-1.51,2.68,2.68,0,0,0-.37-1.52,1.3,1.3,0,0,0-1.14-.52,1.32,1.32,0,0,0-1.15.53,3.27,3.27,0,0,0,0,3A1.31,1.31,0,0,0,50.25,88.27Z"/><path class="cls-1" d="M56,80.4v8.92H54.54V80.4Z"/><path class="cls-1" d="M59.88,91a.55.55,0,0,1-.17.24.56.56,0,0,1-.32.08h-1.1l1.15-2.47L57,83.16h1.29a.39.39,0,0,1,.28.09.52.52,0,0,1,.14.19L60,86.63a3,3,0,0,1,.11.32l.09.34a3.37,3.37,0,0,1,.1-.34l.12-.33,1.24-3.18a.39.39,0,0,1,.16-.2.44.44,0,0,1,.25-.08h1.19Z"/><path class="cls-1" d="M68.23,84.46l-.13.14a.3.3,0,0,1-.18,0,.49.49,0,0,1-.23-.06l-.25-.16a2,2,0,0,0-.36-.16,1.85,1.85,0,0,0-.51-.07,1.52,1.52,0,0,0-.69.15,1.26,1.26,0,0,0-.49.4,2,2,0,0,0-.29.64,3.63,3.63,0,0,0-.09.85,3.25,3.25,0,0,0,.1.87,1.86,1.86,0,0,0,.3.65,1.51,1.51,0,0,0,.48.4,1.73,1.73,0,0,0,1.21,0,1.42,1.42,0,0,0,.37-.19l.26-.19a.4.4,0,0,1,.25-.09.31.31,0,0,1,.27.14l.43.54a2.7,2.7,0,0,1-.54.48,3.09,3.09,0,0,1-.59.32,3.53,3.53,0,0,1-.64.16,4.89,4.89,0,0,1-.66,0,2.76,2.76,0,0,1-1.07-.21,2.5,2.5,0,0,1-.88-.63,2.87,2.87,0,0,1-.59-1,3.82,3.82,0,0,1-.22-1.35A4,4,0,0,1,63.68,85a2.77,2.77,0,0,1,.58-1,2.62,2.62,0,0,1,.93-.66,3.23,3.23,0,0,1,1.29-.24,3,3,0,0,1,1.2.22,3.1,3.1,0,0,1,.94.63Z"/><path class="cls-1" d="M71,83.16v3.91a1.36,1.36,0,0,0,.26.88,1,1,0,0,0,.79.31,1.65,1.65,0,0,0,.72-.17,2.77,2.77,0,0,0,.63-.48V83.16h1.48v6.16H74a.36.36,0,0,1-.38-.27l-.1-.49c-.13.12-.26.24-.4.35a3.12,3.12,0,0,1-.43.27,2.67,2.67,0,0,1-.5.17,2.62,2.62,0,0,1-.57.06,2.13,2.13,0,0,1-.9-.17,1.81,1.81,0,0,1-.65-.48,2.19,2.19,0,0,1-.4-.74,3.16,3.16,0,0,1-.13-1V83.16Z"/><path class="cls-1" d="M78,80.4v8.92H76.54V80.4Z"/><path class="cls-1" d="M81.72,89.41A1.63,1.63,0,0,1,80.49,89a1.73,1.73,0,0,1-.43-1.25V84.27h-.62a.28.28,0,0,1-.21-.08.29.29,0,0,1-.09-.23v-.59l1-.16.31-1.68a.4.4,0,0,1,.11-.19.4.4,0,0,1,.22-.06h.77v1.94h1.62v1H81.54v3.34a.64.64,0,0,0,.15.45.46.46,0,0,0,.38.16.75.75,0,0,0,.23,0l.16-.07.12-.07.11,0a.18.18,0,0,1,.11,0,.3.3,0,0,1,.09.1l.44.72a2.31,2.31,0,0,1-.74.41A2.82,2.82,0,0,1,81.72,89.41Z"/><path class="cls-1" d="M85.7,83.16v3.91A1.36,1.36,0,0,0,86,88a1,1,0,0,0,.78.31,1.59,1.59,0,0,0,.72-.17,2.62,2.62,0,0,0,.64-.48V83.16h1.48v6.16h-.91a.36.36,0,0,1-.37-.27l-.11-.49c-.12.12-.26.24-.39.35a3.23,3.23,0,0,1-.44.27,2.58,2.58,0,0,1-.49.17,2.65,2.65,0,0,1-.58.06,2.11,2.11,0,0,1-.89-.17,1.72,1.72,0,0,1-.65-.48,2.19,2.19,0,0,1-.4-.74,3.16,3.16,0,0,1-.13-1V83.16Z"/><path class="cls-1" d="M91.17,89.32V83.16H92a.43.43,0,0,1,.31.09.46.46,0,0,1,.12.28l.09.75a2.89,2.89,0,0,1,.78-.9,1.6,1.6,0,0,1,1-.33,1.29,1.29,0,0,1,.76.21l-.19,1.11a.27.27,0,0,1-.08.15.28.28,0,0,1-.16,0,1,1,0,0,1-.25,0,2.09,2.09,0,0,0-.41,0,1.23,1.23,0,0,0-.79.26,2,2,0,0,0-.56.74v3.84Z"/><path class="cls-1" d="M98.61,83.07a3,3,0,0,1,1.07.18,2.32,2.32,0,0,1,.84.55,2.51,2.51,0,0,1,.56.87,3.38,3.38,0,0,1,.19,1.19,2.35,2.35,0,0,1,0,.28.58.58,0,0,1-.05.17.31.31,0,0,1-.11.09.4.4,0,0,1-.17,0h-3.8a2.09,2.09,0,0,0,.51,1.39,1.6,1.6,0,0,0,1.17.44,2.35,2.35,0,0,0,.63-.08,3.21,3.21,0,0,0,.45-.19l.34-.18a.57.57,0,0,1,.29-.09.24.24,0,0,1,.15,0,.29.29,0,0,1,.12.1l.43.54a2.5,2.5,0,0,1-.55.48,3.48,3.48,0,0,1-.64.32,4,4,0,0,1-.68.16,5.16,5.16,0,0,1-.67,0,3.31,3.31,0,0,1-1.19-.21,2.86,2.86,0,0,1-1-.63,3,3,0,0,1-.64-1,3.88,3.88,0,0,1-.24-1.42,3.35,3.35,0,0,1,.21-1.19,2.74,2.74,0,0,1,.58-1,2.79,2.79,0,0,1,.93-.65A3.08,3.08,0,0,1,98.61,83.07Zm0,1.06a1.37,1.37,0,0,0-1,.36,1.8,1.8,0,0,0-.47,1h2.78a1.61,1.61,0,0,0-.08-.54,1.22,1.22,0,0,0-.24-.45,1,1,0,0,0-.4-.3A1.5,1.5,0,0,0,98.64,84.13Z"/><path class="cls-1" d="M56.13,95v1.29H52.28v2.4h3V100h-3v2.46h3.85v1.29H50.65V95ZM55.78,93,54,94.27l-.13.08-.11,0-.12,0H52.34l1.18-1.21a.71.71,0,0,1,.13-.12l.13-.07.15,0h1.85Z"/><path class="cls-1" d="M59,94.8v8.92H57.54V94.8Z"/><path class="cls-1" d="M63.24,97.47a3.12,3.12,0,0,1,1.07.18,2.5,2.5,0,0,1,.84.55,2.35,2.35,0,0,1,.55.87,3.37,3.37,0,0,1,.2,1.19,2.16,2.16,0,0,1,0,.28.38.38,0,0,1,0,.17.28.28,0,0,1-.1.09.43.43,0,0,1-.17,0H61.75a2.19,2.19,0,0,0,.51,1.39,1.62,1.62,0,0,0,1.18.44,2.22,2.22,0,0,0,.62-.08,3.36,3.36,0,0,0,.46-.19l.34-.18a.54.54,0,0,1,.28-.09.27.27,0,0,1,.16,0,.35.35,0,0,1,.11.1l.44.54a2.55,2.55,0,0,1-.56.48,3,3,0,0,1-.64.32,3.84,3.84,0,0,1-.67.16,5.29,5.29,0,0,1-.67,0,3.36,3.36,0,0,1-1.2-.21,2.72,2.72,0,0,1-1.6-1.67,4.1,4.1,0,0,1-.23-1.42,3.58,3.58,0,0,1,.2-1.19,2.77,2.77,0,0,1,.59-1,2.6,2.6,0,0,1,.93-.65A3,3,0,0,1,63.24,97.47Zm0,1.06a1.4,1.4,0,0,0-1,.36,1.86,1.86,0,0,0-.47,1h2.79a1.91,1.91,0,0,0-.08-.54,1.22,1.22,0,0,0-.24-.45,1,1,0,0,0-.41-.3A1.41,1.41,0,0,0,63.27,98.53Z"/><path class="cls-1" d="M70,103.72H68.65L66.2,97.56h1.23a.46.46,0,0,1,.27.08.39.39,0,0,1,.16.2L69,101.13a4.43,4.43,0,0,1,.17.56c.05.18.09.37.13.55a5.41,5.41,0,0,1,.12-.55c.05-.18.11-.37.18-.56l1.22-3.29a.35.35,0,0,1,.14-.2.47.47,0,0,1,.26-.08h1.17Z"/><path class="cls-1" d="M78.13,103.72h-.66a.75.75,0,0,1-.33-.06.44.44,0,0,1-.18-.26l-.14-.44a3.66,3.66,0,0,1-.45.37,2.48,2.48,0,0,1-.47.27,2.76,2.76,0,0,1-.51.16,2.8,2.8,0,0,1-.6,0,2.37,2.37,0,0,1-.72-.1,1.59,1.59,0,0,1-.57-.32,1.53,1.53,0,0,1-.37-.52,2,2,0,0,1-.13-.73,1.38,1.38,0,0,1,.19-.69,1.73,1.73,0,0,1,.6-.61,4.09,4.09,0,0,1,1.14-.46,7.27,7.27,0,0,1,1.76-.18v-.36a1.38,1.38,0,0,0-.26-.92,1,1,0,0,0-.76-.3,2,2,0,0,0-.6.08,2.76,2.76,0,0,0-.42.19l-.33.19a.62.62,0,0,1-.33.08.46.46,0,0,1-.26-.07.55.55,0,0,1-.17-.2l-.27-.47a3.65,3.65,0,0,1,2.56-1,2.5,2.5,0,0,1,1,.18,1.88,1.88,0,0,1,.71.49,2,2,0,0,1,.45.75,2.93,2.93,0,0,1,.15,1Zm-2.88-.93a1.87,1.87,0,0,0,.42,0,1.6,1.6,0,0,0,.37-.12,2.9,2.9,0,0,0,.33-.2c.1-.09.21-.18.32-.29v-1a6.49,6.49,0,0,0-1.09.08,2.54,2.54,0,0,0-.7.21.82.82,0,0,0-.37.3.66.66,0,0,0-.11.36.68.68,0,0,0,.23.57A1,1,0,0,0,75.25,102.79Z"/><path class="cls-1" d="M81.72,97.45a2.94,2.94,0,0,1,.74.09,2.42,2.42,0,0,1,.64.23h1.77v.56a.28.28,0,0,1-.07.21.45.45,0,0,1-.25.11l-.55.1a1.59,1.59,0,0,1,.09.33,1.5,1.5,0,0,1,0,.37,1.71,1.71,0,0,1-.19.82,1.82,1.82,0,0,1-.5.63,2.49,2.49,0,0,1-.76.4,3.32,3.32,0,0,1-1,.14,3.08,3.08,0,0,1-.68-.07c-.19.12-.29.25-.29.4a.29.29,0,0,0,.18.27,1.22,1.22,0,0,0,.45.12,3.92,3.92,0,0,0,.63,0q.36,0,.72,0a5.84,5.84,0,0,1,.73.11,2.23,2.23,0,0,1,.63.23,1.21,1.21,0,0,1,.45.45,1.28,1.28,0,0,1,.17.72,1.63,1.63,0,0,1-.2.79,2,2,0,0,1-.58.69,2.91,2.91,0,0,1-.93.48,4.08,4.08,0,0,1-1.26.18,4.91,4.91,0,0,1-1.22-.13,2.79,2.79,0,0,1-.85-.36,1.48,1.48,0,0,1-.51-.52,1.25,1.25,0,0,1-.17-.61,1.09,1.09,0,0,1,.26-.73,1.93,1.93,0,0,1,.74-.47.91.91,0,0,1-.37-.33,1,1,0,0,1-.14-.55,1,1,0,0,1,0-.28.89.89,0,0,1,.15-.29,1.29,1.29,0,0,1,.25-.28,1.93,1.93,0,0,1,.35-.23,1.89,1.89,0,0,1-.73-.67,1.78,1.78,0,0,1-.27-1,1.87,1.87,0,0,1,.18-.83A1.92,1.92,0,0,1,80,98a2.4,2.4,0,0,1,.78-.4A3.29,3.29,0,0,1,81.72,97.45ZM83.35,104a.41.41,0,0,0-.11-.3.65.65,0,0,0-.29-.18,1.78,1.78,0,0,0-.44-.1,4.45,4.45,0,0,0-.53,0h-.57a2.25,2.25,0,0,1-.58-.07,1.68,1.68,0,0,0-.4.33.7.7,0,0,0-.16.44.55.55,0,0,0,.09.3.72.72,0,0,0,.25.24,1.54,1.54,0,0,0,.46.16,3.4,3.4,0,0,0,.69.06,3,3,0,0,0,.72-.07,1.75,1.75,0,0,0,.49-.17.85.85,0,0,0,.29-.27A.69.69,0,0,0,83.35,104Zm-1.63-3.49a1.43,1.43,0,0,0,.48-.07.89.89,0,0,0,.34-.21.83.83,0,0,0,.2-.32,1.07,1.07,0,0,0,.07-.41,1,1,0,0,0-.27-.72,1.38,1.38,0,0,0-1.64,0,1,1,0,0,0-.27.72,1,1,0,0,0,.07.4.79.79,0,0,0,.2.33,1,1,0,0,0,.34.21A1.43,1.43,0,0,0,81.72,100.49Z"/><path class="cls-1" d="M88.34,97.47a3.14,3.14,0,0,1,1.08.18,2.5,2.5,0,0,1,.84.55,2.35,2.35,0,0,1,.55.87,3.37,3.37,0,0,1,.2,1.19,2.16,2.16,0,0,1,0,.28.38.38,0,0,1,0,.17.24.24,0,0,1-.11.09.38.38,0,0,1-.16,0H86.86a2.19,2.19,0,0,0,.51,1.39,1.62,1.62,0,0,0,1.18.44,2.22,2.22,0,0,0,.62-.08,3.36,3.36,0,0,0,.46-.19l.34-.18a.54.54,0,0,1,.28-.09.29.29,0,0,1,.16,0,.35.35,0,0,1,.11.1l.44.54a2.55,2.55,0,0,1-.56.48,3,3,0,0,1-.64.32,3.84,3.84,0,0,1-.67.16,5.29,5.29,0,0,1-.67,0,3.36,3.36,0,0,1-1.2-.21,3,3,0,0,1-1-.63,3.1,3.1,0,0,1-.64-1,3.88,3.88,0,0,1-.23-1.42,3.58,3.58,0,0,1,.2-1.19,2.77,2.77,0,0,1,.59-1,2.6,2.6,0,0,1,.93-.65A3,3,0,0,1,88.34,97.47Zm0,1.06a1.37,1.37,0,0,0-1,.36,1.86,1.86,0,0,0-.47,1h2.79a1.91,1.91,0,0,0-.08-.54,1.22,1.22,0,0,0-.24-.45,1,1,0,0,0-.41-.3A1.46,1.46,0,0,0,88.37,98.53Z"/><rect class="cls-2" width="141.2" height="141.2" rx="70.6"/></g></g></svg>